<?xml version="1.0" encoding="utf-8"?>
<!-- Generator: Adobe Illustrator 21.0.0, SVG Export Plug-In . SVG Version: 6.00 Build 0)  -->
<svg version="1.1" id="Layer_1" xmlns="http://www.w3.org/2000/svg" xmlns:xlink="http://www.w3.org/1999/xlink" x="0px" y="0px"
	 viewBox="0 0 668 553" style="enable-background:new 0 0 668 553;" xml:space="preserve">
<style type="text/css">
	.st0{fill:none;stroke:#00A6CE;stroke-width:1.56;stroke-linejoin:round;stroke-miterlimit:10;}
	.st1{fill-rule:evenodd;clip-rule:evenodd;fill:#00A6CE;}
	.st2{fill:none;stroke:#606161;stroke-width:1.56;stroke-linejoin:round;stroke-miterlimit:10;}
	.st3{fill-rule:evenodd;clip-rule:evenodd;fill:#606161;}
	.st4{fill:#E5F5F8;}
	.st5{fill-rule:evenodd;clip-rule:evenodd;fill:#72BF44;}
	.st6{fill:#FFFFFF;}
	.st7{font-family:'FrutigerLTCYR-Bold';}
	.st8{font-size:12.4788px;}
	.st9{fill-rule:evenodd;clip-rule:evenodd;fill:#FCAF17;}
	.st10{fill-rule:evenodd;clip-rule:evenodd;fill:#6F85C2;}
	.st11{fill-rule:evenodd;clip-rule:evenodd;fill:#FFFFFF;}
</style>
<text transform="matrix(1 0 0 1 272.8057 -11.9375)" style="fill:#838E30; font-family:'FrutigerLTCYR-Light'; font-size:14.5586px;"> </text>
<polyline class="st0" points="379.4,22 379.4,23.3 620.2,23.3 620.2,481.5 435.1,481.5 "/>
<polygon class="st1" points="436.5,477.4 428.2,481.5 436.5,485.7 "/>
<line class="st2" x1="170.9" y1="523" x2="140.1" y2="523"/>
<polygon class="st3" points="169.5,527.2 177.9,523 169.5,518.9 "/>
<g>
	<path d="M189.1,524.4c0,0.4-0.1,0.7-0.2,1s-0.3,0.6-0.5,0.8s-0.5,0.4-0.9,0.6c-0.4,0.1-0.8,0.2-1.4,0.2h-2.2v-8.7h4.6v0.7h-3.7v2.8
		h1.4c1,0,1.7,0.2,2.2,0.7S189.1,523.6,189.1,524.4z M188.2,524.4c0-0.6-0.2-1-0.6-1.3c-0.4-0.3-0.9-0.4-1.6-0.4h-1.3v3.7h1.4
		c0.3,0,0.6,0,0.8-0.1s0.5-0.2,0.7-0.3s0.3-0.3,0.4-0.6S188.2,524.7,188.2,524.4z"/>
	<path d="M194.4,527v-1.1c-0.1,0.2-0.2,0.4-0.4,0.5c-0.2,0.2-0.3,0.3-0.5,0.4c-0.2,0.1-0.4,0.2-0.6,0.2c-0.2,0-0.4,0.1-0.6,0.1
		c-0.6,0-1.1-0.2-1.4-0.5c-0.4-0.3-0.5-0.8-0.5-1.3c0-0.7,0.3-1.2,0.9-1.6c0.6-0.4,1.4-0.5,2.5-0.5c0.1,0,0.2,0,0.4,0
		c0.1,0,0.2,0,0.4,0v-0.1c0-0.7-0.1-1.1-0.3-1.4c-0.2-0.3-0.6-0.4-1.2-0.4c-0.3,0-0.6,0-0.9,0.1c-0.3,0.1-0.6,0.2-0.9,0.4v-0.8
		c0.3-0.1,0.6-0.3,0.9-0.3c0.3-0.1,0.7-0.1,1-0.1c0.7,0,1.2,0.2,1.6,0.5s0.6,0.9,0.6,1.5v3.2c0,0.2,0,0.4,0,0.6c0,0.2,0,0.4,0,0.6
		H194.4z M194.3,523.8c-0.1,0-0.1,0-0.2,0c-0.1,0-0.2,0-0.2,0c-0.3,0-0.5,0-0.9,0c-0.3,0-0.6,0.1-0.9,0.2c-0.3,0.1-0.5,0.2-0.7,0.4
		c-0.2,0.2-0.3,0.5-0.3,0.8c0,0.4,0.1,0.6,0.4,0.9c0.2,0.2,0.6,0.3,1,0.3c0.3,0,0.5,0,0.8-0.1c0.2-0.1,0.4-0.2,0.6-0.4
		c0.1-0.1,0.2-0.3,0.3-0.4c0.1-0.2,0.1-0.3,0.1-0.5c0-0.2,0-0.4,0-0.6S194.3,524,194.3,523.8z"/>
	<path d="M201.1,520.7h0.8v6.4h-0.8v-3h-3.4v3h-0.8v-6.4h0.8v2.7h3.4V520.7z"/>
	<path d="M203.9,527v-6.4h0.8v2.9l3-2.9h1l-3.1,3l3.5,3.4H208l-3.3-3.3v3.3H203.9z"/>
	<path d="M215.6,523.8c0,0.5-0.1,1-0.2,1.4c-0.1,0.4-0.3,0.8-0.6,1.1c-0.3,0.3-0.6,0.5-0.9,0.7s-0.8,0.2-1.2,0.2
		c-0.4,0-0.8-0.1-1.2-0.2c-0.4-0.2-0.7-0.4-0.9-0.7c-0.3-0.3-0.5-0.6-0.6-1c-0.1-0.4-0.2-0.9-0.2-1.3c0-0.5,0.1-1,0.2-1.4
		c0.1-0.4,0.3-0.8,0.6-1.1s0.6-0.5,0.9-0.7c0.4-0.2,0.8-0.2,1.3-0.2c0.5,0,0.9,0.1,1.3,0.3c0.4,0.2,0.7,0.4,0.9,0.7
		c0.2,0.3,0.4,0.6,0.5,1C215.5,522.9,215.6,523.4,215.6,523.8z M210.5,523.9c0,0.4,0.1,0.7,0.2,1.1c0.1,0.3,0.3,0.6,0.4,0.8
		s0.4,0.4,0.7,0.6s0.5,0.2,0.9,0.2s0.6-0.1,0.9-0.2c0.3-0.1,0.5-0.3,0.7-0.6s0.3-0.5,0.4-0.8c0.1-0.3,0.2-0.7,0.2-1.1
		c0-0.4,0-0.8-0.1-1.1c-0.1-0.3-0.2-0.6-0.4-0.8c-0.2-0.2-0.4-0.4-0.7-0.5c-0.3-0.1-0.6-0.2-0.9-0.2c-0.7,0-1.2,0.2-1.6,0.7
		C210.7,522.4,210.5,523.1,210.5,523.9z"/>
	<path d="M221.1,523.8c0.1,0.1,0.3,0.2,0.4,0.3c0.1,0.1,0.2,0.3,0.3,0.4s0.1,0.4,0.1,0.6c0,0.4-0.1,0.7-0.2,0.9
		c-0.1,0.2-0.3,0.5-0.5,0.6c-0.2,0.2-0.4,0.3-0.7,0.3c-0.3,0.1-0.6,0.1-0.9,0.1h-2.5v-6.4h2.4c0.3,0,0.6,0,0.8,0.1
		c0.3,0.1,0.5,0.1,0.7,0.3c0.2,0.1,0.3,0.3,0.5,0.5c0.1,0.2,0.2,0.4,0.2,0.7c0,0.4-0.1,0.7-0.2,0.9s-0.4,0.4-0.7,0.5v0
		C220.8,523.7,220.9,523.7,221.1,523.8z M220.7,522.3c0-0.3-0.1-0.6-0.4-0.7s-0.6-0.2-1-0.2h-1.5v2h1.6c0.4,0,0.8-0.1,1-0.2
		C220.6,522.9,220.7,522.7,220.7,522.3z M217.8,526.4h1.6c0.5,0,0.9-0.1,1.1-0.3c0.3-0.2,0.4-0.5,0.4-0.9c0-0.3-0.1-0.6-0.4-0.8
		s-0.6-0.3-1.2-0.3h-1.6V526.4z"/>
	<path d="M227.6,521.7c-0.5-0.2-0.9-0.3-1.4-0.3c-0.4,0-0.7,0.1-1,0.2c-0.3,0.1-0.5,0.3-0.8,0.5c-0.2,0.2-0.4,0.5-0.5,0.8
		s-0.2,0.6-0.2,1c0,0.4,0.1,0.7,0.2,1.1s0.3,0.6,0.5,0.8c0.2,0.2,0.5,0.4,0.7,0.5c0.3,0.1,0.6,0.2,1,0.2c0.2,0,0.5,0,0.7-0.1
		c0.2,0,0.5-0.1,0.7-0.2l0.1,0.8c-0.3,0.1-0.5,0.2-0.8,0.2c-0.2,0-0.5,0.1-0.8,0.1c-0.5,0-0.9-0.1-1.3-0.2c-0.4-0.2-0.7-0.4-1-0.7
		c-0.3-0.3-0.5-0.6-0.6-1s-0.2-0.9-0.2-1.3c0-0.5,0.1-0.9,0.2-1.3c0.2-0.4,0.4-0.7,0.6-1c0.3-0.3,0.6-0.5,1-0.7s0.8-0.2,1.3-0.2
		c0.2,0,0.5,0,0.7,0.1c0.3,0,0.5,0.1,0.8,0.2L227.6,521.7z"/>
	<path d="M229,527v-6.4h0.8v2.9l3-2.9h1l-3.1,3l3.5,3.4h-1.1l-3.3-3.3v3.3H229z"/>
	<path d="M238.9,527v-1.1c-0.1,0.2-0.2,0.4-0.4,0.5c-0.2,0.2-0.3,0.3-0.5,0.4c-0.2,0.1-0.4,0.2-0.6,0.2c-0.2,0-0.4,0.1-0.6,0.1
		c-0.6,0-1.1-0.2-1.4-0.5c-0.4-0.3-0.5-0.8-0.5-1.3c0-0.7,0.3-1.2,0.9-1.6c0.6-0.4,1.4-0.5,2.5-0.5c0.1,0,0.2,0,0.4,0
		c0.1,0,0.2,0,0.4,0v-0.1c0-0.7-0.1-1.1-0.3-1.4c-0.2-0.3-0.6-0.4-1.2-0.4c-0.3,0-0.6,0-0.9,0.1c-0.3,0.1-0.6,0.2-0.9,0.4v-0.8
		c0.3-0.1,0.6-0.3,0.9-0.3c0.3-0.1,0.7-0.1,1-0.1c0.7,0,1.2,0.2,1.6,0.5s0.6,0.9,0.6,1.5v3.2c0,0.2,0,0.4,0,0.6c0,0.2,0,0.4,0,0.6
		H238.9z M238.8,523.8c-0.1,0-0.1,0-0.2,0c-0.1,0-0.2,0-0.2,0c-0.3,0-0.5,0-0.9,0c-0.3,0-0.6,0.1-0.9,0.2c-0.3,0.1-0.5,0.2-0.7,0.4
		c-0.2,0.2-0.3,0.5-0.3,0.8c0,0.4,0.1,0.6,0.4,0.9c0.2,0.2,0.6,0.3,1,0.3c0.3,0,0.5,0,0.8-0.1c0.2-0.1,0.4-0.2,0.6-0.4
		c0.1-0.1,0.2-0.3,0.3-0.4c0.1-0.2,0.1-0.3,0.1-0.5c0-0.2,0-0.4,0-0.6S238.8,524,238.8,523.8z"/>
	<path d="M245.1,527v-2.7h-1.2c-0.2,0-0.4,0-0.6,0.1c-0.1,0-0.3,0.1-0.4,0.2s-0.2,0.2-0.3,0.4c-0.1,0.1-0.2,0.3-0.3,0.5l-0.8,1.6
		h-0.9l1-1.9c0.1-0.2,0.2-0.4,0.3-0.6s0.2-0.2,0.3-0.3c0.1-0.1,0.2-0.1,0.3-0.2c0.1,0,0.2-0.1,0.3-0.1c-0.3,0-0.5-0.1-0.7-0.2
		c-0.2-0.1-0.4-0.2-0.5-0.4s-0.2-0.3-0.3-0.5c-0.1-0.2-0.1-0.3-0.1-0.5c0-0.5,0.2-1,0.6-1.3s0.8-0.5,1.4-0.5h2.7v6.4H245.1z
		 M245.1,521.4h-1.8c-0.4,0-0.7,0.1-0.9,0.3s-0.3,0.5-0.3,0.8c0,0.4,0.1,0.7,0.3,0.9c0.2,0.2,0.6,0.3,1.2,0.3h1.5V521.4z"/>
	<path d="M251.6,525.6c0.1-0.2,0.2-0.5,0.3-0.8c0.1-0.3,0.1-0.6,0.2-1s0-0.8,0-1.4v-1.8h3.9v5.7h0.9v2.8h-0.8V527h-4.9v2.1h-0.8
		v-2.8h0.7C251.4,526.1,251.5,525.8,251.6,525.6z M255.3,521.4h-2.4v1.3c0,0.7,0,1.4-0.1,2c-0.1,0.6-0.3,1.2-0.7,1.7h3.2V521.4z"/>
	<path d="M263.3,520.7v6.4h-0.8v-5.3h0l-3.3,5.3h-0.9v-6.4h0.8v5.3h0l3.3-5.3H263.3z"/>
	<path d="M269.4,521.7c-0.5-0.2-0.9-0.3-1.4-0.3c-0.4,0-0.7,0.1-1,0.2c-0.3,0.1-0.5,0.3-0.8,0.5c-0.2,0.2-0.4,0.5-0.5,0.8
		s-0.2,0.6-0.2,1c0,0.4,0.1,0.7,0.2,1.1s0.3,0.6,0.5,0.8c0.2,0.2,0.5,0.4,0.7,0.5c0.3,0.1,0.6,0.2,1,0.2c0.2,0,0.5,0,0.7-0.1
		c0.2,0,0.5-0.1,0.7-0.2l0.1,0.8c-0.3,0.1-0.5,0.2-0.8,0.2c-0.2,0-0.5,0.1-0.8,0.1c-0.5,0-0.9-0.1-1.3-0.2c-0.4-0.2-0.7-0.4-1-0.7
		c-0.3-0.3-0.5-0.6-0.6-1s-0.2-0.9-0.2-1.3c0-0.5,0.1-0.9,0.2-1.3c0.2-0.4,0.4-0.7,0.6-1c0.3-0.3,0.6-0.5,1-0.7s0.8-0.2,1.3-0.2
		c0.2,0,0.5,0,0.7,0.1c0.3,0,0.5,0.1,0.8,0.2L269.4,521.7z"/>
	<path d="M273,521.4v5.7h-0.8v-5.7h-2.2v-0.7h5.3v0.7H273z"/>
	<path d="M276.3,529.7v-9h0.8l0,1.2c0.2-0.4,0.5-0.7,0.8-1s0.7-0.3,1.3-0.3c0.5,0,0.9,0.1,1.2,0.3c0.3,0.2,0.6,0.4,0.8,0.7
		c0.2,0.3,0.4,0.6,0.5,1s0.1,0.8,0.1,1.2c0,0.4,0,0.8-0.1,1.2c-0.1,0.4-0.2,0.8-0.4,1.1s-0.5,0.6-0.8,0.7c-0.3,0.2-0.7,0.3-1.2,0.3
		c-0.5,0-0.9-0.1-1.2-0.3c-0.4-0.2-0.6-0.5-0.8-0.9v3.8H276.3z M279,521.3c-0.6,0-1.1,0.2-1.5,0.7c-0.4,0.5-0.5,1.1-0.5,1.9
		c0,0.3,0,0.6,0.1,0.9c0.1,0.3,0.2,0.6,0.4,0.8c0.2,0.2,0.4,0.4,0.6,0.6s0.6,0.2,0.9,0.2c0.6,0,1-0.2,1.3-0.7
		c0.3-0.5,0.5-1.1,0.5-1.9c0-0.8-0.2-1.5-0.5-1.9C280.1,521.5,279.6,521.3,279,521.3z"/>
	<path d="M288.3,520.7v6.4h-0.8v-5.3h0l-3.3,5.3h-0.9v-6.4h0.8v5.3h0l3.3-5.3H288.3z"/>
	<path d="M293,520.6c0.5,0,0.9,0.1,1.3,0.3c0.4,0.2,0.7,0.4,0.9,0.7c0.2,0.3,0.4,0.6,0.5,1c0.1,0.4,0.2,0.8,0.2,1.3
		c0,0.5-0.1,1-0.2,1.4c-0.1,0.4-0.3,0.8-0.6,1c-0.3,0.3-0.6,0.5-0.9,0.7c-0.4,0.2-0.8,0.2-1.2,0.2c-0.6,0-1.2-0.2-1.6-0.5
		s-0.8-0.7-1-1.2c-0.1-0.3-0.2-0.6-0.3-0.9c-0.1-0.3-0.1-0.7-0.1-1c0-0.5,0-0.9,0-1.4c0-0.5,0.1-0.9,0.2-1.3
		c0.1-0.4,0.2-0.8,0.3-1.1c0.2-0.3,0.4-0.6,0.6-0.9c0.3-0.3,0.6-0.5,1-0.6c0.3-0.1,0.7-0.2,1.1-0.3c0.4-0.1,0.8-0.1,1.1-0.1
		c0.4,0,0.7-0.1,1.1-0.2l-0.1,0.8c-0.3,0.1-0.6,0.1-0.9,0.2c-0.3,0-0.7,0.1-1,0.1c-0.3,0-0.7,0.1-1,0.2c-0.3,0.1-0.6,0.2-0.8,0.4
		c-0.2,0.2-0.4,0.5-0.5,0.7c-0.1,0.3-0.3,0.5-0.3,0.8c-0.1,0.3-0.1,0.6-0.2,0.9c0,0.3-0.1,0.6-0.1,0.9h0c0.1-0.2,0.2-0.4,0.3-0.6
		s0.3-0.4,0.5-0.6s0.4-0.4,0.7-0.5C292.2,520.7,292.6,520.6,293,520.6z M292.9,526.5c0.3,0,0.6-0.1,0.8-0.2c0.3-0.1,0.5-0.3,0.7-0.5
		s0.3-0.5,0.4-0.8c0.1-0.3,0.2-0.7,0.2-1.1c0-0.8-0.2-1.4-0.6-1.9c-0.4-0.5-0.9-0.7-1.5-0.7c-0.3,0-0.6,0.1-0.9,0.2
		s-0.5,0.3-0.7,0.5c-0.2,0.2-0.4,0.5-0.5,0.8c-0.1,0.3-0.2,0.7-0.2,1.1c0,0.4,0.1,0.7,0.2,1s0.3,0.6,0.5,0.8
		c0.2,0.2,0.4,0.4,0.7,0.5C292.3,526.5,292.6,526.5,292.9,526.5z"/>
	<path d="M301.7,520.7l-2.4,6.8c-0.1,0.2-0.2,0.5-0.3,0.8c-0.1,0.3-0.2,0.5-0.4,0.7s-0.3,0.4-0.5,0.6s-0.5,0.2-0.8,0.2
		c-0.1,0-0.3,0-0.4,0s-0.3,0-0.4-0.1l0.1-0.7c0.1,0,0.2,0.1,0.2,0.1s0.2,0,0.3,0c0.2,0,0.4-0.1,0.6-0.2c0.2-0.1,0.3-0.3,0.4-0.4
		c0.1-0.2,0.2-0.4,0.3-0.6c0.1-0.2,0.1-0.4,0.2-0.6l-2.3-6.6h0.9l1.8,5.4l1.8-5.4H301.7z"/>
	<path d="M302.8,527v-6.4h0.8v5.7h3.3v-5.7h0.8v5.7h0.9v2.8h-0.8V527H302.8z"/>
	<path d="M314.9,520.7v6.4h-0.8v-5.3h0l-3.3,5.3h-0.9v-6.4h0.8v5.3h0l3.3-5.3H314.9z"/>
	<path d="M320.5,527v-2.7h-1.2c-0.2,0-0.4,0-0.6,0.1c-0.1,0-0.3,0.1-0.4,0.2s-0.2,0.2-0.3,0.4c-0.1,0.1-0.2,0.3-0.3,0.5L317,527
		h-0.9l1-1.9c0.1-0.2,0.2-0.4,0.3-0.6s0.2-0.2,0.3-0.3c0.1-0.1,0.2-0.1,0.3-0.2c0.1,0,0.2-0.1,0.3-0.1c-0.3,0-0.5-0.1-0.7-0.2
		c-0.2-0.1-0.4-0.2-0.5-0.4s-0.2-0.3-0.3-0.5c-0.1-0.2-0.1-0.3-0.1-0.5c0-0.5,0.2-1,0.6-1.3s0.8-0.5,1.4-0.5h2.7v6.4H320.5z
		 M320.5,521.4h-1.8c-0.4,0-0.7,0.1-0.9,0.3s-0.3,0.5-0.3,0.8c0,0.4,0.1,0.7,0.3,0.9c0.2,0.2,0.6,0.3,1.2,0.3h1.5V521.4z"/>
</g>
<line class="st0" x1="346.2" y1="523" x2="377" y2="523"/>
<polygon class="st1" points="375.6,518.9 384,523 375.6,527.2 "/>
<g>
	<path d="M397.7,518.3v8.7h-0.9v-4.2h-4.4v4.2h-0.9v-8.7h0.9v3.8h4.4v-3.8H397.7z"/>
	<path d="M405.2,523.8c0,0.5-0.1,1-0.2,1.4c-0.1,0.4-0.3,0.8-0.6,1.1c-0.3,0.3-0.6,0.5-0.9,0.7s-0.8,0.2-1.2,0.2
		c-0.4,0-0.8-0.1-1.2-0.2c-0.4-0.2-0.7-0.4-0.9-0.7c-0.3-0.3-0.5-0.6-0.6-1c-0.1-0.4-0.2-0.9-0.2-1.3c0-0.5,0.1-1,0.2-1.4
		c0.1-0.4,0.3-0.8,0.6-1.1s0.6-0.5,0.9-0.7c0.4-0.2,0.8-0.2,1.3-0.2c0.5,0,0.9,0.1,1.3,0.3c0.4,0.2,0.7,0.4,0.9,0.7
		c0.2,0.3,0.4,0.6,0.5,1C405.2,522.9,405.2,523.4,405.2,523.8z M400.1,523.9c0,0.4,0.1,0.7,0.2,1.1c0.1,0.3,0.3,0.6,0.4,0.8
		s0.4,0.4,0.7,0.6s0.5,0.2,0.9,0.2s0.6-0.1,0.9-0.2c0.3-0.1,0.5-0.3,0.7-0.6s0.3-0.5,0.4-0.8c0.1-0.3,0.2-0.7,0.2-1.1
		c0-0.4,0-0.8-0.1-1.1c-0.1-0.3-0.2-0.6-0.4-0.8c-0.2-0.2-0.4-0.4-0.7-0.5c-0.3-0.1-0.6-0.2-0.9-0.2c-0.7,0-1.2,0.2-1.6,0.7
		C400.3,522.4,400.1,523.1,400.1,523.9z"/>
	<path d="M410.7,523.8c0.1,0.1,0.3,0.2,0.4,0.3c0.1,0.1,0.2,0.3,0.3,0.4s0.1,0.4,0.1,0.6c0,0.4-0.1,0.7-0.2,0.9
		c-0.1,0.2-0.3,0.5-0.5,0.6c-0.2,0.2-0.4,0.3-0.7,0.3c-0.3,0.1-0.6,0.1-0.9,0.1h-2.5v-6.4h2.4c0.3,0,0.6,0,0.8,0.1
		c0.3,0.1,0.5,0.1,0.7,0.3c0.2,0.1,0.3,0.3,0.5,0.5c0.1,0.2,0.2,0.4,0.2,0.7c0,0.4-0.1,0.7-0.2,0.9s-0.4,0.4-0.7,0.5v0
		C410.4,523.7,410.5,523.7,410.7,523.8z M410.3,522.3c0-0.3-0.1-0.6-0.4-0.7s-0.6-0.2-1-0.2h-1.5v2h1.6c0.4,0,0.8-0.1,1-0.2
		C410.2,522.9,410.3,522.7,410.3,522.3z M407.5,526.4h1.6c0.5,0,0.9-0.1,1.1-0.3c0.3-0.2,0.4-0.5,0.4-0.9c0-0.3-0.1-0.6-0.4-0.8
		s-0.6-0.3-1.2-0.3h-1.6V526.4z"/>
	<path d="M416.7,527v-1.1c-0.1,0.2-0.2,0.4-0.4,0.5c-0.2,0.2-0.3,0.3-0.5,0.4c-0.2,0.1-0.4,0.2-0.6,0.2c-0.2,0-0.4,0.1-0.6,0.1
		c-0.6,0-1.1-0.2-1.4-0.5c-0.4-0.3-0.5-0.8-0.5-1.3c0-0.7,0.3-1.2,0.9-1.6c0.6-0.4,1.4-0.5,2.5-0.5c0.1,0,0.2,0,0.4,0
		c0.1,0,0.2,0,0.4,0v-0.1c0-0.7-0.1-1.1-0.3-1.4c-0.2-0.3-0.6-0.4-1.2-0.4c-0.3,0-0.6,0-0.9,0.1c-0.3,0.1-0.6,0.2-0.9,0.4v-0.8
		c0.3-0.1,0.6-0.3,0.9-0.3c0.3-0.1,0.7-0.1,1-0.1c0.7,0,1.2,0.2,1.6,0.5s0.6,0.9,0.6,1.5v3.2c0,0.2,0,0.4,0,0.6c0,0.2,0,0.4,0,0.6
		H416.7z M416.6,523.8c-0.1,0-0.1,0-0.2,0c-0.1,0-0.2,0-0.2,0c-0.3,0-0.5,0-0.9,0c-0.3,0-0.6,0.1-0.9,0.2c-0.3,0.1-0.5,0.2-0.7,0.4
		c-0.2,0.2-0.3,0.5-0.3,0.8c0,0.4,0.1,0.6,0.4,0.9c0.2,0.2,0.6,0.3,1,0.3c0.3,0,0.5,0,0.8-0.1c0.2-0.1,0.4-0.2,0.6-0.4
		c0.1-0.1,0.2-0.3,0.3-0.4c0.1-0.2,0.1-0.3,0.1-0.5c0-0.2,0-0.4,0-0.6S416.6,524,416.6,523.8z"/>
	<path d="M423,527v-2.7h-1.2c-0.2,0-0.4,0-0.6,0.1c-0.1,0-0.3,0.1-0.4,0.2s-0.2,0.2-0.3,0.4c-0.1,0.1-0.2,0.3-0.3,0.5l-0.8,1.6h-0.9
		l1-1.9c0.1-0.2,0.2-0.4,0.3-0.6s0.2-0.2,0.3-0.3c0.1-0.1,0.2-0.1,0.3-0.2c0.1,0,0.2-0.1,0.3-0.1c-0.3,0-0.5-0.1-0.7-0.2
		c-0.2-0.1-0.4-0.2-0.5-0.4s-0.2-0.3-0.3-0.5c-0.1-0.2-0.1-0.3-0.1-0.5c0-0.5,0.2-1,0.6-1.3s0.8-0.5,1.4-0.5h2.7v6.4H423z
		 M423,521.4h-1.8c-0.4,0-0.7,0.1-0.9,0.3s-0.3,0.5-0.3,0.8c0,0.4,0.1,0.7,0.3,0.9c0.2,0.2,0.6,0.3,1.2,0.3h1.5V521.4z"/>
	<path d="M433.3,521.7c-0.5-0.2-0.9-0.3-1.4-0.3c-0.4,0-0.7,0.1-1,0.2c-0.3,0.1-0.5,0.3-0.8,0.5c-0.2,0.2-0.4,0.5-0.5,0.8
		s-0.2,0.6-0.2,1c0,0.4,0.1,0.7,0.2,1.1s0.3,0.6,0.5,0.8c0.2,0.2,0.5,0.4,0.7,0.5c0.3,0.1,0.6,0.2,1,0.2c0.2,0,0.5,0,0.7-0.1
		c0.2,0,0.5-0.1,0.7-0.2l0.1,0.8c-0.3,0.1-0.5,0.2-0.8,0.2c-0.2,0-0.5,0.1-0.8,0.1c-0.5,0-0.9-0.1-1.3-0.2c-0.4-0.2-0.7-0.4-1-0.7
		c-0.3-0.3-0.5-0.6-0.6-1s-0.2-0.9-0.2-1.3c0-0.5,0.1-0.9,0.2-1.3c0.2-0.4,0.4-0.7,0.6-1c0.3-0.3,0.6-0.5,1-0.7s0.8-0.2,1.3-0.2
		c0.2,0,0.5,0,0.7,0.1c0.3,0,0.5,0.1,0.8,0.2L433.3,521.7z"/>
	<path d="M435,524c0,0.3,0,0.6,0.1,0.9c0.1,0.3,0.2,0.6,0.4,0.8s0.4,0.4,0.7,0.5c0.3,0.1,0.6,0.2,1,0.2c0.1,0,0.3,0,0.4,0
		c0.2,0,0.3-0.1,0.5-0.1s0.3-0.1,0.4-0.1s0.3-0.1,0.4-0.2l0.1,0.8c-0.3,0.1-0.6,0.2-1,0.3c-0.4,0.1-0.7,0.1-1,0.1
		c-0.4,0-0.8-0.1-1.2-0.2c-0.4-0.2-0.7-0.4-0.9-0.7c-0.3-0.3-0.4-0.6-0.6-1c-0.1-0.4-0.2-0.9-0.2-1.4c0-0.5,0.1-0.9,0.2-1.3
		s0.3-0.7,0.6-1c0.2-0.3,0.5-0.5,0.9-0.7c0.3-0.2,0.7-0.2,1.2-0.2c0.8,0,1.4,0.3,1.8,0.8s0.6,1.3,0.6,2.3v0.4H435z M438.7,523.4
		c0-0.3,0-0.6-0.1-0.9c-0.1-0.3-0.2-0.5-0.4-0.7c-0.2-0.2-0.3-0.3-0.5-0.4c-0.2-0.1-0.4-0.2-0.7-0.2c-0.6,0-1,0.2-1.4,0.6
		c-0.4,0.4-0.6,0.9-0.6,1.6H438.7z"/>
	<path d="M443.1,521.4v5.7h-0.8v-5.7H440v-0.7h5.3v0.7H443.1z"/>
	<path d="M451.1,525c0,0.4-0.1,0.7-0.2,0.9c-0.1,0.3-0.3,0.5-0.5,0.6c-0.2,0.2-0.4,0.3-0.7,0.4s-0.6,0.1-0.9,0.1h-2.4v-6.4h0.8v2.4
		h1.7c0.3,0,0.6,0,0.8,0.1c0.3,0.1,0.5,0.2,0.7,0.3c0.2,0.2,0.4,0.3,0.5,0.6C451,524.4,451.1,524.6,451.1,525z M450.3,525
		c0-0.4-0.1-0.7-0.4-0.9c-0.3-0.2-0.7-0.3-1.2-0.3h-1.5v2.6h1.6c0.5,0,0.9-0.1,1.1-0.4C450.1,525.8,450.3,525.4,450.3,525z"/>
	<path d="M456.3,525.6c0.1-0.2,0.2-0.5,0.3-0.8c0.1-0.3,0.1-0.6,0.2-1s0-0.8,0-1.4v-1.8h3.9v5.7h0.9v2.8h-0.8V527h-4.9v2.1h-0.8
		v-2.8h0.7C456,526.1,456.1,525.8,456.3,525.6z M459.9,521.4h-2.4v1.3c0,0.7,0,1.4-0.1,2c-0.1,0.6-0.3,1.2-0.7,1.7h3.2V521.4z"/>
	<path d="M467.9,520.7v6.4h-0.8v-5.3h0l-3.3,5.3h-0.9v-6.4h0.8v5.3h0l3.3-5.3H467.9z"/>
	<path d="M474.1,521.7c-0.5-0.2-0.9-0.3-1.4-0.3c-0.4,0-0.7,0.1-1,0.2c-0.3,0.1-0.5,0.3-0.8,0.5c-0.2,0.2-0.4,0.5-0.5,0.8
		s-0.2,0.6-0.2,1c0,0.4,0.1,0.7,0.2,1.1s0.3,0.6,0.5,0.8c0.2,0.2,0.5,0.4,0.7,0.5c0.3,0.1,0.6,0.2,1,0.2c0.2,0,0.5,0,0.7-0.1
		c0.2,0,0.5-0.1,0.7-0.2l0.1,0.8c-0.3,0.1-0.5,0.2-0.8,0.2c-0.2,0-0.5,0.1-0.8,0.1c-0.5,0-0.9-0.1-1.3-0.2c-0.4-0.2-0.7-0.4-1-0.7
		c-0.3-0.3-0.5-0.6-0.6-1s-0.2-0.9-0.2-1.3c0-0.5,0.1-0.9,0.2-1.3c0.2-0.4,0.4-0.7,0.6-1c0.3-0.3,0.6-0.5,1-0.7s0.8-0.2,1.3-0.2
		c0.2,0,0.5,0,0.7,0.1c0.3,0,0.5,0.1,0.8,0.2L474.1,521.7z"/>
	<path d="M477.6,521.4v5.7h-0.8v-5.7h-2.2v-0.7h5.3v0.7H477.6z"/>
	<path d="M480.9,529.7v-9h0.8l0,1.2c0.2-0.4,0.5-0.7,0.8-1s0.7-0.3,1.3-0.3c0.5,0,0.9,0.1,1.2,0.3c0.3,0.2,0.6,0.4,0.8,0.7
		c0.2,0.3,0.4,0.6,0.5,1s0.1,0.8,0.1,1.2c0,0.4,0,0.8-0.1,1.2c-0.1,0.4-0.2,0.8-0.4,1.1s-0.5,0.6-0.8,0.7c-0.3,0.2-0.7,0.3-1.2,0.3
		c-0.5,0-0.9-0.1-1.2-0.3c-0.4-0.2-0.6-0.5-0.8-0.9v3.8H480.9z M483.7,521.3c-0.6,0-1.1,0.2-1.5,0.7c-0.4,0.5-0.5,1.1-0.5,1.9
		c0,0.3,0,0.6,0.1,0.9c0.1,0.3,0.2,0.6,0.4,0.8c0.2,0.2,0.4,0.4,0.6,0.6s0.6,0.2,0.9,0.2c0.6,0,1-0.2,1.3-0.7
		c0.3-0.5,0.5-1.1,0.5-1.9c0-0.8-0.2-1.5-0.5-1.9C484.7,521.5,484.3,521.3,483.7,521.3z"/>
	<path d="M493,520.7v6.4h-0.8v-5.3h0l-3.3,5.3h-0.9v-6.4h0.8v5.3h0l3.3-5.3H493z"/>
	<path d="M497.6,520.6c0.5,0,0.9,0.1,1.3,0.3c0.4,0.2,0.7,0.4,0.9,0.7c0.2,0.3,0.4,0.6,0.5,1c0.1,0.4,0.2,0.8,0.2,1.3
		c0,0.5-0.1,1-0.2,1.4c-0.1,0.4-0.3,0.8-0.6,1c-0.3,0.3-0.6,0.5-0.9,0.7c-0.4,0.2-0.8,0.2-1.2,0.2c-0.6,0-1.2-0.2-1.6-0.5
		s-0.8-0.7-1-1.2c-0.1-0.3-0.2-0.6-0.3-0.9c-0.1-0.3-0.1-0.7-0.1-1c0-0.5,0-0.9,0-1.4c0-0.5,0.1-0.9,0.2-1.3
		c0.1-0.4,0.2-0.8,0.3-1.1c0.2-0.3,0.4-0.6,0.6-0.9c0.3-0.3,0.6-0.5,1-0.6c0.3-0.1,0.7-0.2,1.1-0.3c0.4-0.1,0.8-0.1,1.1-0.1
		c0.4,0,0.7-0.1,1.1-0.2l-0.1,0.8c-0.3,0.1-0.6,0.1-0.9,0.2c-0.3,0-0.7,0.1-1,0.1c-0.3,0-0.7,0.1-1,0.2c-0.3,0.1-0.6,0.2-0.8,0.4
		c-0.2,0.2-0.4,0.5-0.5,0.7c-0.1,0.3-0.3,0.5-0.3,0.8c-0.1,0.3-0.1,0.6-0.2,0.9c0,0.3-0.1,0.6-0.1,0.9h0c0.1-0.2,0.2-0.4,0.3-0.6
		s0.3-0.4,0.5-0.6s0.4-0.4,0.7-0.5C496.9,520.7,497.2,520.6,497.6,520.6z M497.6,526.5c0.3,0,0.6-0.1,0.8-0.2
		c0.3-0.1,0.5-0.3,0.7-0.5s0.3-0.5,0.4-0.8c0.1-0.3,0.2-0.7,0.2-1.1c0-0.8-0.2-1.4-0.6-1.9c-0.4-0.5-0.9-0.7-1.5-0.7
		c-0.3,0-0.6,0.1-0.9,0.2s-0.5,0.3-0.7,0.5c-0.2,0.2-0.4,0.5-0.5,0.8c-0.1,0.3-0.2,0.7-0.2,1.1c0,0.4,0.1,0.7,0.2,1s0.3,0.6,0.5,0.8
		c0.2,0.2,0.4,0.4,0.7,0.5C497,526.5,497.3,526.5,497.6,526.5z"/>
	<path d="M506.4,520.7l-2.4,6.8c-0.1,0.2-0.2,0.5-0.3,0.8c-0.1,0.3-0.2,0.5-0.4,0.7s-0.3,0.4-0.5,0.6s-0.5,0.2-0.8,0.2
		c-0.1,0-0.3,0-0.4,0s-0.3,0-0.4-0.1l0.1-0.7c0.1,0,0.2,0.1,0.2,0.1s0.2,0,0.3,0c0.2,0,0.4-0.1,0.6-0.2c0.2-0.1,0.3-0.3,0.4-0.4
		c0.1-0.2,0.2-0.4,0.3-0.6c0.1-0.2,0.1-0.4,0.2-0.6l-2.3-6.6h0.9l1.8,5.4l1.8-5.4H506.4z"/>
	<path d="M507.4,527v-6.4h0.8v5.7h3.3v-5.7h0.8v5.7h0.9v2.8h-0.8V527H507.4z"/>
	<path d="M519.5,520.7v6.4h-0.8v-5.3h0l-3.3,5.3h-0.9v-6.4h0.8v5.3h0l3.3-5.3H519.5z"/>
	<path d="M526.6,520.7v6.4h-0.8v-5.3h0l-3.3,5.3h-0.9v-6.4h0.8v5.3h0l3.3-5.3H526.6z"/>
</g>
<rect x="-0.3" y="143.1" class="st4" width="668.3" height="159.7"/>
<g>
	<path d="M22.6,265v-1.8h3.5v-3.5h-3.5V258h8.7v1.8h-3.8v3.5h3.8v1.8H22.6z"/>
	<path d="M28.1,249.8c0.5,0,1,0.1,1.4,0.2c0.4,0.2,0.8,0.4,1.1,0.7s0.5,0.6,0.7,1.1c0.2,0.4,0.2,0.9,0.2,1.4c0,0.5-0.1,0.9-0.2,1.4
		c-0.2,0.4-0.4,0.8-0.7,1.1c-0.3,0.3-0.7,0.5-1.1,0.7s-0.9,0.2-1.4,0.2c-0.5,0-1-0.1-1.4-0.2s-0.8-0.4-1.1-0.7
		c-0.3-0.3-0.5-0.6-0.7-1.1c-0.2-0.4-0.2-0.9-0.2-1.4s0.1-1,0.2-1.4c0.2-0.4,0.4-0.8,0.7-1c0.3-0.3,0.7-0.5,1.1-0.7
		S27.6,249.8,28.1,249.8z M28.1,254.8c0.2,0,0.5,0,0.7-0.1c0.2-0.1,0.5-0.1,0.7-0.3c0.2-0.1,0.4-0.3,0.5-0.5
		c0.1-0.2,0.2-0.4,0.2-0.7c0-0.5-0.2-0.9-0.6-1.2c-0.4-0.3-0.9-0.4-1.6-0.4c-0.7,0-1.2,0.1-1.5,0.4c-0.4,0.3-0.6,0.7-0.6,1.2
		c0,0.3,0.1,0.6,0.2,0.8c0.1,0.2,0.3,0.4,0.5,0.5c0.2,0.1,0.4,0.2,0.7,0.3C27.6,254.8,27.8,254.8,28.1,254.8z"/>
	<path d="M29.5,242.9c0.6,0,1.1,0.2,1.4,0.6s0.4,1,0.4,1.8v3.2h-6.4v-3.3c0-0.4,0-0.7,0.1-1c0.1-0.3,0.2-0.5,0.3-0.6
		c0.1-0.2,0.3-0.3,0.5-0.3c0.2-0.1,0.4-0.1,0.6-0.1c0.2,0,0.4,0,0.6,0.1c0.2,0.1,0.3,0.2,0.4,0.3s0.2,0.2,0.3,0.4
		c0.1,0.1,0.1,0.3,0.1,0.4h0c0-0.1,0-0.3,0.1-0.4s0.1-0.3,0.3-0.5s0.3-0.3,0.5-0.4C29,243,29.2,242.9,29.5,242.9z M26.7,244.8
		c-0.1,0-0.2,0-0.3,0.1c-0.1,0.1-0.2,0.1-0.2,0.2c0,0.1-0.1,0.2-0.1,0.3c0,0.1,0,0.2,0,0.4v1.2h1.4v-1.3c0-0.3-0.1-0.5-0.1-0.6
		C27.2,244.9,27,244.8,26.7,244.8z M29.3,244.7c-0.2,0-0.3,0-0.4,0.1c-0.1,0.1-0.2,0.1-0.2,0.2s-0.1,0.2-0.1,0.3c0,0.1,0,0.2,0,0.3
		v1.3h1.5v-1.3c0-0.3-0.1-0.5-0.2-0.7S29.6,244.7,29.3,244.7z"/>
	<path d="M31.3,235.5h-6.4v-1.7h6.4V235.5z M29.2,236.3c0.7,0,1.2,0.2,1.6,0.7c0.4,0.4,0.5,1.1,0.5,1.8v2.7h-6.4v-1.7h2.2v-1.1
		c0-0.3,0-0.6,0.1-0.9c0.1-0.3,0.2-0.6,0.4-0.8c0.2-0.2,0.4-0.4,0.7-0.5S28.8,236.3,29.2,236.3z M29.2,238.1c-0.3,0-0.5,0.1-0.7,0.3
		c-0.1,0.2-0.2,0.4-0.2,0.8v0.8h1.8V239c0-0.3-0.1-0.5-0.2-0.7C29.7,238.2,29.4,238.1,29.2,238.1z"/>
	<path d="M28.6,230.9c0.3,0,0.5-0.1,0.7-0.2c0.2-0.1,0.4-0.2,0.5-0.4c0.1-0.2,0.2-0.4,0.3-0.6c0.1-0.2,0.1-0.5,0.1-0.7
		c0-0.3,0-0.7-0.1-1c-0.1-0.3-0.3-0.7-0.5-1.1H31c0.1,0.1,0.1,0.2,0.2,0.4c0.1,0.2,0.1,0.3,0.2,0.5c0,0.2,0.1,0.4,0.1,0.6
		c0,0.2,0,0.4,0,0.6c0,1.1-0.3,1.9-0.9,2.5c-0.6,0.6-1.4,0.9-2.5,0.9c-0.5,0-1-0.1-1.4-0.2s-0.8-0.4-1.1-0.6c-0.3-0.3-0.5-0.6-0.7-1
		c-0.2-0.4-0.2-0.8-0.2-1.3c0-0.5,0.1-1,0.3-1.4c0.2-0.4,0.5-0.7,0.8-0.9c0.3-0.2,0.7-0.4,1.1-0.5c0.4-0.1,0.9-0.1,1.3-0.1
		c0.1,0,0.1,0,0.2,0c0.1,0,0.1,0,0.2,0V230.9z M27.5,228.1c-0.5,0-0.9,0.2-1.2,0.4c-0.3,0.2-0.4,0.6-0.4,1c0,0.4,0.1,0.7,0.4,1
		c0.3,0.2,0.7,0.4,1.2,0.4V228.1z"/>
	<path d="M31.3,217.3H27v0l4.3,2.5v1.8h-6.4v-1.6h4.3v0l-4.3-2.5v-1.8h6.4V217.3z"/>
	<path d="M26.2,212.4h5.2v1.7h-6.4v-4.2h1.3V212.4z"/>
	<path d="M33.9,207.3v1.7h-7.2c-0.3,0-0.6,0-0.9,0c-0.3,0-0.6,0-0.9,0v-1.6l1,0c-0.4-0.2-0.6-0.5-0.8-0.9c-0.2-0.3-0.3-0.7-0.3-1.2
		c0-0.4,0.1-0.8,0.2-1.1c0.1-0.3,0.4-0.6,0.6-0.8c0.3-0.2,0.6-0.4,1-0.5c0.4-0.1,0.8-0.2,1.3-0.2c1.1,0,1.9,0.2,2.5,0.7
		s0.9,1.1,0.9,2c0,0.9-0.3,1.5-1,1.9H33.9z M28.1,207.3c0.6,0,1.1-0.1,1.4-0.4c0.4-0.3,0.5-0.6,0.5-1c0-0.4-0.2-0.8-0.6-1
		c-0.4-0.3-0.9-0.4-1.5-0.4c-0.6,0-1.1,0.1-1.4,0.4s-0.5,0.6-0.5,1c0,0.5,0.2,0.8,0.5,1.1C27,207.1,27.5,207.3,28.1,207.3z"/>
	<path d="M28.1,195.1c0.5,0,1,0.1,1.4,0.2c0.4,0.2,0.8,0.4,1.1,0.7s0.5,0.6,0.7,1.1c0.2,0.4,0.2,0.9,0.2,1.4c0,0.5-0.1,0.9-0.2,1.4
		c-0.2,0.4-0.4,0.8-0.7,1.1c-0.3,0.3-0.7,0.5-1.1,0.7s-0.9,0.2-1.4,0.2c-0.5,0-1-0.1-1.4-0.2s-0.8-0.4-1.1-0.7
		c-0.3-0.3-0.5-0.6-0.7-1.1c-0.2-0.4-0.2-0.9-0.2-1.4s0.1-1,0.2-1.4c0.2-0.4,0.4-0.8,0.7-1c0.3-0.3,0.7-0.5,1.1-0.7
		S27.6,195.1,28.1,195.1z M28.1,200c0.2,0,0.5,0,0.7-0.1c0.2-0.1,0.5-0.1,0.7-0.3c0.2-0.1,0.4-0.3,0.5-0.5c0.1-0.2,0.2-0.4,0.2-0.7
		c0-0.5-0.2-0.9-0.6-1.2c-0.4-0.3-0.9-0.4-1.6-0.4c-0.7,0-1.2,0.1-1.5,0.4c-0.4,0.3-0.6,0.7-0.6,1.2c0,0.3,0.1,0.6,0.2,0.8
		c0.1,0.2,0.3,0.4,0.5,0.5c0.2,0.1,0.4,0.2,0.7,0.3C27.6,200,27.8,200,28.1,200z"/>
	<path d="M24.9,188l3.1,2.4l3.4-2.7v2.1l-3.1,2.2h3.1v1.7h-6.4V192h2.9l-2.9-2.1V188z"/>
	<path d="M31.3,182.4H27v0l4.3,2.5v1.8h-6.4v-1.6h4.3v0l-4.3-2.5v-1.8h6.4V182.4z"/>
</g>
<path class="st5" d="M158.9,256.2c-0.2,0-0.3,0.1-0.3,0.3v1.3c0,0.2,0.1,0.3,0.3,0.3h4.9c0.2,0,0.3-0.1,0.3-0.3v-1.3
	c0-0.2-0.1-0.3-0.3-0.3H158.9z M104.2,255.5h26c0,0.8,0.7,1.4,1.5,1.4H142c0.8,0,1.5-0.6,1.5-1.4h26v0.9c0,1.4-1.1,2.5-2.5,2.5
	h-60.3c-1.4,0-2.5-1.1-2.5-2.5V255.5z M115,221.4c-0.9,0-1.7,0.7-1.7,1.7v27.8c0,0.9,0.8,1.7,1.7,1.7h43.8c0.9,0,1.7-0.7,1.7-1.7
	V223c0-0.9-0.8-1.7-1.7-1.7H115z M136.8,218.4c-0.6,0-1.2,0.5-1.2,1.1c0,0.6,0.5,1.1,1.2,1.1c0.6,0,1.2-0.5,1.2-1.1
	C138,219,137.5,218.4,136.8,218.4 M113.1,218h47.4c1,0,1.8,0.8,1.8,1.7v33c0,1-0.8,1.7-1.8,1.7h-47.4c-1,0-1.8-0.8-1.8-1.7v-33
	C111.4,218.7,112.2,218,113.1,218"/>
<polygon class="st5" points="130.1,234.9 130.6,234.9 131.8,235.4 131.8,247 131.8,247.1 131.7,247.2 131.6,247.3 131.5,247.4 
	131.4,247.4 126.2,247.4 126,247.4 125.9,247.3 125.9,247.2 125.8,247.1 125.8,247 125.8,239.4 "/>
<polygon class="st5" points="135.5,238.4 140.7,238.4 140.8,238.4 140.9,238.5 141,238.6 141.1,238.7 141.1,238.8 141.1,247 
	141.1,247.1 141,247.2 140.9,247.3 140.8,247.4 140.7,247.4 135.5,247.4 135.4,247.4 135.3,247.3 135.2,247.2 135.1,247.1 
	135.1,247 135.1,238.8 135.1,238.7 135.2,238.6 135.3,238.5 135.4,238.4 "/>
<polygon class="st5" points="147.3,229.3 148.3,230.1 148.5,230.2 148.7,230.3 149,230.4 149.2,230.4 149.4,230.4 149.6,230.3 
	149.8,230.2 149.9,230.2 149.9,230.2 149.9,247 149.9,247.1 149.8,247.2 149.7,247.3 149.6,247.4 149.5,247.4 144.3,247.4 
	144.2,247.4 144.1,247.3 144,247.2 143.9,247.1 143.9,247 143.9,233.1 "/>
<polygon class="st5" points="149,224.3 149.1,224.3 149.2,224.3 149.3,224.4 149.3,224.5 149.7,229 149.7,229.1 149.7,229.2 
	149.7,229.3 149.6,229.3 149.5,229.3 149.4,229.3 149.3,229.3 149.3,229.3 147.4,227.7 139.5,236.4 139.4,236.5 139.2,236.5 
	139.1,236.6 138.9,236.6 138.8,236.6 138.7,236.6 130,233.4 125.1,238.5 125,238.6 124.9,238.7 124.7,238.7 124.6,238.8 
	124.4,238.7 124.3,238.7 124.1,238.6 124,238.5 123.9,238.4 123.8,238.3 123.8,238.1 123.8,237.9 123.8,237.8 123.9,237.6 
	124,237.5 129.3,232 129.4,231.9 129.6,231.8 129.7,231.7 129.9,231.7 130.1,231.8 138.7,234.9 146.2,226.7 144.4,225.2 
	144.3,225.1 144.3,225.1 144.3,225 144.3,224.9 144.3,224.9 144.3,224.8 144.4,224.7 144.5,224.7 "/>
<path class="st5" d="M124.5,172.4c0-6.9,5.6-12.5,12.5-12.5c6.9,0,12.5,5.6,12.5,12.5c0,6.9-5.6,12.5-12.5,12.5
	C130,184.8,124.5,179.3,124.5,172.4"/>
<text transform="matrix(1 0 0 1 133.4639 176.2139)" class="st6 st7 st8">2</text>
<g>
	<path d="M98.4,195.7h1.7v6.2h0l3.4-6.2h2v8.7h-1.7v-6.2h0l-3.4,6.2h-2V195.7z"/>
	<path d="M111.7,204.4v-2.7h-2.6v2.7h-1.7V198h1.7v2.4h2.6V198h1.7v6.4H111.7z"/>
	<path d="M117.8,199.3v5.2h-1.7v-5.2h-1.9V198h5.4v1.3H117.8z"/>
	<path d="M121.8,201.7c0,0.3,0.1,0.5,0.2,0.7c0.1,0.2,0.2,0.4,0.4,0.5s0.4,0.2,0.6,0.3c0.2,0.1,0.5,0.1,0.7,0.1c0.3,0,0.7,0,1-0.1
		s0.7-0.3,1.1-0.5v1.4c-0.1,0.1-0.2,0.1-0.4,0.2s-0.3,0.1-0.5,0.2c-0.2,0-0.4,0.1-0.6,0.1s-0.4,0-0.6,0c-1.1,0-1.9-0.3-2.5-0.9
		s-0.9-1.4-0.9-2.5c0-0.5,0.1-1,0.2-1.4s0.4-0.8,0.6-1.1c0.3-0.3,0.6-0.5,1-0.7c0.4-0.2,0.8-0.2,1.3-0.2c0.5,0,1,0.1,1.4,0.3
		c0.4,0.2,0.7,0.5,0.9,0.8c0.2,0.3,0.4,0.7,0.5,1.1c0.1,0.4,0.1,0.9,0.1,1.3c0,0.1,0,0.1,0,0.2s0,0.1,0,0.2H121.8z M124.7,200.6
		c0-0.5-0.2-0.9-0.4-1.2c-0.2-0.3-0.6-0.4-1-0.4c-0.4,0-0.7,0.1-1,0.4c-0.2,0.3-0.4,0.7-0.4,1.2H124.7z"/>
	<path d="M129.1,199.3v5.2h-1.7V198h4.2v1.3H129.1z"/>
	<path d="M134.2,207h-1.7v-7.2c0-0.3,0-0.6,0-0.9c0-0.3,0-0.6,0-0.9h1.6l0,1c0.2-0.4,0.5-0.6,0.9-0.8c0.3-0.2,0.7-0.3,1.2-0.3
		c0.4,0,0.8,0.1,1.1,0.2c0.3,0.2,0.6,0.4,0.8,0.6c0.2,0.3,0.4,0.6,0.5,1c0.1,0.4,0.2,0.8,0.2,1.3c0,1.1-0.2,1.9-0.7,2.5
		c-0.5,0.6-1.1,0.9-2,0.9c-0.9,0-1.5-0.3-1.9-1V207z M134.2,201.2c0,0.6,0.1,1.1,0.4,1.4s0.6,0.5,1,0.5c0.4,0,0.8-0.2,1-0.6
		c0.3-0.4,0.4-0.9,0.4-1.5c0-0.6-0.1-1.1-0.4-1.4s-0.6-0.5-1-0.5c-0.5,0-0.8,0.2-1.1,0.5C134.4,200.1,134.2,200.6,134.2,201.2z"/>
	<path d="M144,204.4l0-0.9c-0.2,0.4-0.5,0.6-0.8,0.8s-0.8,0.2-1.2,0.2c-0.7,0-1.2-0.2-1.6-0.5s-0.6-0.8-0.6-1.5
		c0-1.4,1.1-2.1,3.2-2.1c0.1,0,0.3,0,0.4,0c0.1,0,0.3,0,0.5,0v0c0-0.9-0.5-1.4-1.4-1.4c-0.3,0-0.7,0.1-1,0.2s-0.7,0.3-1,0.5l0-1.4
		c0.3-0.2,0.7-0.3,1.1-0.3c0.4-0.1,0.8-0.1,1.1-0.1c0.2,0,0.5,0,0.7,0.1s0.5,0.1,0.7,0.2c0.2,0.1,0.4,0.2,0.6,0.4
		c0.2,0.2,0.3,0.4,0.4,0.6c0,0.1,0.1,0.2,0.1,0.3s0.1,0.2,0.1,0.4c0,0.2,0,0.3,0,0.5c0,0.2,0,0.5,0,0.7v0.9c0,0.3,0,0.5,0,0.7
		c0,0.2,0,0.4,0,0.6c0,0.2,0,0.4,0,0.5c0,0.2,0,0.4,0,0.5H144z M143.9,201.5c-0.1,0-0.2,0-0.3,0c-0.1,0-0.1,0-0.2,0
		c-1.4,0-2.1,0.4-2.1,1.1c0,0.2,0.1,0.4,0.3,0.6c0.2,0.2,0.4,0.2,0.7,0.2s0.6-0.1,0.8-0.2c0.2-0.2,0.4-0.4,0.6-0.7
		c0.1-0.1,0.1-0.3,0.1-0.4C143.9,201.9,143.9,201.7,143.9,201.5z"/>
	<path d="M149.8,199.3v5.2h-1.7v-5.2h-1.9V198h5.4v1.3H149.8z"/>
	<path d="M158.9,201.2c0,0.5-0.1,1-0.2,1.4c-0.2,0.4-0.4,0.8-0.7,1.1s-0.6,0.5-1.1,0.7c-0.4,0.2-0.9,0.2-1.4,0.2
		c-0.5,0-0.9-0.1-1.4-0.3c-0.4-0.2-0.8-0.4-1.1-0.7c-0.3-0.3-0.5-0.7-0.7-1.1s-0.2-0.9-0.2-1.4c0-0.5,0.1-1,0.2-1.4s0.4-0.8,0.7-1.1
		c0.3-0.3,0.6-0.5,1.1-0.7c0.4-0.2,0.9-0.2,1.4-0.2s1,0.1,1.4,0.2c0.4,0.2,0.8,0.4,1,0.7c0.3,0.3,0.5,0.7,0.7,1.1
		C158.9,200.2,158.9,200.7,158.9,201.2z M154,201.2c0,0.3,0,0.5,0.1,0.7c0.1,0.2,0.1,0.5,0.3,0.7c0.1,0.2,0.3,0.4,0.5,0.5
		c0.2,0.1,0.4,0.2,0.7,0.2c0.5,0,0.9-0.2,1.2-0.6c0.3-0.4,0.4-0.9,0.4-1.6c0-0.7-0.1-1.2-0.4-1.5c-0.3-0.4-0.7-0.6-1.2-0.6
		c-0.3,0-0.6,0.1-0.8,0.2s-0.4,0.3-0.5,0.5c-0.1,0.2-0.2,0.4-0.3,0.7C154,200.7,154,200.9,154,201.2z"/>
	<path d="M162,207h-1.7v-7.2c0-0.3,0-0.6,0-0.9c0-0.3,0-0.6,0-0.9h1.6l0,1c0.2-0.4,0.5-0.6,0.9-0.8c0.3-0.2,0.7-0.3,1.2-0.3
		c0.4,0,0.8,0.1,1.1,0.2c0.3,0.2,0.6,0.4,0.8,0.6c0.2,0.3,0.4,0.6,0.5,1c0.1,0.4,0.2,0.8,0.2,1.3c0,1.1-0.2,1.9-0.7,2.5
		c-0.5,0.6-1.1,0.9-2,0.9c-0.9,0-1.5-0.3-1.9-1V207z M162,201.2c0,0.6,0.1,1.1,0.4,1.4s0.6,0.5,1,0.5c0.4,0,0.8-0.2,1-0.6
		c0.3-0.4,0.4-0.9,0.4-1.5c0-0.6-0.1-1.1-0.4-1.4s-0.6-0.5-1-0.5c-0.5,0-0.8,0.2-1.1,0.5C162.1,200.1,162,200.6,162,201.2z"/>
	<path d="M173.1,202.3c0,0.7-0.2,1.2-0.7,1.6c-0.4,0.4-1.1,0.5-1.8,0.5h-2.7V198h1.7v2.2h1.1c0.3,0,0.6,0,0.9,0.1
		c0.3,0.1,0.6,0.2,0.8,0.4s0.4,0.4,0.5,0.7S173.1,201.9,173.1,202.3z M171.4,202.3c0-0.3-0.1-0.5-0.3-0.7s-0.4-0.2-0.8-0.2h-0.8v1.8
		h0.9c0.3,0,0.5-0.1,0.7-0.3C171.3,202.8,171.4,202.5,171.4,202.3z M173.9,204.4V198h1.7v6.4H173.9z"/>
</g>
<g>
	<path d="M340.2,198.6h1.6l-1.3,2.6l1.3,2.6h-1.6l-1.5-2.6L340.2,198.6z M344.6,203.7H343l-1.5-2.6l1.5-2.6h1.5l-1.3,2.6
		L344.6,203.7z"/>
	<path d="M346.1,195.7h2.8l2.1,6.6l2.1-6.6h2.8v8.7h-1.7v-7.3l-2.5,7.3h-1.6l-2.4-7.3v7.3h-1.6V195.7z"/>
	<path d="M364,201.2c0,0.5-0.1,1-0.2,1.4c-0.2,0.4-0.4,0.8-0.7,1.1s-0.6,0.5-1.1,0.7c-0.4,0.2-0.9,0.2-1.4,0.2
		c-0.5,0-0.9-0.1-1.4-0.3c-0.4-0.2-0.8-0.4-1.1-0.7c-0.3-0.3-0.5-0.7-0.7-1.1s-0.2-0.9-0.2-1.4c0-0.5,0.1-1,0.2-1.4s0.4-0.8,0.7-1.1
		c0.3-0.3,0.6-0.5,1.1-0.7c0.4-0.2,0.9-0.2,1.4-0.2s1,0.1,1.4,0.2c0.4,0.2,0.8,0.4,1,0.7c0.3,0.3,0.5,0.7,0.7,1.1
		C363.9,200.2,364,200.7,364,201.2z M359.1,201.2c0,0.3,0,0.5,0.1,0.7c0.1,0.2,0.1,0.5,0.3,0.7c0.1,0.2,0.3,0.4,0.5,0.5
		c0.2,0.1,0.4,0.2,0.7,0.2c0.5,0,0.9-0.2,1.2-0.6c0.3-0.4,0.4-0.9,0.4-1.6c0-0.7-0.1-1.2-0.4-1.5c-0.3-0.4-0.7-0.6-1.2-0.6
		c-0.3,0-0.6,0.1-0.8,0.2s-0.4,0.3-0.5,0.5c-0.1,0.2-0.2,0.4-0.3,0.7C359.1,200.7,359.1,200.9,359.1,201.2z"/>
	<path d="M369.6,204.4v-2.7H367v2.7h-1.7V198h1.7v2.4h2.6V198h1.7v6.4H369.6z"/>
	<path d="M379.2,201.2c0,0.5-0.1,1-0.2,1.4c-0.2,0.4-0.4,0.8-0.7,1.1s-0.6,0.5-1.1,0.7c-0.4,0.2-0.9,0.2-1.4,0.2
		c-0.5,0-0.9-0.1-1.4-0.3c-0.4-0.2-0.8-0.4-1.1-0.7c-0.3-0.3-0.5-0.7-0.7-1.1s-0.2-0.9-0.2-1.4c0-0.5,0.1-1,0.2-1.4s0.4-0.8,0.7-1.1
		c0.3-0.3,0.6-0.5,1.1-0.7c0.4-0.2,0.9-0.2,1.4-0.2s1,0.1,1.4,0.2c0.4,0.2,0.8,0.4,1,0.7c0.3,0.3,0.5,0.7,0.7,1.1
		C379.2,200.2,379.2,200.7,379.2,201.2z M374.3,201.2c0,0.3,0,0.5,0.1,0.7c0.1,0.2,0.1,0.5,0.3,0.7c0.1,0.2,0.3,0.4,0.5,0.5
		c0.2,0.1,0.4,0.2,0.7,0.2c0.5,0,0.9-0.2,1.2-0.6c0.3-0.4,0.4-0.9,0.4-1.6c0-0.7-0.1-1.2-0.4-1.5c-0.3-0.4-0.7-0.6-1.2-0.6
		c-0.3,0-0.6,0.1-0.8,0.2s-0.4,0.3-0.5,0.5c-0.1,0.2-0.2,0.4-0.3,0.7C374.3,200.7,374.3,200.9,374.3,201.2z"/>
	<path d="M384.6,204.4v-5.2h-1.7v1.8c0,0.4,0,0.8-0.1,1.2c-0.1,0.4-0.2,0.8-0.3,1.1c-0.2,0.3-0.4,0.6-0.6,0.8s-0.6,0.3-1.1,0.3
		c-0.1,0-0.3,0-0.5,0c-0.2,0-0.3,0-0.5-0.1l0.1-1.2c0,0,0.1,0,0.2,0c0.1,0,0.2,0,0.2,0c0.2,0,0.4-0.1,0.5-0.2
		c0.1-0.1,0.2-0.3,0.3-0.5s0.1-0.4,0.1-0.7c0-0.2,0-0.5,0-0.7V198h5v6.4H384.6z"/>
	<path d="M391.9,204.4l0-0.9c-0.2,0.4-0.5,0.6-0.8,0.8s-0.8,0.2-1.2,0.2c-0.7,0-1.2-0.2-1.6-0.5s-0.6-0.8-0.6-1.5
		c0-1.4,1.1-2.1,3.2-2.1c0.1,0,0.3,0,0.4,0c0.1,0,0.3,0,0.5,0v0c0-0.9-0.5-1.4-1.4-1.4c-0.3,0-0.7,0.1-1,0.2s-0.7,0.3-1,0.5l0-1.4
		c0.3-0.2,0.7-0.3,1.1-0.3c0.4-0.1,0.8-0.1,1.1-0.1c0.2,0,0.5,0,0.7,0.1s0.5,0.1,0.7,0.2c0.2,0.1,0.4,0.2,0.6,0.4
		c0.2,0.2,0.3,0.4,0.4,0.6c0,0.1,0.1,0.2,0.1,0.3s0.1,0.2,0.1,0.4c0,0.2,0,0.3,0,0.5c0,0.2,0,0.5,0,0.7v0.9c0,0.3,0,0.5,0,0.7
		c0,0.2,0,0.4,0,0.6c0,0.2,0,0.4,0,0.5c0,0.2,0,0.4,0,0.5H391.9z M391.8,201.5c-0.1,0-0.2,0-0.3,0c-0.1,0-0.1,0-0.2,0
		c-1.4,0-2.1,0.4-2.1,1.1c0,0.2,0.1,0.4,0.3,0.6c0.2,0.2,0.4,0.2,0.7,0.2s0.6-0.1,0.8-0.2c0.2-0.2,0.4-0.4,0.6-0.7
		c0.1-0.1,0.1-0.3,0.1-0.4C391.8,201.9,391.8,201.7,391.8,201.5z"/>
	<path d="M399.4,204.4v-4.3h0l-2.5,4.3H395V198h1.6v4.3h0l2.5-4.3h1.8v6.4H399.4z M399.2,196.7c-0.3,0.2-0.7,0.3-1.2,0.3
		c-0.2,0-0.5,0-0.7-0.1c-0.2-0.1-0.4-0.1-0.5-0.2c-0.2-0.1-0.3-0.2-0.5-0.4s-0.3-0.3-0.4-0.5l0.6-0.6c0.2,0.2,0.4,0.4,0.6,0.5
		s0.5,0.2,0.8,0.2c0.3,0,0.6-0.1,0.8-0.2c0.2-0.1,0.4-0.3,0.6-0.5l0.6,0.6C399.8,196.2,399.5,196.5,399.2,196.7z"/>
	<path d="M407,204.4v-2.7h-2.6v2.7h-1.7V198h1.7v2.4h2.6V198h1.7v6.4H407z"/>
	<path d="M411.6,201.7c0,0.3,0.1,0.5,0.2,0.7c0.1,0.2,0.2,0.4,0.4,0.5c0.2,0.1,0.4,0.2,0.6,0.3c0.2,0.1,0.5,0.1,0.7,0.1
		c0.3,0,0.7,0,1-0.1c0.3-0.1,0.7-0.3,1.1-0.5v1.4c-0.1,0.1-0.2,0.1-0.4,0.2s-0.3,0.1-0.5,0.2c-0.2,0-0.4,0.1-0.6,0.1s-0.4,0-0.6,0
		c-1.1,0-1.9-0.3-2.5-0.9c-0.6-0.6-0.9-1.4-0.9-2.5c0-0.5,0.1-1,0.2-1.4s0.4-0.8,0.6-1.1c0.3-0.3,0.6-0.5,1-0.7
		c0.4-0.2,0.8-0.2,1.3-0.2c0.5,0,1,0.1,1.4,0.3c0.4,0.2,0.7,0.5,0.9,0.8c0.2,0.3,0.4,0.7,0.5,1.1c0.1,0.4,0.1,0.9,0.1,1.3
		c0,0.1,0,0.1,0,0.2s0,0.1,0,0.2H411.6z M414.4,200.6c0-0.5-0.2-0.9-0.4-1.2c-0.2-0.3-0.6-0.4-1-0.4c-0.4,0-0.7,0.1-1,0.4
		c-0.2,0.3-0.4,0.7-0.4,1.2H414.4z"/>
	<path d="M419,207h-1.7v-7.2c0-0.3,0-0.6,0-0.9c0-0.3,0-0.6,0-0.9h1.6l0,1c0.2-0.4,0.5-0.6,0.9-0.8c0.3-0.2,0.7-0.3,1.2-0.3
		c0.4,0,0.8,0.1,1.1,0.2c0.3,0.2,0.6,0.4,0.8,0.6c0.2,0.3,0.4,0.6,0.5,1c0.1,0.4,0.2,0.8,0.2,1.3c0,1.1-0.2,1.9-0.7,2.5
		c-0.5,0.6-1.1,0.9-2,0.9c-0.9,0-1.5-0.3-1.9-1V207z M419,201.2c0,0.6,0.1,1.1,0.4,1.4s0.6,0.5,1,0.5c0.4,0,0.8-0.2,1-0.6
		c0.3-0.4,0.4-0.9,0.4-1.5c0-0.6-0.1-1.1-0.4-1.4s-0.6-0.5-1-0.5c-0.5,0-0.8,0.2-1.1,0.5C419.2,200.1,419,200.6,419,201.2z"/>
	<path d="M430.2,202.3c0,0.7-0.2,1.2-0.7,1.6c-0.4,0.4-1.1,0.5-1.8,0.5h-2.7V198h1.7v2.2h1.1c0.3,0,0.6,0,0.9,0.1
		c0.3,0.1,0.6,0.2,0.8,0.4s0.4,0.4,0.5,0.7S430.2,201.9,430.2,202.3z M428.5,202.3c0-0.3-0.1-0.5-0.3-0.7s-0.4-0.2-0.8-0.2h-0.8v1.8
		h0.9c0.3,0,0.5-0.1,0.7-0.3C428.4,202.8,428.5,202.5,428.5,202.3z M431,204.4V198h1.7v6.4H431z"/>
	<path d="M434,198.6h1.5l1.5,2.6l-1.5,2.6H434l1.3-2.6L434,198.6z M438.4,203.7h-1.6l1.4-2.6l-1.4-2.6h1.6l1.5,2.6L438.4,203.7z"/>
</g>
<g>
	<path d="M63,277c0,0.5-0.1,0.9-0.2,1.4c-0.2,0.4-0.4,0.8-0.7,1.1s-0.7,0.6-1.2,0.7s-1,0.3-1.6,0.3h-0.2v1h-0.9v-1h-0.2
		c-0.6,0-1.1-0.1-1.6-0.3s-0.8-0.4-1.2-0.7s-0.5-0.7-0.7-1.1c-0.2-0.4-0.2-0.9-0.2-1.4c0-0.5,0.1-1,0.2-1.4c0.2-0.4,0.4-0.8,0.7-1.1
		s0.7-0.5,1.2-0.7c0.5-0.2,1-0.3,1.6-0.3h0.2v-0.7h0.9v0.7h0.2c0.6,0,1.1,0.1,1.6,0.3c0.5,0.2,0.8,0.4,1.2,0.7s0.5,0.7,0.7,1.1
		C63,276.1,63,276.5,63,277z M58.3,274.3h-0.2c-0.4,0-0.8,0.1-1.1,0.2c-0.3,0.1-0.6,0.3-0.9,0.6s-0.4,0.5-0.6,0.9
		c-0.1,0.3-0.2,0.7-0.2,1.1c0,0.4,0.1,0.8,0.2,1.1s0.3,0.6,0.6,0.9c0.2,0.2,0.5,0.4,0.9,0.6c0.3,0.1,0.7,0.2,1.1,0.2h0.2V274.3z
		 M62.1,277c0-0.4-0.1-0.8-0.2-1.1c-0.1-0.3-0.3-0.6-0.6-0.9c-0.2-0.2-0.5-0.4-0.9-0.6c-0.3-0.1-0.7-0.2-1.1-0.2h-0.2v5.5h0.2
		c0.4,0,0.8-0.1,1.1-0.2c0.3-0.1,0.6-0.3,0.9-0.6s0.4-0.5,0.6-0.9S62.1,277.5,62.1,277z"/>
	<path d="M69.6,275.2v6.4h-0.8v-5.3h0l-3.3,5.3h-0.9v-6.4h0.8v5.3h0l3.3-5.3H69.6z"/>
	<path d="M75.8,275.2h0.8v6.4h-0.8v-3h-3.4v3h-0.8v-6.4h0.8v2.7h3.4V275.2z"/>
	<path d="M82.2,281.5v-1.1c-0.1,0.2-0.2,0.4-0.4,0.5c-0.2,0.2-0.3,0.3-0.5,0.4s-0.4,0.2-0.6,0.2s-0.4,0.1-0.6,0.1
		c-0.6,0-1.1-0.2-1.4-0.5c-0.4-0.3-0.5-0.8-0.5-1.3c0-0.7,0.3-1.2,0.9-1.6s1.4-0.5,2.5-0.5c0.1,0,0.2,0,0.4,0s0.2,0,0.4,0v-0.1
		c0-0.7-0.1-1.1-0.3-1.4s-0.6-0.4-1.2-0.4c-0.3,0-0.6,0-0.9,0.1s-0.6,0.2-0.9,0.4v-0.8c0.3-0.1,0.6-0.3,0.9-0.3
		c0.3-0.1,0.7-0.1,1-0.1c0.7,0,1.2,0.2,1.6,0.5s0.6,0.9,0.6,1.5v3.2c0,0.2,0,0.4,0,0.6s0,0.4,0,0.6H82.2z M82.1,278.3
		c-0.1,0-0.1,0-0.2,0c-0.1,0-0.2,0-0.2,0c-0.2,0-0.5,0-0.9,0c-0.3,0-0.6,0.1-0.9,0.2c-0.3,0.1-0.5,0.2-0.7,0.4
		c-0.2,0.2-0.3,0.5-0.3,0.8c0,0.4,0.1,0.6,0.4,0.9c0.2,0.2,0.6,0.3,1,0.3c0.3,0,0.5,0,0.8-0.1c0.2-0.1,0.4-0.2,0.6-0.4
		c0.1-0.1,0.2-0.3,0.3-0.4c0.1-0.2,0.1-0.3,0.1-0.5c0-0.2,0-0.4,0-0.6C82.1,278.7,82.1,278.5,82.1,278.3z"/>
	<path d="M89,275.2h0.8v6.4H89v-3h-3.4v3h-0.8v-6.4h0.8v2.7H89V275.2z"/>
	<path d="M95.9,276.2c-0.5-0.2-0.9-0.3-1.4-0.3c-0.4,0-0.7,0.1-1,0.2c-0.3,0.1-0.5,0.3-0.8,0.5c-0.2,0.2-0.4,0.5-0.5,0.8
		c-0.1,0.3-0.2,0.6-0.2,1c0,0.4,0.1,0.7,0.2,1.1s0.3,0.6,0.5,0.8c0.2,0.2,0.5,0.4,0.7,0.5c0.3,0.1,0.6,0.2,1,0.2
		c0.2,0,0.5,0,0.7-0.1c0.2,0,0.5-0.1,0.7-0.2l0.1,0.8c-0.3,0.1-0.5,0.2-0.8,0.2c-0.2,0-0.5,0.1-0.8,0.1c-0.5,0-0.9-0.1-1.3-0.2
		c-0.4-0.2-0.7-0.4-1-0.7c-0.3-0.3-0.5-0.6-0.6-1c-0.1-0.4-0.2-0.9-0.2-1.3c0-0.5,0.1-0.9,0.2-1.3s0.4-0.7,0.6-1s0.6-0.5,1-0.7
		c0.4-0.2,0.8-0.2,1.3-0.2c0.2,0,0.5,0,0.7,0.1c0.3,0,0.5,0.1,0.8,0.2L95.9,276.2z"/>
	<path d="M102.8,278.3c0,0.5-0.1,1-0.2,1.4s-0.3,0.8-0.6,1.1c-0.3,0.3-0.6,0.5-0.9,0.7s-0.8,0.2-1.2,0.2c-0.4,0-0.8-0.1-1.2-0.2
		c-0.4-0.2-0.7-0.4-0.9-0.7c-0.3-0.3-0.5-0.6-0.6-1c-0.1-0.4-0.2-0.9-0.2-1.3c0-0.5,0.1-1,0.2-1.4s0.3-0.8,0.6-1.1
		c0.3-0.3,0.6-0.5,0.9-0.7c0.4-0.2,0.8-0.2,1.3-0.2c0.5,0,0.9,0.1,1.3,0.3c0.4,0.2,0.7,0.4,0.9,0.7c0.2,0.3,0.4,0.6,0.5,1
		C102.7,277.4,102.8,277.9,102.8,278.3z M97.6,278.4c0,0.4,0.1,0.7,0.2,1.1c0.1,0.3,0.3,0.6,0.4,0.8s0.4,0.4,0.7,0.6
		s0.5,0.2,0.9,0.2c0.3,0,0.6-0.1,0.9-0.2s0.5-0.3,0.7-0.6s0.3-0.5,0.4-0.8c0.1-0.3,0.2-0.7,0.2-1.1c0-0.4,0-0.8-0.1-1.1
		c-0.1-0.3-0.2-0.6-0.4-0.8s-0.4-0.4-0.7-0.5c-0.3-0.1-0.6-0.2-0.9-0.2c-0.7,0-1.2,0.2-1.6,0.7C97.8,276.9,97.6,277.6,97.6,278.4z"
		/>
	<path d="M108.2,278.3c0.1,0.1,0.3,0.2,0.4,0.3c0.1,0.1,0.2,0.3,0.3,0.4c0.1,0.2,0.1,0.4,0.1,0.6c0,0.4-0.1,0.7-0.2,0.9
		c-0.1,0.2-0.3,0.5-0.5,0.6c-0.2,0.2-0.4,0.3-0.7,0.3c-0.3,0.1-0.6,0.1-0.9,0.1h-2.5v-6.4h2.4c0.3,0,0.6,0,0.8,0.1
		c0.3,0.1,0.5,0.1,0.7,0.3c0.2,0.1,0.3,0.3,0.5,0.5c0.1,0.2,0.2,0.4,0.2,0.7c0,0.4-0.1,0.7-0.2,0.9c-0.2,0.3-0.4,0.4-0.7,0.5v0
		C107.9,278.2,108.1,278.2,108.2,278.3z M107.9,276.8c0-0.3-0.1-0.6-0.4-0.7s-0.6-0.2-1-0.2H105v2h1.6c0.4,0,0.8-0.1,1-0.2
		C107.8,277.4,107.9,277.2,107.9,276.8z M105,280.9h1.6c0.5,0,0.9-0.1,1.1-0.3c0.3-0.2,0.4-0.5,0.4-0.9c0-0.3-0.1-0.6-0.4-0.8
		c-0.2-0.2-0.6-0.3-1.2-0.3H105V280.9z"/>
	<path d="M115,279.5c0,0.4-0.1,0.7-0.2,0.9c-0.1,0.3-0.3,0.5-0.5,0.6c-0.2,0.2-0.4,0.3-0.7,0.4s-0.6,0.1-0.9,0.1h-2.2v-6.4h0.8v2.4
		h1.5c0.3,0,0.6,0,0.8,0.1c0.3,0.1,0.5,0.2,0.7,0.3s0.4,0.3,0.5,0.6S115,279.1,115,279.5z M114.2,279.5c0-0.4-0.1-0.7-0.4-0.9
		c-0.3-0.2-0.7-0.3-1.2-0.3h-1.2v2.6h1.3c0.5,0,0.9-0.1,1.1-0.4C114,280.3,114.2,279.9,114.2,279.5z M116.2,281.5v-6.4h0.8v6.4
		H116.2z"/>
	<path d="M119.2,278.5c0,0.3,0,0.6,0.1,0.9c0.1,0.3,0.2,0.6,0.4,0.8s0.4,0.4,0.7,0.5c0.3,0.1,0.6,0.2,1,0.2c0.1,0,0.3,0,0.4,0
		s0.3-0.1,0.5-0.1s0.3-0.1,0.4-0.1c0.1-0.1,0.3-0.1,0.4-0.2l0.1,0.8c-0.3,0.1-0.6,0.2-1,0.3c-0.4,0.1-0.7,0.1-1,0.1
		c-0.4,0-0.8-0.1-1.2-0.2c-0.4-0.2-0.7-0.4-0.9-0.7c-0.3-0.3-0.4-0.6-0.6-1c-0.1-0.4-0.2-0.9-0.2-1.4c0-0.5,0.1-0.9,0.2-1.3
		s0.3-0.7,0.6-1c0.2-0.3,0.5-0.5,0.9-0.7c0.3-0.2,0.7-0.2,1.2-0.2c0.8,0,1.4,0.3,1.8,0.8s0.6,1.3,0.6,2.3v0.4H119.2z M122.9,277.9
		c0-0.3,0-0.6-0.1-0.9s-0.2-0.5-0.4-0.7s-0.3-0.3-0.5-0.4c-0.2-0.1-0.4-0.2-0.7-0.2c-0.6,0-1,0.2-1.4,0.6c-0.4,0.4-0.6,0.9-0.6,1.6
		H122.9z"/>
	<path d="M133.7,275.2v6.4h-0.8v-5.3h0l-3.3,5.3h-0.9v-6.4h0.8v5.3h0l3.3-5.3H133.7z"/>
	<path d="M144.2,275.2v6.4h-0.8v-5.3h0l-3.3,5.3h-0.9v-6.4h0.8v5.3h0l3.3-5.3H144.2z"/>
	<path d="M150.3,275.2h0.8v6.4h-0.8v-3h-3.4v3h-0.8v-6.4h0.8v2.7h3.4V275.2z"/>
	<path d="M157.5,279.5c0,0.4-0.1,0.7-0.2,0.9c-0.1,0.3-0.3,0.5-0.5,0.6c-0.2,0.2-0.4,0.3-0.7,0.4c-0.3,0.1-0.6,0.1-0.9,0.1H153v-6.4
		h0.8v2.4h1.5c0.3,0,0.6,0,0.8,0.1c0.3,0.1,0.5,0.2,0.7,0.3c0.2,0.2,0.4,0.3,0.5,0.6S157.5,279.1,157.5,279.5z M156.7,279.5
		c0-0.4-0.1-0.7-0.4-0.9c-0.3-0.2-0.7-0.3-1.2-0.3h-1.2v2.6h1.3c0.5,0,0.9-0.1,1.1-0.4C156.6,280.3,156.7,279.9,156.7,279.5z
		 M158.7,281.5v-6.4h0.8v6.4H158.7z"/>
	<path d="M161.8,278.5c0,0.3,0,0.6,0.1,0.9c0.1,0.3,0.2,0.6,0.4,0.8s0.4,0.4,0.7,0.5c0.3,0.1,0.6,0.2,1,0.2c0.1,0,0.3,0,0.4,0
		c0.2,0,0.3-0.1,0.5-0.1s0.3-0.1,0.4-0.1s0.3-0.1,0.4-0.2l0.1,0.8c-0.3,0.1-0.6,0.2-1,0.3c-0.4,0.1-0.7,0.1-1,0.1
		c-0.4,0-0.8-0.1-1.2-0.2c-0.4-0.2-0.7-0.4-0.9-0.7c-0.3-0.3-0.4-0.6-0.6-1c-0.1-0.4-0.2-0.9-0.2-1.4c0-0.5,0.1-0.9,0.2-1.3
		s0.3-0.7,0.6-1c0.2-0.3,0.5-0.5,0.9-0.7c0.3-0.2,0.7-0.2,1.2-0.2c0.8,0,1.4,0.3,1.8,0.8s0.6,1.3,0.6,2.3v0.4H161.8z M165.4,277.9
		c0-0.3,0-0.6-0.1-0.9c-0.1-0.3-0.2-0.5-0.4-0.7c-0.2-0.2-0.3-0.3-0.5-0.4c-0.2-0.1-0.4-0.2-0.7-0.2c-0.6,0-1,0.2-1.4,0.6
		c-0.4,0.4-0.6,0.9-0.6,1.6H165.4z"/>
	<path d="M171,284.2v-9h0.8l0,1.2c0.2-0.4,0.5-0.7,0.8-1s0.7-0.3,1.3-0.3c0.5,0,0.9,0.1,1.2,0.3c0.3,0.2,0.6,0.4,0.8,0.7
		c0.2,0.3,0.4,0.6,0.5,1s0.1,0.8,0.1,1.2c0,0.4,0,0.8-0.1,1.2c-0.1,0.4-0.2,0.8-0.4,1.1s-0.5,0.6-0.8,0.7c-0.3,0.2-0.7,0.3-1.2,0.3
		c-0.5,0-0.9-0.1-1.2-0.3c-0.4-0.2-0.6-0.5-0.8-0.9v3.8H171z M173.8,275.8c-0.6,0-1.1,0.2-1.5,0.7c-0.4,0.5-0.5,1.1-0.5,1.9
		c0,0.3,0,0.6,0.1,0.9c0.1,0.3,0.2,0.6,0.4,0.8c0.2,0.2,0.4,0.4,0.6,0.6s0.6,0.2,0.9,0.2c0.6,0,1-0.2,1.3-0.7
		c0.3-0.5,0.5-1.1,0.5-1.9c0-0.8-0.2-1.5-0.5-1.9C174.9,276,174.4,275.8,173.8,275.8z"/>
	<path d="M178.4,278.5c0,0.3,0,0.6,0.1,0.9c0.1,0.3,0.2,0.6,0.4,0.8s0.4,0.4,0.7,0.5c0.3,0.1,0.6,0.2,1,0.2c0.1,0,0.3,0,0.4,0
		c0.2,0,0.3-0.1,0.5-0.1s0.3-0.1,0.4-0.1s0.3-0.1,0.4-0.2l0.1,0.8c-0.3,0.1-0.6,0.2-1,0.3c-0.4,0.1-0.7,0.1-1,0.1
		c-0.4,0-0.8-0.1-1.2-0.2c-0.4-0.2-0.7-0.4-0.9-0.7c-0.3-0.3-0.4-0.6-0.6-1c-0.1-0.4-0.2-0.9-0.2-1.4c0-0.5,0.1-0.9,0.2-1.3
		s0.3-0.7,0.6-1c0.2-0.3,0.5-0.5,0.9-0.7c0.3-0.2,0.7-0.2,1.2-0.2c0.8,0,1.4,0.3,1.8,0.8s0.6,1.3,0.6,2.3v0.4H178.4z M182.1,277.9
		c0-0.3,0-0.6-0.1-0.9c-0.1-0.3-0.2-0.5-0.4-0.7c-0.2-0.2-0.3-0.3-0.5-0.4c-0.2-0.1-0.4-0.2-0.7-0.2c-0.6,0-1,0.2-1.4,0.6
		c-0.4,0.4-0.6,0.9-0.6,1.6H182.1z"/>
	<path d="M184.3,275.2h0.8v5.7h2.9v-5.7h0.8v5.7h2.9v-5.7h0.8v6.4h-8.1V275.2z"/>
	<path d="M194.7,278.5c0,0.3,0,0.6,0.1,0.9c0.1,0.3,0.2,0.6,0.4,0.8s0.4,0.4,0.7,0.5c0.3,0.1,0.6,0.2,1,0.2c0.1,0,0.3,0,0.4,0
		c0.2,0,0.3-0.1,0.5-0.1s0.3-0.1,0.4-0.1s0.3-0.1,0.4-0.2l0.1,0.8c-0.3,0.1-0.6,0.2-1,0.3c-0.4,0.1-0.7,0.1-1,0.1
		c-0.4,0-0.8-0.1-1.2-0.2c-0.4-0.2-0.7-0.4-0.9-0.7c-0.3-0.3-0.4-0.6-0.6-1c-0.1-0.4-0.2-0.9-0.2-1.4c0-0.5,0.1-0.9,0.2-1.3
		s0.3-0.7,0.6-1c0.2-0.3,0.5-0.5,0.9-0.7c0.3-0.2,0.7-0.2,1.2-0.2c0.8,0,1.4,0.3,1.8,0.8s0.6,1.3,0.6,2.3v0.4H194.7z M198.4,277.9
		c0-0.3,0-0.6-0.1-0.9c-0.1-0.3-0.2-0.5-0.4-0.7c-0.2-0.2-0.3-0.3-0.5-0.4c-0.2-0.1-0.4-0.2-0.7-0.2c-0.6,0-1,0.2-1.4,0.6
		c-0.4,0.4-0.6,0.9-0.6,1.6H198.4z"/>
	<path d="M204.8,275.2h0.8v6.4h-0.8v-3h-3.4v3h-0.8v-6.4h0.8v2.7h3.4V275.2z"/>
	<path d="M212.6,275.2v6.4h-0.8v-5.3h0l-3.3,5.3h-0.9v-6.4h0.8v5.3h0l3.3-5.3H212.6z"/>
	<path d="M218.3,281.5v-2.7h-1.2c-0.2,0-0.4,0-0.6,0.1c-0.1,0-0.3,0.1-0.4,0.2s-0.2,0.2-0.3,0.4c-0.1,0.1-0.2,0.3-0.3,0.5l-0.8,1.6
		h-0.9l1-1.9c0.1-0.2,0.2-0.4,0.3-0.6s0.2-0.2,0.3-0.3c0.1-0.1,0.2-0.1,0.3-0.2c0.1,0,0.2-0.1,0.3-0.1c-0.3,0-0.5-0.1-0.7-0.2
		c-0.2-0.1-0.4-0.2-0.5-0.4s-0.2-0.3-0.3-0.5c-0.1-0.2-0.1-0.3-0.1-0.5c0-0.5,0.2-1,0.6-1.3s0.8-0.5,1.4-0.5h2.7v6.4H218.3z
		 M218.3,275.9h-1.8c-0.4,0-0.7,0.1-0.9,0.3s-0.3,0.5-0.3,0.8c0,0.4,0.1,0.7,0.3,0.9c0.2,0.2,0.6,0.3,1.2,0.3h1.5V275.9z"/>
</g>
<g>
	<path d="M439.6,272.8l3.2,7.7l3.3-7.7h1.2v8.7h-0.8v-7.9l-3.3,7.9h-0.7l-3.3-7.9v7.9h-0.8v-8.7H439.6z"/>
	<path d="M453.8,275.2l-2.4,6.8c-0.1,0.2-0.2,0.5-0.3,0.8c-0.1,0.3-0.2,0.5-0.4,0.7s-0.3,0.4-0.5,0.6s-0.5,0.2-0.8,0.2
		c-0.1,0-0.3,0-0.4,0s-0.3,0-0.4-0.1l0.1-0.7c0.1,0,0.2,0.1,0.2,0.1s0.2,0,0.3,0c0.2,0,0.4-0.1,0.6-0.2c0.2-0.1,0.3-0.3,0.4-0.4
		c0.1-0.2,0.2-0.4,0.3-0.6c0.1-0.2,0.1-0.4,0.2-0.6l-2.3-6.6h0.9l1.8,5.4l1.8-5.4H453.8z"/>
	<path d="M459.8,281.5H459v-5.7h-2.5v1.6c0,0.3,0,0.6,0,0.9c0,0.3,0,0.6-0.1,0.9c0,0.3-0.1,0.6-0.2,0.9c-0.1,0.3-0.2,0.5-0.3,0.8
		c-0.1,0.2-0.3,0.4-0.5,0.5s-0.5,0.2-0.8,0.2c-0.2,0-0.4,0-0.6-0.1l0-0.7c0.1,0,0.3,0.1,0.5,0.1c0.2,0,0.4-0.1,0.5-0.2
		c0.1-0.1,0.3-0.3,0.4-0.6c0.1-0.3,0.2-0.7,0.2-1.2c0-0.5,0.1-1.1,0.1-1.9v-1.8h4V281.5z"/>
	<path d="M466.5,279.5c0,0.4-0.1,0.7-0.2,0.9c-0.1,0.3-0.3,0.5-0.5,0.6c-0.2,0.2-0.4,0.3-0.7,0.4s-0.6,0.1-0.9,0.1h-2.4v-6.4h0.8
		v2.4h1.7c0.3,0,0.6,0,0.8,0.1c0.3,0.1,0.5,0.2,0.7,0.3c0.2,0.2,0.4,0.3,0.5,0.6C466.4,278.9,466.5,279.1,466.5,279.5z M465.6,279.5
		c0-0.4-0.1-0.7-0.4-0.9c-0.3-0.2-0.7-0.3-1.2-0.3h-1.5v2.6h1.6c0.5,0,0.9-0.1,1.1-0.4C465.5,280.3,465.6,279.9,465.6,279.5z"/>
	<path d="M470,275.9v5.7h-0.8v-5.7H467v-0.7h5.3v0.7H470z"/>
	<path d="M478.4,275.2v6.4h-0.8v-5.3h0l-3.3,5.3h-0.9v-6.4h0.8v5.3h0l3.3-5.3H478.4z"/>
	<path d="M483.1,275.1c0.5,0,0.9,0.1,1.3,0.3c0.4,0.2,0.7,0.4,0.9,0.7c0.2,0.3,0.4,0.6,0.5,1c0.1,0.4,0.2,0.8,0.2,1.3
		c0,0.5-0.1,1-0.2,1.4c-0.1,0.4-0.3,0.8-0.6,1c-0.3,0.3-0.6,0.5-0.9,0.7c-0.4,0.2-0.8,0.2-1.2,0.2c-0.6,0-1.2-0.2-1.6-0.5
		s-0.8-0.7-1-1.2c-0.1-0.3-0.2-0.6-0.3-0.9c-0.1-0.3-0.1-0.7-0.1-1c0-0.5,0-0.9,0-1.4c0-0.5,0.1-0.9,0.2-1.3
		c0.1-0.4,0.2-0.8,0.3-1.1c0.2-0.3,0.4-0.6,0.6-0.9c0.3-0.3,0.6-0.5,1-0.6c0.3-0.1,0.7-0.2,1.1-0.3c0.4-0.1,0.8-0.1,1.1-0.1
		c0.4,0,0.7-0.1,1.1-0.2l-0.1,0.8c-0.3,0.1-0.6,0.1-0.9,0.2c-0.3,0-0.7,0.1-1,0.1c-0.3,0-0.7,0.1-1,0.2c-0.3,0.1-0.6,0.2-0.8,0.4
		c-0.2,0.2-0.4,0.5-0.5,0.7c-0.1,0.3-0.3,0.5-0.3,0.8c-0.1,0.3-0.1,0.6-0.2,0.9c0,0.3-0.1,0.6-0.1,0.9h0c0.1-0.2,0.2-0.4,0.3-0.6
		s0.3-0.4,0.5-0.6s0.4-0.4,0.7-0.5C482.3,275.2,482.7,275.1,483.1,275.1z M483,281c0.3,0,0.6-0.1,0.8-0.2c0.3-0.1,0.5-0.3,0.7-0.5
		s0.3-0.5,0.4-0.8c0.1-0.3,0.2-0.7,0.2-1.1c0-0.8-0.2-1.4-0.6-1.9c-0.4-0.5-0.9-0.7-1.5-0.7c-0.3,0-0.6,0.1-0.9,0.2
		s-0.5,0.3-0.7,0.5c-0.2,0.2-0.4,0.5-0.5,0.8c-0.1,0.3-0.2,0.7-0.2,1.1c0,0.4,0.1,0.7,0.2,1s0.3,0.6,0.5,0.8
		c0.2,0.2,0.4,0.4,0.7,0.5C482.4,281,482.7,281,483,281z"/>
	<path d="M491,281.5v-1.1c-0.1,0.2-0.2,0.4-0.4,0.5c-0.2,0.2-0.3,0.3-0.5,0.4c-0.2,0.1-0.4,0.2-0.6,0.2c-0.2,0-0.4,0.1-0.6,0.1
		c-0.6,0-1.1-0.2-1.4-0.5c-0.4-0.3-0.5-0.8-0.5-1.3c0-0.7,0.3-1.2,0.9-1.6c0.6-0.4,1.4-0.5,2.5-0.5c0.1,0,0.2,0,0.4,0
		c0.1,0,0.2,0,0.4,0v-0.1c0-0.7-0.1-1.1-0.3-1.4c-0.2-0.3-0.6-0.4-1.2-0.4c-0.3,0-0.6,0-0.9,0.1c-0.3,0.1-0.6,0.2-0.9,0.4v-0.8
		c0.3-0.1,0.6-0.3,0.9-0.3c0.3-0.1,0.7-0.1,1-0.1c0.7,0,1.2,0.2,1.6,0.5s0.6,0.9,0.6,1.5v3.2c0,0.2,0,0.4,0,0.6c0,0.2,0,0.4,0,0.6
		H491z M490.9,278.3c-0.1,0-0.1,0-0.2,0c-0.1,0-0.2,0-0.2,0c-0.3,0-0.5,0-0.9,0c-0.3,0-0.6,0.1-0.9,0.2c-0.3,0.1-0.5,0.2-0.7,0.4
		c-0.2,0.2-0.3,0.5-0.3,0.8c0,0.4,0.1,0.6,0.4,0.9c0.2,0.2,0.6,0.3,1,0.3c0.3,0,0.5,0,0.8-0.1c0.2-0.1,0.4-0.2,0.6-0.4
		c0.1-0.1,0.2-0.3,0.3-0.4c0.1-0.2,0.1-0.3,0.1-0.5c0-0.2,0-0.4,0-0.6S490.9,278.5,490.9,278.3z"/>
	<path d="M497.8,275.2h0.8v6.4h-0.8v-3h-3.4v3h-0.8v-6.4h0.8v2.7h3.4V275.2z"/>
	<path d="M500.5,281.5v-6.4h0.8v2.9l3-2.9h1l-3.1,3l3.5,3.4h-1.1l-3.3-3.3v3.3H500.5z"/>
	<path d="M512.2,278.3c0,0.5-0.1,1-0.2,1.4c-0.1,0.4-0.3,0.8-0.6,1.1c-0.3,0.3-0.6,0.5-0.9,0.7s-0.8,0.2-1.2,0.2
		c-0.4,0-0.8-0.1-1.2-0.2c-0.4-0.2-0.7-0.4-0.9-0.7c-0.3-0.3-0.5-0.6-0.6-1c-0.1-0.4-0.2-0.9-0.2-1.3c0-0.5,0.1-1,0.2-1.4
		c0.1-0.4,0.3-0.8,0.6-1.1s0.6-0.5,0.9-0.7c0.4-0.2,0.8-0.2,1.3-0.2c0.5,0,0.9,0.1,1.3,0.3c0.4,0.2,0.7,0.4,0.9,0.7
		c0.2,0.3,0.4,0.6,0.5,1C512.2,277.4,512.2,277.9,512.2,278.3z M507.1,278.4c0,0.4,0.1,0.7,0.2,1.1c0.1,0.3,0.3,0.6,0.4,0.8
		s0.4,0.4,0.7,0.6s0.5,0.2,0.9,0.2s0.6-0.1,0.9-0.2c0.3-0.1,0.5-0.3,0.7-0.6s0.3-0.5,0.4-0.8c0.1-0.3,0.2-0.7,0.2-1.1
		c0-0.4,0-0.8-0.1-1.1c-0.1-0.3-0.2-0.6-0.4-0.8c-0.2-0.2-0.4-0.4-0.7-0.5c-0.3-0.1-0.6-0.2-0.9-0.2c-0.7,0-1.2,0.2-1.6,0.7
		C507.3,276.9,507.1,277.6,507.1,278.4z"/>
	<path d="M517.7,278.3c0.1,0.1,0.3,0.2,0.4,0.3c0.1,0.1,0.2,0.3,0.3,0.4s0.1,0.4,0.1,0.6c0,0.4-0.1,0.7-0.2,0.9
		c-0.1,0.2-0.3,0.5-0.5,0.6c-0.2,0.2-0.4,0.3-0.7,0.3c-0.3,0.1-0.6,0.1-0.9,0.1h-2.5v-6.4h2.4c0.3,0,0.6,0,0.8,0.1
		c0.3,0.1,0.5,0.1,0.7,0.3c0.2,0.1,0.3,0.3,0.5,0.5c0.1,0.2,0.2,0.4,0.2,0.7c0,0.4-0.1,0.7-0.2,0.9s-0.4,0.4-0.7,0.5v0
		C517.4,278.2,517.6,278.2,517.7,278.3z M517.4,276.8c0-0.3-0.1-0.6-0.4-0.7s-0.6-0.2-1-0.2h-1.5v2h1.6c0.4,0,0.8-0.1,1-0.2
		C517.2,277.4,517.4,277.2,517.4,276.8z M514.5,280.9h1.6c0.5,0,0.9-0.1,1.1-0.3c0.3-0.2,0.4-0.5,0.4-0.9c0-0.3-0.1-0.6-0.4-0.8
		s-0.6-0.3-1.2-0.3h-1.6V280.9z"/>
	<path d="M524.2,276.2c-0.5-0.2-0.9-0.3-1.4-0.3c-0.4,0-0.7,0.1-1,0.2c-0.3,0.1-0.5,0.3-0.8,0.5c-0.2,0.2-0.4,0.5-0.5,0.8
		s-0.2,0.6-0.2,1c0,0.4,0.1,0.7,0.2,1.1s0.3,0.6,0.5,0.8c0.2,0.2,0.5,0.4,0.7,0.5c0.3,0.1,0.6,0.2,1,0.2c0.2,0,0.5,0,0.7-0.1
		c0.2,0,0.5-0.1,0.7-0.2l0.1,0.8c-0.3,0.1-0.5,0.2-0.8,0.2c-0.2,0-0.5,0.1-0.8,0.1c-0.5,0-0.9-0.1-1.3-0.2c-0.4-0.2-0.7-0.4-1-0.7
		c-0.3-0.3-0.5-0.6-0.6-1s-0.2-0.9-0.2-1.3c0-0.5,0.1-0.9,0.2-1.3c0.2-0.4,0.4-0.7,0.6-1c0.3-0.3,0.6-0.5,1-0.7s0.8-0.2,1.3-0.2
		c0.2,0,0.5,0,0.7,0.1c0.3,0,0.5,0.1,0.8,0.2L524.2,276.2z"/>
	<path d="M525.6,281.5v-6.4h0.8v2.9l3-2.9h1l-3.1,3l3.5,3.4h-1.1l-3.3-3.3v3.3H525.6z"/>
	<path d="M535.5,281.5v-1.1c-0.1,0.2-0.2,0.4-0.4,0.5c-0.2,0.2-0.3,0.3-0.5,0.4c-0.2,0.1-0.4,0.2-0.6,0.2c-0.2,0-0.4,0.1-0.6,0.1
		c-0.6,0-1.1-0.2-1.4-0.5c-0.4-0.3-0.5-0.8-0.5-1.3c0-0.7,0.3-1.2,0.9-1.6c0.6-0.4,1.4-0.5,2.5-0.5c0.1,0,0.2,0,0.4,0
		c0.1,0,0.2,0,0.4,0v-0.1c0-0.7-0.1-1.1-0.3-1.4c-0.2-0.3-0.6-0.4-1.2-0.4c-0.3,0-0.6,0-0.9,0.1c-0.3,0.1-0.6,0.2-0.9,0.4v-0.8
		c0.3-0.1,0.6-0.3,0.9-0.3c0.3-0.1,0.7-0.1,1-0.1c0.7,0,1.2,0.2,1.6,0.5s0.6,0.9,0.6,1.5v3.2c0,0.2,0,0.4,0,0.6c0,0.2,0,0.4,0,0.6
		H535.5z M535.4,278.3c-0.1,0-0.1,0-0.2,0c-0.1,0-0.2,0-0.2,0c-0.3,0-0.5,0-0.9,0c-0.3,0-0.6,0.1-0.9,0.2c-0.3,0.1-0.5,0.2-0.7,0.4
		c-0.2,0.2-0.3,0.5-0.3,0.8c0,0.4,0.1,0.6,0.4,0.9c0.2,0.2,0.6,0.3,1,0.3c0.3,0,0.5,0,0.8-0.1c0.2-0.1,0.4-0.2,0.6-0.4
		c0.1-0.1,0.2-0.3,0.3-0.4c0.1-0.2,0.1-0.3,0.1-0.5c0-0.2,0-0.4,0-0.6S535.4,278.5,535.4,278.3z"/>
	<path d="M541.8,281.5v-2.7h-1.2c-0.2,0-0.4,0-0.6,0.1c-0.1,0-0.3,0.1-0.4,0.2s-0.2,0.2-0.3,0.4c-0.1,0.1-0.2,0.3-0.3,0.5l-0.8,1.6
		h-0.9l1-1.9c0.1-0.2,0.2-0.4,0.3-0.6s0.2-0.2,0.3-0.3c0.1-0.1,0.2-0.1,0.3-0.2c0.1,0,0.2-0.1,0.3-0.1c-0.3,0-0.5-0.1-0.7-0.2
		c-0.2-0.1-0.4-0.2-0.5-0.4s-0.2-0.3-0.3-0.5c-0.1-0.2-0.1-0.3-0.1-0.5c0-0.5,0.2-1,0.6-1.3s0.8-0.5,1.4-0.5h2.7v6.4H541.8z
		 M541.8,275.9h-1.8c-0.4,0-0.7,0.1-0.9,0.3s-0.3,0.5-0.3,0.8c0,0.4,0.1,0.7,0.3,0.9c0.2,0.2,0.6,0.3,1.2,0.3h1.5V275.9z"/>
	<path d="M548.7,275.9v5.7h-0.8v-6.4h5v6.4h-0.8v-5.7H548.7z"/>
	<path d="M559.8,281.5H559v-5.7h-2.5v1.6c0,0.3,0,0.6,0,0.9c0,0.3,0,0.6-0.1,0.9c0,0.3-0.1,0.6-0.2,0.9c-0.1,0.3-0.2,0.5-0.3,0.8
		c-0.1,0.2-0.3,0.4-0.5,0.5s-0.5,0.2-0.8,0.2c-0.2,0-0.4,0-0.6-0.1l0-0.7c0.1,0,0.3,0.1,0.5,0.1c0.2,0,0.4-0.1,0.5-0.2
		c0.1-0.1,0.3-0.3,0.4-0.6c0.1-0.3,0.2-0.7,0.2-1.2c0-0.5,0.1-1.1,0.1-1.9v-1.8h4V281.5z"/>
	<path d="M565.4,281.5v-1.1c-0.1,0.2-0.2,0.4-0.4,0.5c-0.2,0.2-0.3,0.3-0.5,0.4c-0.2,0.1-0.4,0.2-0.6,0.2c-0.2,0-0.4,0.1-0.6,0.1
		c-0.6,0-1.1-0.2-1.4-0.5c-0.4-0.3-0.5-0.8-0.5-1.3c0-0.7,0.3-1.2,0.9-1.6c0.6-0.4,1.4-0.5,2.5-0.5c0.1,0,0.2,0,0.4,0
		c0.1,0,0.2,0,0.4,0v-0.1c0-0.7-0.1-1.1-0.3-1.4c-0.2-0.3-0.6-0.4-1.2-0.4c-0.3,0-0.6,0-0.9,0.1c-0.3,0.1-0.6,0.2-0.9,0.4v-0.8
		c0.3-0.1,0.6-0.3,0.9-0.3c0.3-0.1,0.7-0.1,1-0.1c0.7,0,1.2,0.2,1.6,0.5s0.6,0.9,0.6,1.5v3.2c0,0.2,0,0.4,0,0.6c0,0.2,0,0.4,0,0.6
		H565.4z M565.4,278.3c-0.1,0-0.1,0-0.2,0c-0.1,0-0.2,0-0.2,0c-0.3,0-0.5,0-0.9,0c-0.3,0-0.6,0.1-0.9,0.2c-0.3,0.1-0.5,0.2-0.7,0.4
		c-0.2,0.2-0.3,0.5-0.3,0.8c0,0.4,0.1,0.6,0.4,0.9c0.2,0.2,0.6,0.3,1,0.3c0.3,0,0.5,0,0.8-0.1c0.2-0.1,0.4-0.2,0.6-0.4
		c0.1-0.1,0.2-0.3,0.3-0.4c0.1-0.2,0.1-0.3,0.1-0.5c0-0.2,0-0.4,0-0.6S565.3,278.5,565.4,278.3z"/>
	<path d="M570.2,275.9v5.7h-0.8v-5.7h-2.2v-0.7h5.3v0.7H570.2z"/>
	<path d="M581.6,278.4c0,0.5,0,0.9-0.1,1.3s-0.2,0.8-0.4,1.1c-0.2,0.3-0.4,0.5-0.7,0.7c-0.3,0.2-0.6,0.3-1,0.3
		c-0.3,0-0.7-0.1-0.9-0.2s-0.5-0.3-0.6-0.6h0v3.3H577v-3.3h0c-0.2,0.2-0.4,0.4-0.6,0.6s-0.6,0.2-0.9,0.2c-0.4,0-0.7-0.1-1-0.3
		c-0.3-0.2-0.5-0.4-0.7-0.7c-0.2-0.3-0.3-0.7-0.4-1.1c-0.1-0.4-0.1-0.8-0.1-1.3c0-0.5,0-0.9,0.1-1.3c0.1-0.4,0.2-0.8,0.4-1.1
		c0.2-0.3,0.4-0.5,0.7-0.7c0.3-0.2,0.6-0.2,1.1-0.2c0.2,0,0.4,0,0.5,0.1c0.2,0.1,0.3,0.1,0.4,0.2c0.1,0.1,0.2,0.2,0.3,0.3
		s0.2,0.2,0.2,0.3h0v-3.7h0.8v3.7h0c0.1-0.1,0.1-0.2,0.2-0.3s0.2-0.2,0.3-0.3c0.1-0.1,0.3-0.1,0.4-0.2c0.2,0,0.3-0.1,0.5-0.1
		c0.4,0,0.8,0.1,1.1,0.2c0.3,0.2,0.5,0.4,0.7,0.7c0.2,0.3,0.3,0.6,0.4,1.1C581.6,277.4,581.6,277.9,581.6,278.4z M577,276.8
		c-0.1-0.3-0.3-0.6-0.5-0.8c-0.2-0.2-0.5-0.3-0.9-0.3c-0.3,0-0.6,0.1-0.8,0.2c-0.2,0.2-0.4,0.4-0.5,0.6s-0.2,0.5-0.3,0.9
		c-0.1,0.3-0.1,0.6-0.1,0.9c0,0.3,0,0.6,0.1,0.9c0.1,0.3,0.1,0.6,0.3,0.9s0.3,0.5,0.5,0.6c0.2,0.2,0.5,0.2,0.8,0.2
		c0.3,0,0.6-0.1,0.9-0.3c0.2-0.2,0.4-0.5,0.5-0.8V276.8z M580.8,278.4c0-0.3,0-0.6-0.1-0.9c-0.1-0.3-0.1-0.6-0.3-0.9
		s-0.3-0.5-0.5-0.6s-0.5-0.2-0.8-0.2c-0.3,0-0.6,0.1-0.9,0.3c-0.2,0.2-0.4,0.5-0.5,0.8v3.1c0.1,0.3,0.3,0.6,0.5,0.8
		c0.2,0.2,0.5,0.3,0.9,0.3c0.3,0,0.6-0.1,0.8-0.2s0.4-0.4,0.5-0.6c0.1-0.3,0.2-0.5,0.3-0.9S580.8,278.7,580.8,278.4z"/>
	<path d="M588.6,278.3c0,0.5-0.1,1-0.2,1.4c-0.1,0.4-0.3,0.8-0.6,1.1c-0.3,0.3-0.6,0.5-0.9,0.7s-0.8,0.2-1.2,0.2
		c-0.4,0-0.8-0.1-1.2-0.2c-0.4-0.2-0.7-0.4-0.9-0.7c-0.3-0.3-0.5-0.6-0.6-1c-0.1-0.4-0.2-0.9-0.2-1.3c0-0.5,0.1-1,0.2-1.4
		c0.1-0.4,0.3-0.8,0.6-1.1s0.6-0.5,0.9-0.7c0.4-0.2,0.8-0.2,1.3-0.2c0.5,0,0.9,0.1,1.3,0.3c0.4,0.2,0.7,0.4,0.9,0.7
		c0.2,0.3,0.4,0.6,0.5,1C588.5,277.4,588.6,277.9,588.6,278.3z M583.5,278.4c0,0.4,0.1,0.7,0.2,1.1c0.1,0.3,0.3,0.6,0.4,0.8
		s0.4,0.4,0.7,0.6s0.5,0.2,0.9,0.2s0.6-0.1,0.9-0.2c0.3-0.1,0.5-0.3,0.7-0.6s0.3-0.5,0.4-0.8c0.1-0.3,0.2-0.7,0.2-1.1
		c0-0.4,0-0.8-0.1-1.1c-0.1-0.3-0.2-0.6-0.4-0.8c-0.2-0.2-0.4-0.4-0.7-0.5c-0.3-0.1-0.6-0.2-0.9-0.2c-0.7,0-1.2,0.2-1.6,0.7
		C583.7,276.9,583.5,277.6,583.5,278.4z"/>
	<path d="M590,284.2v-9h0.8l0,1.2c0.2-0.4,0.5-0.7,0.8-1s0.7-0.3,1.3-0.3c0.5,0,0.9,0.1,1.2,0.3c0.3,0.2,0.6,0.4,0.8,0.7
		c0.2,0.3,0.4,0.6,0.5,1s0.1,0.8,0.1,1.2c0,0.4,0,0.8-0.1,1.2c-0.1,0.4-0.2,0.8-0.4,1.1s-0.5,0.6-0.8,0.7c-0.3,0.2-0.7,0.3-1.2,0.3
		c-0.5,0-0.9-0.1-1.2-0.3c-0.4-0.2-0.6-0.5-0.8-0.9v3.8H590z M592.7,275.8c-0.6,0-1.1,0.2-1.5,0.7c-0.4,0.5-0.5,1.1-0.5,1.9
		c0,0.3,0,0.6,0.1,0.9c0.1,0.3,0.2,0.6,0.4,0.8c0.2,0.2,0.4,0.4,0.6,0.6s0.6,0.2,0.9,0.2c0.6,0,1-0.2,1.3-0.7
		c0.3-0.5,0.5-1.1,0.5-1.9c0-0.8-0.2-1.5-0.5-1.9C593.8,276,593.3,275.8,592.7,275.8z"/>
	<path d="M603,281.5V276h0l-2.1,5.5h-0.9l-2.1-5.5h0v5.5H597v-6.4h1.3l2.1,5.6h0l2.1-5.6h1.3v6.4H603z"/>
	<path d="M609.4,281.5v-1.1c-0.1,0.2-0.2,0.4-0.4,0.5c-0.2,0.2-0.3,0.3-0.5,0.4c-0.2,0.1-0.4,0.2-0.6,0.2c-0.2,0-0.4,0.1-0.6,0.1
		c-0.6,0-1.1-0.2-1.4-0.5c-0.4-0.3-0.5-0.8-0.5-1.3c0-0.7,0.3-1.2,0.9-1.6c0.6-0.4,1.4-0.5,2.5-0.5c0.1,0,0.2,0,0.4,0
		c0.1,0,0.2,0,0.4,0v-0.1c0-0.7-0.1-1.1-0.3-1.4c-0.2-0.3-0.6-0.4-1.2-0.4c-0.3,0-0.6,0-0.9,0.1c-0.3,0.1-0.6,0.2-0.9,0.4v-0.8
		c0.3-0.1,0.6-0.3,0.9-0.3c0.3-0.1,0.7-0.1,1-0.1c0.7,0,1.2,0.2,1.6,0.5s0.6,0.9,0.6,1.5v3.2c0,0.2,0,0.4,0,0.6c0,0.2,0,0.4,0,0.6
		H609.4z M609.3,278.3c-0.1,0-0.1,0-0.2,0c-0.1,0-0.2,0-0.2,0c-0.3,0-0.5,0-0.9,0c-0.3,0-0.6,0.1-0.9,0.2c-0.3,0.1-0.5,0.2-0.7,0.4
		c-0.2,0.2-0.3,0.5-0.3,0.8c0,0.4,0.1,0.6,0.4,0.9c0.2,0.2,0.6,0.3,1,0.3c0.3,0,0.5,0,0.8-0.1c0.2-0.1,0.4-0.2,0.6-0.4
		c0.1-0.1,0.2-0.3,0.3-0.4c0.1-0.2,0.1-0.3,0.1-0.5c0-0.2,0-0.4,0-0.6S609.3,278.5,609.3,278.3z"/>
</g>
<path class="st9" d="M511.6,172.4c0-6.9,5.6-12.5,12.5-12.5c6.9,0,12.5,5.6,12.5,12.5c0,6.9-5.6,12.5-12.5,12.5
	C517.2,184.8,511.6,179.3,511.6,172.4"/>
<text transform="matrix(1 0 0 1 520.6377 176.2139)" class="st6 st7 st8">3</text>
<g>
	<path d="M492.3,195.7h2l3.4,8.7h-1.9l-0.7-2h-3.6l-0.7,2h-1.8L492.3,195.7z M494.5,201l-1.3-3.6L492,201H494.5z"/>
	<path d="M500.2,199.3v5.2h-1.7V198h4.2v1.3H500.2z"/>
	<path d="M505.3,207h-1.7v-7.2c0-0.3,0-0.6,0-0.9c0-0.3,0-0.6,0-0.9h1.6l0,1c0.2-0.4,0.5-0.6,0.9-0.8c0.3-0.2,0.7-0.3,1.2-0.3
		c0.4,0,0.8,0.1,1.1,0.2c0.3,0.2,0.6,0.4,0.8,0.6c0.2,0.3,0.4,0.6,0.5,1c0.1,0.4,0.2,0.8,0.2,1.3c0,1.1-0.2,1.9-0.7,2.5
		c-0.5,0.6-1.1,0.9-2,0.9c-0.9,0-1.5-0.3-1.9-1V207z M505.3,201.2c0,0.6,0.1,1.1,0.4,1.4s0.6,0.5,1,0.5c0.4,0,0.8-0.2,1-0.6
		c0.3-0.4,0.4-0.9,0.4-1.5c0-0.6-0.1-1.1-0.4-1.4s-0.6-0.5-1-0.5c-0.5,0-0.8,0.2-1.1,0.5C505.5,200.1,505.3,200.6,505.3,201.2z"/>
	<path d="M512.5,201.7c0,0.3,0.1,0.5,0.2,0.7c0.1,0.2,0.2,0.4,0.4,0.5c0.2,0.1,0.4,0.2,0.6,0.3c0.2,0.1,0.5,0.1,0.7,0.1
		c0.3,0,0.7,0,1-0.1c0.3-0.1,0.7-0.3,1.1-0.5v1.4c-0.1,0.1-0.2,0.1-0.4,0.2s-0.3,0.1-0.5,0.2c-0.2,0-0.4,0.1-0.6,0.1s-0.4,0-0.6,0
		c-1.1,0-1.9-0.3-2.5-0.9c-0.6-0.6-0.9-1.4-0.9-2.5c0-0.5,0.1-1,0.2-1.4s0.4-0.8,0.6-1.1c0.3-0.3,0.6-0.5,1-0.7
		c0.4-0.2,0.8-0.2,1.3-0.2c0.5,0,1,0.1,1.4,0.3c0.4,0.2,0.7,0.5,0.9,0.8c0.2,0.3,0.4,0.7,0.5,1.1c0.1,0.4,0.1,0.9,0.1,1.3
		c0,0.1,0,0.1,0,0.2s0,0.1,0,0.2H512.5z M515.3,200.6c0-0.5-0.2-0.9-0.4-1.2c-0.2-0.3-0.6-0.4-1-0.4c-0.4,0-0.7,0.1-1,0.4
		c-0.2,0.3-0.4,0.7-0.4,1.2H515.3z"/>
	<path d="M519.8,199.3v5.2h-1.7V198h4.2v1.3H519.8z"/>
	<path d="M527,204.4l0-0.9c-0.2,0.4-0.5,0.6-0.8,0.8s-0.8,0.2-1.2,0.2c-0.7,0-1.2-0.2-1.6-0.5s-0.6-0.8-0.6-1.5
		c0-1.4,1.1-2.1,3.2-2.1c0.1,0,0.3,0,0.4,0c0.1,0,0.3,0,0.5,0v0c0-0.9-0.5-1.4-1.4-1.4c-0.3,0-0.7,0.1-1,0.2s-0.7,0.3-1,0.5l0-1.4
		c0.3-0.2,0.7-0.3,1.1-0.3c0.4-0.1,0.8-0.1,1.1-0.1c0.2,0,0.5,0,0.7,0.1s0.5,0.1,0.7,0.2c0.2,0.1,0.4,0.2,0.6,0.4
		c0.2,0.2,0.3,0.4,0.4,0.6c0,0.1,0.1,0.2,0.1,0.3s0.1,0.2,0.1,0.4c0,0.2,0,0.3,0,0.5c0,0.2,0,0.5,0,0.7v0.9c0,0.3,0,0.5,0,0.7
		c0,0.2,0,0.4,0,0.6c0,0.2,0,0.4,0,0.5c0,0.2,0,0.4,0,0.5H527z M527,201.5c-0.1,0-0.2,0-0.3,0c-0.1,0-0.1,0-0.2,0
		c-1.4,0-2.1,0.4-2.1,1.1c0,0.2,0.1,0.4,0.3,0.6c0.2,0.2,0.4,0.2,0.7,0.2s0.6-0.1,0.8-0.2c0.2-0.2,0.4-0.4,0.6-0.7
		c0.1-0.1,0.1-0.3,0.1-0.4C526.9,201.9,526.9,201.7,527,201.5z"/>
	<path d="M532.9,199.3v5.2h-1.7v-5.2h-1.9V198h5.4v1.3H532.9z"/>
	<path d="M542,201.2c0,0.5-0.1,1-0.2,1.4c-0.2,0.4-0.4,0.8-0.7,1.1s-0.6,0.5-1.1,0.7c-0.4,0.2-0.9,0.2-1.4,0.2
		c-0.5,0-0.9-0.1-1.4-0.3c-0.4-0.2-0.8-0.4-1.1-0.7c-0.3-0.3-0.5-0.7-0.7-1.1s-0.2-0.9-0.2-1.4c0-0.5,0.1-1,0.2-1.4s0.4-0.8,0.7-1.1
		c0.3-0.3,0.6-0.5,1.1-0.7c0.4-0.2,0.9-0.2,1.4-0.2s1,0.1,1.4,0.2c0.4,0.2,0.8,0.4,1,0.7c0.3,0.3,0.5,0.7,0.7,1.1
		C541.9,200.2,542,200.7,542,201.2z M537,201.2c0,0.3,0,0.5,0.1,0.7c0.1,0.2,0.1,0.5,0.3,0.7c0.1,0.2,0.3,0.4,0.5,0.5
		c0.2,0.1,0.4,0.2,0.7,0.2c0.5,0,0.9-0.2,1.2-0.6c0.3-0.4,0.4-0.9,0.4-1.6c0-0.7-0.1-1.2-0.4-1.5c-0.3-0.4-0.7-0.6-1.2-0.6
		c-0.3,0-0.6,0.1-0.8,0.2s-0.4,0.3-0.5,0.5c-0.1,0.2-0.2,0.4-0.3,0.7C537,200.7,537,200.9,537,201.2z"/>
	<path d="M545,207h-1.7v-7.2c0-0.3,0-0.6,0-0.9c0-0.3,0-0.6,0-0.9h1.6l0,1c0.2-0.4,0.5-0.6,0.9-0.8c0.3-0.2,0.7-0.3,1.2-0.3
		c0.4,0,0.8,0.1,1.1,0.2c0.3,0.2,0.6,0.4,0.8,0.6c0.2,0.3,0.4,0.6,0.5,1c0.1,0.4,0.2,0.8,0.2,1.3c0,1.1-0.2,1.9-0.7,2.5
		c-0.5,0.6-1.1,0.9-2,0.9c-0.9,0-1.5-0.3-1.9-1V207z M545,201.2c0,0.6,0.1,1.1,0.4,1.4s0.6,0.5,1,0.5c0.4,0,0.8-0.2,1-0.6
		c0.3-0.4,0.4-0.9,0.4-1.5c0-0.6-0.1-1.1-0.4-1.4s-0.6-0.5-1-0.5c-0.5,0-0.8,0.2-1.1,0.5C545.1,200.1,545,200.6,545,201.2z"/>
	<path d="M556.2,202.3c0,0.7-0.2,1.2-0.7,1.6c-0.4,0.4-1.1,0.5-1.8,0.5h-2.7V198h1.7v2.2h1.1c0.3,0,0.6,0,0.9,0.1
		c0.3,0.1,0.6,0.2,0.8,0.4s0.4,0.4,0.5,0.7S556.2,201.9,556.2,202.3z M554.4,202.3c0-0.3-0.1-0.5-0.3-0.7s-0.4-0.2-0.8-0.2h-0.8v1.8
		h0.9c0.3,0,0.5-0.1,0.7-0.3C554.3,202.8,554.4,202.5,554.4,202.3z M557,204.4V198h1.7v6.4H557z"/>
</g>
<path class="st9" d="M446.2,258.7h40.9v2.9h-40.9V258.7z M448.1,254.1h37.3v2.6h-37.3V254.1z M474.1,230.9h8.3v1h-0.6v0.4
	c0,0.5-0.3,0.9-0.6,1v16.8c0.4,0.2,0.6,0.6,0.6,1v0.4h0.6v1h-8.3v-1h0.6v-0.4c0-0.5,0.3-0.9,0.6-1v-16.8c-0.4-0.2-0.6-0.6-0.6-1
	v-0.4h-0.6V230.9z M462.6,230.9h8.3v1h-0.6v0.4c0,0.5-0.3,0.9-0.6,1v16.8c0.4,0.2,0.6,0.6,0.6,1v0.4h0.6v1h-8.3v-1h0.6v-0.4
	c0-0.5,0.3-0.9,0.6-1v-16.8c-0.4-0.2-0.6-0.6-0.6-1v-0.4h-0.6V230.9z M451,230.9h8.3v1h-0.6v0.4c0,0.5-0.3,0.9-0.6,1v16.8
	c0.4,0.2,0.6,0.6,0.6,1v0.4h0.6v1H451v-1h0.6v-0.4c0-0.5,0.3-0.9,0.6-1v-16.8c-0.4-0.2-0.6-0.6-0.6-1v-0.4H451V230.9z M466.7,221.7
	c-1.2,0-2.2,1-2.2,2.2s1,2.2,2.2,2.2c1.2,0,2.2-1,2.2-2.2S468,221.7,466.7,221.7 M466.8,216.6l19.1,9.9v2.8h-38.2v-3L466.8,216.6z"
	/>
<path class="st9" d="M503,258.7h40.9v2.9H503V258.7z M504.8,254.1h37.3v2.6h-37.3V254.1z M530.8,230.9h8.3v1h-0.6v0.4
	c0,0.5-0.3,0.9-0.6,1v16.8c0.4,0.2,0.6,0.6,0.6,1v0.4h0.6v1h-8.3v-1h0.6v-0.4c0-0.5,0.3-0.9,0.6-1v-16.8c-0.4-0.2-0.6-0.6-0.6-1
	v-0.4h-0.6V230.9z M519.3,230.9h8.3v1H527v0.4c0,0.5-0.3,0.9-0.6,1v16.8c0.4,0.2,0.6,0.6,0.6,1v0.4h0.6v1h-8.3v-1h0.6v-0.4
	c0-0.5,0.3-0.9,0.6-1v-16.8c-0.4-0.2-0.6-0.6-0.6-1v-0.4h-0.6V230.9z M507.8,230.9h8.3v1h-0.6v0.4c0,0.5-0.3,0.9-0.6,1v16.8
	c0.4,0.2,0.6,0.6,0.6,1v0.4h0.6v1h-8.3v-1h0.6v-0.4c0-0.5,0.3-0.9,0.6-1v-16.8c-0.4-0.2-0.6-0.6-0.6-1v-0.4h-0.6V230.9z
	 M523.5,221.7c-1.2,0-2.2,1-2.2,2.2s1,2.2,2.2,2.2s2.2-1,2.2-2.2S524.7,221.7,523.5,221.7 M523.5,216.6l19.1,9.9v2.8h-38.2v-3
	L523.5,216.6z"/>
<path class="st9" d="M560.9,257.3H602v2.9h-41.1V257.3z M562.7,252.8h37.4v2.6h-37.4V252.8z M588.8,229.6h8.3v1h-0.6v0.4
	c0,0.5-0.3,0.9-0.6,1v16.8c0.4,0.2,0.6,0.6,0.6,1v0.4h0.6v1h-8.3v-1h0.6v-0.4c0-0.5,0.3-0.9,0.6-1V232c-0.4-0.2-0.6-0.6-0.6-1v-0.4
	h-0.6V229.6z M577.3,229.6h8.3v1H585v0.4c0,0.5-0.3,0.9-0.6,1v16.8c0.4,0.2,0.6,0.6,0.6,1v0.4h0.6v1h-8.3v-1h0.6v-0.4
	c0-0.5,0.3-0.9,0.6-1V232c-0.4-0.2-0.6-0.6-0.6-1v-0.4h-0.6V229.6z M565.7,229.6h8.3v1h-0.6v0.4c0,0.5-0.3,0.9-0.6,1v16.8
	c0.4,0.2,0.6,0.6,0.6,1v0.4h0.6v1h-8.3v-1h0.6v-0.4c0-0.5,0.3-0.9,0.6-1V232c-0.4-0.2-0.6-0.6-0.6-1v-0.4h-0.6V229.6z M581.5,220.4
	c-1.2,0-2.2,1-2.2,2.2s1,2.2,2.2,2.2c1.2,0,2.2-1,2.2-2.2S582.7,220.4,581.5,220.4 M581.5,215.3l19.1,9.9v2.8h-38.4v-3L581.5,215.3z
	"/>
<path class="st10" d="M374,169.9c0-6.9,5.6-12.5,12.5-12.5c6.9,0,12.5,5.6,12.5,12.5c0,6.9-5.6,12.5-12.5,12.5
	C379.6,182.3,374,176.8,374,169.9"/>
<text transform="matrix(1 0 0 1 383.04 173.7178)" class="st6 st7 st8">4</text>
<polyline class="st0" points="262.7,67.5 137,67.5 137,155 "/>
<polygon class="st1" points="261.4,71.6 269.7,67.5 261.4,63.3 "/>
<polyline class="st0" points="405.2,67.5 524.2,67.5 524.2,155 "/>
<polygon class="st1" points="406.6,71.6 398.2,67.5 406.6,63.3 "/>
<path class="st11" d="M269.8,67.4c0-35.5,28.8-64.3,64.2-64.3s64.2,28.8,64.2,64.3c0,35.5-28.8,64.3-64.2,64.3
	S269.8,102.9,269.8,67.4"/>
<ellipse class="st2" cx="334" cy="67.4" rx="64.2" ry="64.3"/>
<path class="st1" d="M333.9,78.5c4.8,0,8.7-4.7,8.7-10.4c0-5.8-1.3-10.5-8.7-10.5c-7.4,0-8.7,4.7-8.7,10.5
	C325.3,73.9,329.2,78.5,333.9,78.5 M333.9,78.5L333.9,78.5"/>
<path class="st1" d="M317.5,95.6c0,0,2.4,4.9,16.4,4.9s16.4-4.9,16.4-4.9v-1.5c-0.1-10-1.5-12.9-11.6-14.8c0,0-1.5,1.8-4.8,1.8
	c-3.3,0-4.8-1.8-4.8-1.8c-10,1.8-11.4,4.7-11.6,14.5V95.6z"/>
<path class="st1" d="M312.7,68.2c4.1,0,7.4-4,7.4-9.1c0-5-1.1-9.1-7.4-9.1c-6.3,0-7.4,4-7.4,9.1C305.3,64.2,308.7,68.2,312.7,68.2
	 M312.7,68.2L312.7,68.2"/>
<path class="st1" d="M355.1,68.2c4.1,0,7.5-4,7.5-9.1c0-5-1.1-9.1-7.5-9.1c-6.4,0-7.5,4-7.5,9.1C347.6,64.2,351,68.2,355.1,68.2
	 M355.1,68.2L355.1,68.2"/>
<path class="st1" d="M326.6,78c-0.5-5.8-2.4-7.8-9.8-9.1c0,0-1.3,1.6-4.1,1.6c-2.8,0-4.1-1.6-4.1-1.6c-8.6,1.6-9.8,4-10,12.4v1.6
	c0,0,2,4.1,14.1,4.1c1.3,0,2.5-0.1,3.6-0.1c0.4-1.7,1-3.2,1.9-4.4C319.8,80.3,322.3,79,326.6,78"/>
<path class="st1" d="M369,81.6c-0.1-8.6-1.2-11.1-9.9-12.7c0,0-1.2,1.6-4.1,1.6c-2.8,0-4.1-1.6-4.1-1.6c-7.3,1.3-9.2,3.3-9.7,9.1
	c6.5,1.5,9.1,3.9,10.2,8.9c1.1,0.1,2.3,0.1,3.6,0.1c12,0,14-4.1,14-4.1V81.6z"/>
<g>
	<path d="M315.6,25.6l-3.5,4l3.6,4.7h-2.3l-3.2-4.2v4.2h-1.8v-8.7h1.8v3.9l3.2-3.9H315.6z"/>
	<path d="M320.7,34.3v-5.2H319v1.8c0,0.4,0,0.8-0.1,1.2c-0.1,0.4-0.2,0.8-0.3,1.1c-0.2,0.3-0.4,0.6-0.6,0.8s-0.6,0.3-1.1,0.3
		c-0.1,0-0.3,0-0.5,0c-0.2,0-0.3,0-0.5-0.1l0.1-1.2c0,0,0.1,0,0.2,0c0.1,0,0.2,0,0.2,0c0.2,0,0.4-0.1,0.5-0.2
		c0.1-0.1,0.2-0.3,0.3-0.5c0.1-0.2,0.1-0.4,0.1-0.7c0-0.2,0-0.5,0-0.7v-3.1h5v6.4H320.7z"/>
	<path d="M328.5,34.3V30h0l-2.5,4.3h-1.8v-6.4h1.6v4.3h0l2.5-4.3h1.8v6.4H328.5z"/>
	<path d="M333.1,31.6c0,0.3,0.1,0.5,0.2,0.7c0.1,0.2,0.2,0.4,0.4,0.5c0.2,0.1,0.4,0.2,0.6,0.3c0.2,0.1,0.5,0.1,0.7,0.1
		c0.3,0,0.7,0,1-0.1c0.3-0.1,0.7-0.3,1.1-0.5v1.4c-0.1,0.1-0.2,0.1-0.4,0.2c-0.2,0.1-0.3,0.1-0.5,0.2c-0.2,0-0.4,0.1-0.6,0.1
		c-0.2,0-0.4,0-0.6,0c-1.1,0-1.9-0.3-2.5-0.9c-0.6-0.6-0.9-1.4-0.9-2.5c0-0.5,0.1-1,0.2-1.4s0.4-0.8,0.6-1.1c0.3-0.3,0.6-0.5,1-0.7
		c0.4-0.2,0.8-0.2,1.3-0.2c0.5,0,1,0.1,1.4,0.3c0.4,0.2,0.7,0.5,0.9,0.8c0.2,0.3,0.4,0.7,0.5,1.1c0.1,0.4,0.1,0.9,0.1,1.3
		c0,0.1,0,0.1,0,0.2c0,0.1,0,0.1,0,0.2H333.1z M335.9,30.4c0-0.5-0.2-0.9-0.4-1.2c-0.2-0.3-0.6-0.4-1-0.4c-0.4,0-0.7,0.1-1,0.4
		c-0.2,0.3-0.4,0.7-0.4,1.2H335.9z"/>
	<path d="M343.1,34.3v-2.7h-2.6v2.7h-1.7v-6.4h1.7v2.4h2.6v-2.4h1.7v6.4H343.1z"/>
	<path d="M349.2,29.1v5.2h-1.7v-5.2h-1.9v-1.3h5.4v1.3H349.2z"/>
	<path d="M357.2,32.1c0,0.7-0.2,1.2-0.7,1.6c-0.4,0.4-1.1,0.5-1.8,0.5H352v-6.4h1.7V30h1.1c0.3,0,0.6,0,0.9,0.1
		c0.3,0.1,0.6,0.2,0.8,0.4c0.2,0.2,0.4,0.4,0.5,0.7S357.2,31.8,357.2,32.1z M355.5,32.1c0-0.3-0.1-0.5-0.3-0.7
		c-0.2-0.1-0.4-0.2-0.8-0.2h-0.8V33h0.9c0.3,0,0.5-0.1,0.7-0.2C355.4,32.6,355.5,32.4,355.5,32.1z M358,34.3v-6.4h1.7v6.4H358z"/>
</g>
<polyline class="st0" points="526.1,297.3 526.1,413.9 350.3,413.9 "/>
<polygon class="st1" points="530.3,298.5 525.8,290.4 522,298.9 "/>
<polyline class="st0" points="131.4,297.3 131.4,413.9 320.2,413.9 "/>
<polygon class="st1" points="127.2,298.5 131.9,290.4 135.5,299 "/>
<path class="st3" d="M305.3,439.4h57.2v4h-57.2V439.4z M307.9,433H360v3.7h-52.1V433z M344.3,400.5h11.6v1.3H355v0.5
	c0,0.6-0.4,1.2-0.9,1.5v23.5c0.5,0.3,0.9,0.8,0.9,1.5v0.5h0.8v1.3h-11.6v-1.3h0.8v-0.5c0-0.6,0.4-1.2,0.9-1.5v-23.5
	c-0.5-0.3-0.9-0.8-0.9-1.5v-0.5h-0.8V400.5z M328.1,400.5h11.6v1.3h-0.8v0.5c0,0.6-0.4,1.2-0.9,1.5v23.5c0.5,0.3,0.9,0.8,0.9,1.5
	v0.5h0.8v1.3h-11.6v-1.3h0.8v-0.5c0-0.6,0.4-1.2,0.9-1.5v-23.5c-0.5-0.3-0.9-0.8-0.9-1.5v-0.5h-0.8V400.5z M312,400.5h11.6v1.3h-0.8
	v0.5c0,0.6-0.4,1.2-0.9,1.5v23.5c0.5,0.3,0.9,0.8,0.9,1.5v0.5h0.8v1.3H312v-1.3h0.8v-0.5c0-0.6,0.4-1.2,0.9-1.5v-23.5
	c-0.5-0.3-0.9-0.8-0.9-1.5v-0.5H312V400.5z M334,387.7c-1.7,0-3.1,1.4-3.1,3.1c0,1.7,1.4,3.1,3.1,3.1c1.7,0,3.1-1.4,3.1-3.1
	C337.1,389.1,335.7,387.7,334,387.7 M334,380.5l26.7,13.8v3.9h-53.4v-4.2L334,380.5z"/>
<text transform="matrix(1 0 0 1 319.3662 372.6387)" class="st7 st8"></text>
<path class="st3" d="M321.5,341.2c0-6.9,5.6-12.5,12.5-12.5s12.5,5.6,12.5,12.5c0,6.9-5.6,12.5-12.5,12.5S321.5,348.1,321.5,341.2"
	/>
<text transform="matrix(1 0 0 1 330.46 345.0938)" class="st6 st7 st8">1</text>
<g>
	<path d="M208.8,447.9h0.9l2.8,5.4h0l2.7-5.4h0.9l-3.8,7.5c-0.1,0.1-0.2,0.3-0.3,0.5c-0.1,0.2-0.2,0.3-0.4,0.4s-0.3,0.2-0.5,0.3
		s-0.4,0.1-0.6,0.1c-0.3,0-0.6,0-0.9-0.1l0.1-0.7c0.1,0,0.2,0,0.3,0.1c0.1,0,0.2,0,0.4,0c0.2,0,0.3,0,0.5-0.1s0.2-0.2,0.3-0.3
		c0.1-0.1,0.2-0.3,0.3-0.4c0.1-0.2,0.2-0.4,0.3-0.6l0.1-0.3L208.8,447.9z"/>
	<path d="M221.3,451.2c-0.5-0.2-0.9-0.3-1.4-0.3c-0.4,0-0.7,0.1-1,0.2c-0.3,0.1-0.5,0.3-0.8,0.5c-0.2,0.2-0.4,0.5-0.5,0.8
		s-0.2,0.6-0.2,1c0,0.4,0.1,0.7,0.2,1.1s0.3,0.6,0.5,0.8c0.2,0.2,0.5,0.4,0.7,0.5c0.3,0.1,0.6,0.2,1,0.2c0.2,0,0.5,0,0.7-0.1
		c0.2,0,0.5-0.1,0.7-0.2l0.1,0.8c-0.3,0.1-0.5,0.2-0.8,0.2c-0.2,0-0.5,0.1-0.8,0.1c-0.5,0-0.9-0.1-1.3-0.2c-0.4-0.2-0.7-0.4-1-0.7
		c-0.3-0.3-0.5-0.6-0.6-1s-0.2-0.9-0.2-1.3c0-0.5,0.1-0.9,0.2-1.3c0.2-0.4,0.4-0.7,0.6-1c0.3-0.3,0.6-0.5,1-0.7s0.8-0.2,1.3-0.2
		c0.2,0,0.5,0,0.7,0.1c0.3,0,0.5,0.1,0.8,0.2L221.3,451.2z"/>
	<path d="M228.2,453.4c0,0.5-0.1,1-0.2,1.4c-0.1,0.4-0.3,0.8-0.6,1.1c-0.3,0.3-0.6,0.5-0.9,0.7s-0.8,0.2-1.2,0.2
		c-0.4,0-0.8-0.1-1.2-0.2c-0.4-0.2-0.7-0.4-0.9-0.7c-0.3-0.3-0.5-0.6-0.6-1c-0.1-0.4-0.2-0.9-0.2-1.3c0-0.5,0.1-1,0.2-1.4
		c0.1-0.4,0.3-0.8,0.6-1.1s0.6-0.5,0.9-0.7c0.4-0.2,0.8-0.2,1.3-0.2c0.5,0,0.9,0.1,1.3,0.3c0.4,0.2,0.7,0.4,0.9,0.7
		c0.2,0.3,0.4,0.6,0.5,1C228.1,452.5,228.2,452.9,228.2,453.4z M223.1,453.4c0,0.4,0.1,0.7,0.2,1.1c0.1,0.3,0.3,0.6,0.4,0.8
		s0.4,0.4,0.7,0.6s0.5,0.2,0.9,0.2s0.6-0.1,0.9-0.2c0.3-0.1,0.5-0.3,0.7-0.6s0.3-0.5,0.4-0.8c0.1-0.3,0.2-0.7,0.2-1.1
		c0-0.4,0-0.8-0.1-1.1c-0.1-0.3-0.2-0.6-0.4-0.8c-0.2-0.2-0.4-0.4-0.7-0.5c-0.3-0.1-0.6-0.2-0.9-0.2c-0.7,0-1.2,0.2-1.6,0.7
		C223.3,452,223.1,452.6,223.1,453.4z"/>
	<path d="M233.7,453.3c0.1,0.1,0.3,0.2,0.4,0.3c0.1,0.1,0.2,0.3,0.3,0.4s0.1,0.4,0.1,0.6c0,0.4-0.1,0.7-0.2,0.9
		c-0.1,0.2-0.3,0.5-0.5,0.6c-0.2,0.2-0.4,0.3-0.7,0.3c-0.3,0.1-0.6,0.1-0.9,0.1h-2.5v-6.4h2.4c0.3,0,0.6,0,0.8,0.1
		c0.3,0.1,0.5,0.1,0.7,0.3c0.2,0.1,0.3,0.3,0.5,0.5c0.1,0.2,0.2,0.4,0.2,0.7c0,0.4-0.1,0.7-0.2,0.9s-0.4,0.4-0.7,0.5v0
		C233.4,453.2,233.5,453.3,233.7,453.3z M233.3,451.9c0-0.3-0.1-0.6-0.4-0.7s-0.6-0.2-1-0.2h-1.5v2h1.6c0.4,0,0.8-0.1,1-0.2
		C233.2,452.5,233.3,452.2,233.3,451.9z M230.4,455.9h1.6c0.5,0,0.9-0.1,1.1-0.3c0.3-0.2,0.4-0.5,0.4-0.9c0-0.3-0.1-0.6-0.4-0.8
		s-0.6-0.3-1.2-0.3h-1.6V455.9z"/>
	<path d="M236.4,453.6c0,0.3,0,0.6,0.1,0.9c0.1,0.3,0.2,0.6,0.4,0.8s0.4,0.4,0.7,0.5c0.3,0.1,0.6,0.2,1,0.2c0.1,0,0.3,0,0.4,0
		c0.2,0,0.3-0.1,0.5-0.1s0.3-0.1,0.4-0.1s0.3-0.1,0.4-0.2l0.1,0.8c-0.3,0.1-0.6,0.2-1,0.3c-0.4,0.1-0.7,0.1-1,0.1
		c-0.4,0-0.8-0.1-1.2-0.2c-0.4-0.2-0.7-0.4-0.9-0.7c-0.3-0.3-0.4-0.6-0.6-1c-0.1-0.4-0.2-0.9-0.2-1.4c0-0.5,0.1-0.9,0.2-1.3
		s0.3-0.7,0.6-1c0.2-0.3,0.5-0.5,0.9-0.7c0.3-0.2,0.7-0.2,1.2-0.2c0.8,0,1.4,0.3,1.8,0.8s0.6,1.3,0.6,2.3v0.4H236.4z M240.1,453
		c0-0.3,0-0.6-0.1-0.9c-0.1-0.3-0.2-0.5-0.4-0.7c-0.2-0.2-0.3-0.3-0.5-0.4c-0.2-0.1-0.4-0.2-0.7-0.2c-0.6,0-1,0.2-1.4,0.6
		c-0.4,0.4-0.6,0.9-0.6,1.6H240.1z"/>
	<path d="M242.2,459.2v-9h0.8l0,1.2c0.2-0.4,0.5-0.7,0.8-1s0.7-0.3,1.3-0.3c0.5,0,0.9,0.1,1.2,0.3c0.3,0.2,0.6,0.4,0.8,0.7
		c0.2,0.3,0.4,0.6,0.5,1s0.1,0.8,0.1,1.2c0,0.4,0,0.8-0.1,1.2c-0.1,0.4-0.2,0.8-0.4,1.1s-0.5,0.6-0.8,0.7c-0.3,0.2-0.7,0.3-1.2,0.3
		c-0.5,0-0.9-0.1-1.2-0.3c-0.4-0.2-0.6-0.5-0.8-0.9v3.8H242.2z M245,450.8c-0.6,0-1.1,0.2-1.5,0.7c-0.4,0.5-0.5,1.1-0.5,1.9
		c0,0.3,0,0.6,0.1,0.9c0.1,0.3,0.2,0.6,0.4,0.8c0.2,0.2,0.4,0.4,0.6,0.6s0.6,0.2,0.9,0.2c0.6,0,1-0.2,1.3-0.7
		c0.3-0.5,0.5-1.1,0.5-1.9c0-0.8-0.2-1.5-0.5-1.9C246,451.1,245.6,450.8,245,450.8z"/>
	<path d="M249.2,450.2h0.8v5.7h2.9v-5.7h0.8v5.7h2.9v-5.7h0.8v6.4h-8.1V450.2z"/>
	<path d="M259.6,453.6c0,0.3,0,0.6,0.1,0.9c0.1,0.3,0.2,0.6,0.4,0.8s0.4,0.4,0.7,0.5c0.3,0.1,0.6,0.2,1,0.2c0.1,0,0.3,0,0.4,0
		c0.2,0,0.3-0.1,0.5-0.1s0.3-0.1,0.4-0.1s0.3-0.1,0.4-0.2l0.1,0.8c-0.3,0.1-0.6,0.2-1,0.3c-0.4,0.1-0.7,0.1-1,0.1
		c-0.4,0-0.8-0.1-1.2-0.2c-0.4-0.2-0.7-0.4-0.9-0.7c-0.3-0.3-0.4-0.6-0.6-1c-0.1-0.4-0.2-0.9-0.2-1.4c0-0.5,0.1-0.9,0.2-1.3
		s0.3-0.7,0.6-1c0.2-0.3,0.5-0.5,0.9-0.7c0.3-0.2,0.7-0.2,1.2-0.2c0.8,0,1.4,0.3,1.8,0.8s0.6,1.3,0.6,2.3v0.4H259.6z M263.3,453
		c0-0.3,0-0.6-0.1-0.9c-0.1-0.3-0.2-0.5-0.4-0.7c-0.2-0.2-0.3-0.3-0.5-0.4c-0.2-0.1-0.4-0.2-0.7-0.2c-0.6,0-1,0.2-1.4,0.6
		c-0.4,0.4-0.6,0.9-0.6,1.6H263.3z"/>
	<path d="M269.7,450.2h0.8v6.4h-0.8v-3h-3.4v3h-0.8v-6.4h0.8v2.7h3.4V450.2z"/>
	<path d="M276.6,451.2c-0.5-0.2-0.9-0.3-1.4-0.3c-0.4,0-0.7,0.1-1,0.2c-0.3,0.1-0.5,0.3-0.8,0.5c-0.2,0.2-0.4,0.5-0.5,0.8
		s-0.2,0.6-0.2,1c0,0.4,0.1,0.7,0.2,1.1s0.3,0.6,0.5,0.8c0.2,0.2,0.5,0.4,0.7,0.5c0.3,0.1,0.6,0.2,1,0.2c0.2,0,0.5,0,0.7-0.1
		c0.2,0,0.5-0.1,0.7-0.2l0.1,0.8c-0.3,0.1-0.5,0.2-0.8,0.2c-0.2,0-0.5,0.1-0.8,0.1c-0.5,0-0.9-0.1-1.3-0.2c-0.4-0.2-0.7-0.4-1-0.7
		c-0.3-0.3-0.5-0.6-0.6-1s-0.2-0.9-0.2-1.3c0-0.5,0.1-0.9,0.2-1.3c0.2-0.4,0.4-0.7,0.6-1c0.3-0.3,0.6-0.5,1-0.7s0.8-0.2,1.3-0.2
		c0.2,0,0.5,0,0.7,0.1c0.3,0,0.5,0.1,0.8,0.2L276.6,451.2z"/>
	<path d="M280.2,450.9v5.7h-0.8v-5.7h-2.2v-0.7h5.3v0.7H280.2z"/>
	<path d="M287.6,453.3c0.1,0.1,0.3,0.2,0.4,0.3c0.1,0.1,0.2,0.3,0.3,0.4s0.1,0.4,0.1,0.6c0,0.4-0.1,0.7-0.2,0.9
		c-0.1,0.2-0.3,0.5-0.5,0.6c-0.2,0.2-0.4,0.3-0.7,0.3c-0.3,0.1-0.6,0.1-0.9,0.1h-2.5v-6.4h2.4c0.3,0,0.6,0,0.8,0.1
		c0.3,0.1,0.5,0.1,0.7,0.3c0.2,0.1,0.3,0.3,0.5,0.5c0.1,0.2,0.2,0.4,0.2,0.7c0,0.4-0.1,0.7-0.2,0.9s-0.4,0.4-0.7,0.5v0
		C287.3,453.2,287.4,453.3,287.6,453.3z M287.2,451.9c0-0.3-0.1-0.6-0.4-0.7s-0.6-0.2-1-0.2h-1.5v2h1.6c0.4,0,0.8-0.1,1-0.2
		C287.1,452.5,287.2,452.2,287.2,451.9z M284.3,455.9h1.6c0.5,0,0.9-0.1,1.1-0.3c0.3-0.2,0.4-0.5,0.4-0.9c0-0.3-0.1-0.6-0.4-0.8
		s-0.6-0.3-1.2-0.3h-1.6V455.9z"/>
	<path d="M295.4,453.4c0,0.5-0.1,1-0.2,1.4c-0.1,0.4-0.3,0.8-0.6,1.1c-0.3,0.3-0.6,0.5-0.9,0.7s-0.8,0.2-1.2,0.2
		c-0.4,0-0.8-0.1-1.2-0.2c-0.4-0.2-0.7-0.4-0.9-0.7c-0.3-0.3-0.5-0.6-0.6-1c-0.1-0.4-0.2-0.9-0.2-1.3c0-0.5,0.1-1,0.2-1.4
		c0.1-0.4,0.3-0.8,0.6-1.1s0.6-0.5,0.9-0.7c0.4-0.2,0.8-0.2,1.3-0.2c0.5,0,0.9,0.1,1.3,0.3c0.4,0.2,0.7,0.4,0.9,0.7
		c0.2,0.3,0.4,0.6,0.5,1C295.3,452.5,295.4,452.9,295.4,453.4z M290.3,453.4c0,0.4,0.1,0.7,0.2,1.1c0.1,0.3,0.3,0.6,0.4,0.8
		s0.4,0.4,0.7,0.6s0.5,0.2,0.9,0.2s0.6-0.1,0.9-0.2c0.3-0.1,0.5-0.3,0.7-0.6s0.3-0.5,0.4-0.8c0.1-0.3,0.2-0.7,0.2-1.1
		c0-0.4,0-0.8-0.1-1.1c-0.1-0.3-0.2-0.6-0.4-0.8c-0.2-0.2-0.4-0.4-0.7-0.5c-0.3-0.1-0.6-0.2-0.9-0.2c-0.7,0-1.2,0.2-1.6,0.7
		C290.5,452,290.3,452.6,290.3,453.4z"/>
	<path d="M300.9,453.3c0.1,0.1,0.3,0.2,0.4,0.3c0.1,0.1,0.2,0.3,0.3,0.4s0.1,0.4,0.1,0.6c0,0.4-0.1,0.7-0.2,0.9
		c-0.1,0.2-0.3,0.5-0.5,0.6c-0.2,0.2-0.4,0.3-0.7,0.3c-0.3,0.1-0.6,0.1-0.9,0.1h-2.5v-6.4h2.4c0.3,0,0.6,0,0.8,0.1
		c0.3,0.1,0.5,0.1,0.7,0.3c0.2,0.1,0.3,0.3,0.5,0.5c0.1,0.2,0.2,0.4,0.2,0.7c0,0.4-0.1,0.7-0.2,0.9s-0.4,0.4-0.7,0.5v0
		C300.6,453.2,300.7,453.3,300.9,453.3z M300.5,451.9c0-0.3-0.1-0.6-0.4-0.7s-0.6-0.2-1-0.2h-1.5v2h1.6c0.4,0,0.8-0.1,1-0.2
		C300.4,452.5,300.5,452.2,300.5,451.9z M297.6,455.9h1.6c0.5,0,0.9-0.1,1.1-0.3c0.3-0.2,0.4-0.5,0.4-0.9c0-0.3-0.1-0.6-0.4-0.8
		s-0.6-0.3-1.2-0.3h-1.6V455.9z"/>
	<path d="M306.9,456.6v-1.1c-0.1,0.2-0.2,0.4-0.4,0.5c-0.2,0.2-0.3,0.3-0.5,0.4c-0.2,0.1-0.4,0.2-0.6,0.2c-0.2,0-0.4,0.1-0.6,0.1
		c-0.6,0-1.1-0.2-1.4-0.5c-0.4-0.3-0.5-0.8-0.5-1.3c0-0.7,0.3-1.2,0.9-1.6c0.6-0.4,1.4-0.5,2.5-0.5c0.1,0,0.2,0,0.4,0
		c0.1,0,0.2,0,0.4,0v-0.1c0-0.7-0.1-1.1-0.3-1.4c-0.2-0.3-0.6-0.4-1.2-0.4c-0.3,0-0.6,0-0.9,0.1c-0.3,0.1-0.6,0.2-0.9,0.4v-0.8
		c0.3-0.1,0.6-0.3,0.9-0.3c0.3-0.1,0.7-0.1,1-0.1c0.7,0,1.2,0.2,1.6,0.5s0.6,0.9,0.6,1.5v3.2c0,0.2,0,0.4,0,0.6c0,0.2,0,0.4,0,0.6
		H306.9z M306.8,453.4c-0.1,0-0.1,0-0.2,0c-0.1,0-0.2,0-0.2,0c-0.3,0-0.5,0-0.9,0c-0.3,0-0.6,0.1-0.9,0.2c-0.3,0.1-0.5,0.2-0.7,0.4
		c-0.2,0.2-0.3,0.5-0.3,0.8c0,0.4,0.1,0.6,0.4,0.9c0.2,0.2,0.6,0.3,1,0.3c0.3,0,0.5,0,0.8-0.1c0.2-0.1,0.4-0.2,0.6-0.4
		c0.1-0.1,0.2-0.3,0.3-0.4c0.1-0.2,0.1-0.3,0.1-0.5c0-0.2,0-0.4,0-0.6S306.8,453.6,306.8,453.4z"/>
	<path d="M313.6,450.2h0.8v6.4h-0.8v-3h-3.4v3h-0.8v-6.4h0.8v2.7h3.4V450.2z"/>
	<path d="M321.5,450.2v6.4h-0.8v-5.3h0l-3.3,5.3h-0.9v-6.4h0.8v5.3h0l3.3-5.3H321.5z"/>
	<path d="M323.8,453.6c0,0.3,0,0.6,0.1,0.9c0.1,0.3,0.2,0.6,0.4,0.8s0.4,0.4,0.7,0.5c0.3,0.1,0.6,0.2,1,0.2c0.1,0,0.3,0,0.4,0
		c0.2,0,0.3-0.1,0.5-0.1s0.3-0.1,0.4-0.1s0.3-0.1,0.4-0.2l0.1,0.8c-0.3,0.1-0.6,0.2-1,0.3c-0.4,0.1-0.7,0.1-1,0.1
		c-0.4,0-0.8-0.1-1.2-0.2c-0.4-0.2-0.7-0.4-0.9-0.7c-0.3-0.3-0.4-0.6-0.6-1c-0.1-0.4-0.2-0.9-0.2-1.4c0-0.5,0.1-0.9,0.2-1.3
		s0.3-0.7,0.6-1c0.2-0.3,0.5-0.5,0.9-0.7c0.3-0.2,0.7-0.2,1.2-0.2c0.8,0,1.4,0.3,1.8,0.8s0.6,1.3,0.6,2.3v0.4H323.8z M327.5,453
		c0-0.3,0-0.6-0.1-0.9c-0.1-0.3-0.2-0.5-0.4-0.7c-0.2-0.2-0.3-0.3-0.5-0.4c-0.2-0.1-0.4-0.2-0.7-0.2c-0.6,0-1,0.2-1.4,0.6
		c-0.4,0.4-0.6,0.9-0.6,1.6H327.5z"/>
	<path d="M338.6,453.4c0,0.5-0.1,1-0.2,1.4c-0.1,0.4-0.3,0.8-0.6,1.1c-0.3,0.3-0.6,0.5-0.9,0.7s-0.8,0.2-1.2,0.2
		c-0.4,0-0.8-0.1-1.2-0.2c-0.4-0.2-0.7-0.4-0.9-0.7c-0.3-0.3-0.5-0.6-0.6-1c-0.1-0.4-0.2-0.9-0.2-1.3c0-0.5,0.1-1,0.2-1.4
		c0.1-0.4,0.3-0.8,0.6-1.1s0.6-0.5,0.9-0.7c0.4-0.2,0.8-0.2,1.3-0.2c0.5,0,0.9,0.1,1.3,0.3c0.4,0.2,0.7,0.4,0.9,0.7
		c0.2,0.3,0.4,0.6,0.5,1C338.6,452.5,338.6,452.9,338.6,453.4z M333.5,453.4c0,0.4,0.1,0.7,0.2,1.1c0.1,0.3,0.3,0.6,0.4,0.8
		s0.4,0.4,0.7,0.6s0.5,0.2,0.9,0.2s0.6-0.1,0.9-0.2c0.3-0.1,0.5-0.3,0.7-0.6s0.3-0.5,0.4-0.8c0.1-0.3,0.2-0.7,0.2-1.1
		c0-0.4,0-0.8-0.1-1.1c-0.1-0.3-0.2-0.6-0.4-0.8c-0.2-0.2-0.4-0.4-0.7-0.5c-0.3-0.1-0.6-0.2-0.9-0.2c-0.7,0-1.2,0.2-1.6,0.7
		C333.7,452,333.5,452.6,333.5,453.4z"/>
	<path d="M344.3,450.2h0.8v6.4h-0.8v-3h-3.4v3h-0.8v-6.4h0.8v2.7h3.4V450.2z"/>
	<path d="M351.9,456.6h-0.8v-5.7h-2.5v1.6c0,0.3,0,0.6,0,0.9c0,0.3,0,0.6-0.1,0.9c0,0.3-0.1,0.6-0.2,0.9c-0.1,0.3-0.2,0.5-0.3,0.8
		c-0.1,0.2-0.3,0.4-0.5,0.5s-0.5,0.2-0.8,0.2c-0.2,0-0.4,0-0.6-0.1l0-0.7c0.1,0,0.3,0.1,0.5,0.1c0.2,0,0.4-0.1,0.5-0.2
		c0.1-0.1,0.3-0.3,0.4-0.6c0.1-0.3,0.2-0.7,0.2-1.2c0-0.5,0.1-1.1,0.1-1.9v-1.8h4V456.6z"/>
	<path d="M357.6,456.6v-1.1c-0.1,0.2-0.2,0.4-0.4,0.5c-0.2,0.2-0.3,0.3-0.5,0.4c-0.2,0.1-0.4,0.2-0.6,0.2c-0.2,0-0.4,0.1-0.6,0.1
		c-0.6,0-1.1-0.2-1.4-0.5c-0.4-0.3-0.5-0.8-0.5-1.3c0-0.7,0.3-1.2,0.9-1.6c0.6-0.4,1.4-0.5,2.5-0.5c0.1,0,0.2,0,0.4,0
		c0.1,0,0.2,0,0.4,0v-0.1c0-0.7-0.1-1.1-0.3-1.4c-0.2-0.3-0.6-0.4-1.2-0.4c-0.3,0-0.6,0-0.9,0.1c-0.3,0.1-0.6,0.2-0.9,0.4v-0.8
		c0.3-0.1,0.6-0.3,0.9-0.3c0.3-0.1,0.7-0.1,1-0.1c0.7,0,1.2,0.2,1.6,0.5s0.6,0.9,0.6,1.5v3.2c0,0.2,0,0.4,0,0.6c0,0.2,0,0.4,0,0.6
		H357.6z M357.5,453.4c-0.1,0-0.1,0-0.2,0c-0.1,0-0.2,0-0.2,0c-0.3,0-0.5,0-0.9,0c-0.3,0-0.6,0.1-0.9,0.2c-0.3,0.1-0.5,0.2-0.7,0.4
		c-0.2,0.2-0.3,0.5-0.3,0.8c0,0.4,0.1,0.6,0.4,0.9c0.2,0.2,0.6,0.3,1,0.3c0.3,0,0.5,0,0.8-0.1c0.2-0.1,0.4-0.2,0.6-0.4
		c0.1-0.1,0.2-0.3,0.3-0.4c0.1-0.2,0.1-0.3,0.1-0.5c0-0.2,0-0.4,0-0.6S357.5,453.6,357.5,453.4z"/>
	<path d="M365.3,450.2v6.4h-0.8v-5.3h0l-3.3,5.3h-0.9v-6.4h0.8v5.3h0l3.3-5.3H365.3z M364.4,448.5c-0.1,0.1-0.2,0.2-0.4,0.3
		c-0.2,0.1-0.3,0.2-0.5,0.3c-0.2,0.1-0.4,0.1-0.7,0.1c-0.3,0-0.5,0-0.7-0.1c-0.2-0.1-0.4-0.2-0.5-0.3s-0.3-0.2-0.4-0.3
		c-0.1-0.1-0.2-0.2-0.3-0.3l0.4-0.5c0.1,0.1,0.1,0.1,0.2,0.2c0.1,0.1,0.2,0.2,0.3,0.2c0.1,0.1,0.3,0.1,0.4,0.2s0.3,0.1,0.5,0.1
		c0.2,0,0.4,0,0.5-0.1c0.2,0,0.3-0.1,0.4-0.2c0.1-0.1,0.2-0.2,0.3-0.2c0.1-0.1,0.2-0.2,0.2-0.2l0.4,0.5
		C364.6,448.3,364.5,448.4,364.4,448.5z"/>
	<path d="M371.4,450.2h0.8v6.4h-0.8v-3H368v3h-0.8v-6.4h0.8v2.7h3.4V450.2z"/>
	<path d="M376.8,452.8v0.8h-3.1v-0.8H376.8z"/>
	<path d="M378.4,456.6v-6.4h0.8v2.9l3-2.9h1l-3.1,3l3.5,3.4h-1.1l-3.3-3.3v3.3H378.4z"/>
	<path d="M388.2,456.6v-1.1c-0.1,0.2-0.2,0.4-0.4,0.5c-0.2,0.2-0.3,0.3-0.5,0.4c-0.2,0.1-0.4,0.2-0.6,0.2c-0.2,0-0.4,0.1-0.6,0.1
		c-0.6,0-1.1-0.2-1.4-0.5c-0.4-0.3-0.5-0.8-0.5-1.3c0-0.7,0.3-1.2,0.9-1.6c0.6-0.4,1.4-0.5,2.5-0.5c0.1,0,0.2,0,0.4,0
		c0.1,0,0.2,0,0.4,0v-0.1c0-0.7-0.1-1.1-0.3-1.4c-0.2-0.3-0.6-0.4-1.2-0.4c-0.3,0-0.6,0-0.9,0.1c-0.3,0.1-0.6,0.2-0.9,0.4v-0.8
		c0.3-0.1,0.6-0.3,0.9-0.3c0.3-0.1,0.7-0.1,1-0.1c0.7,0,1.2,0.2,1.6,0.5s0.6,0.9,0.6,1.5v3.2c0,0.2,0,0.4,0,0.6c0,0.2,0,0.4,0,0.6
		H388.2z M388.1,453.4c-0.1,0-0.1,0-0.2,0c-0.1,0-0.2,0-0.2,0c-0.3,0-0.5,0-0.9,0c-0.3,0-0.6,0.1-0.9,0.2c-0.3,0.1-0.5,0.2-0.7,0.4
		c-0.2,0.2-0.3,0.5-0.3,0.8c0,0.4,0.1,0.6,0.4,0.9c0.2,0.2,0.6,0.3,1,0.3c0.3,0,0.5,0,0.8-0.1c0.2-0.1,0.4-0.2,0.6-0.4
		c0.1-0.1,0.2-0.3,0.3-0.4c0.1-0.2,0.1-0.3,0.1-0.5c0-0.2,0-0.4,0-0.6S388.1,453.6,388.1,453.4z"/>
	<path d="M395,450.2h0.8v6.4H395v-3h-3.4v3h-0.8v-6.4h0.8v2.7h3.4V450.2z"/>
	<path d="M401.4,456.6v-1.1c-0.1,0.2-0.2,0.4-0.4,0.5c-0.2,0.2-0.3,0.3-0.5,0.4c-0.2,0.1-0.4,0.2-0.6,0.2c-0.2,0-0.4,0.1-0.6,0.1
		c-0.6,0-1.1-0.2-1.4-0.5c-0.4-0.3-0.5-0.8-0.5-1.3c0-0.7,0.3-1.2,0.9-1.6c0.6-0.4,1.4-0.5,2.5-0.5c0.1,0,0.2,0,0.4,0
		c0.1,0,0.2,0,0.4,0v-0.1c0-0.7-0.1-1.1-0.3-1.4c-0.2-0.3-0.6-0.4-1.2-0.4c-0.3,0-0.6,0-0.9,0.1c-0.3,0.1-0.6,0.2-0.9,0.4v-0.8
		c0.3-0.1,0.6-0.3,0.9-0.3c0.3-0.1,0.7-0.1,1-0.1c0.7,0,1.2,0.2,1.6,0.5s0.6,0.9,0.6,1.5v3.2c0,0.2,0,0.4,0,0.6c0,0.2,0,0.4,0,0.6
		H401.4z M401.3,453.4c-0.1,0-0.1,0-0.2,0c-0.1,0-0.2,0-0.2,0c-0.3,0-0.5,0-0.9,0c-0.3,0-0.6,0.1-0.9,0.2c-0.3,0.1-0.5,0.2-0.7,0.4
		c-0.2,0.2-0.3,0.5-0.3,0.8c0,0.4,0.1,0.6,0.4,0.9c0.2,0.2,0.6,0.3,1,0.3c0.3,0,0.5,0,0.8-0.1c0.2-0.1,0.4-0.2,0.6-0.4
		c0.1-0.1,0.2-0.3,0.3-0.4c0.1-0.2,0.1-0.3,0.1-0.5c0-0.2,0-0.4,0-0.6S401.3,453.6,401.3,453.4z"/>
	<path d="M408.9,456.6h-0.8v-5.7h-2.5v1.6c0,0.3,0,0.6,0,0.9c0,0.3,0,0.6-0.1,0.9c0,0.3-0.1,0.6-0.2,0.9c-0.1,0.3-0.2,0.5-0.3,0.8
		c-0.1,0.2-0.3,0.4-0.5,0.5s-0.5,0.2-0.8,0.2c-0.2,0-0.4,0-0.6-0.1l0-0.7c0.1,0,0.3,0.1,0.5,0.1c0.2,0,0.4-0.1,0.5-0.2
		c0.1-0.1,0.3-0.3,0.4-0.6c0.1-0.3,0.2-0.7,0.2-1.2c0-0.5,0.1-1.1,0.1-1.9v-1.8h4V456.6z"/>
	<path d="M416.4,453.4c0,0.5-0.1,1-0.2,1.4c-0.1,0.4-0.3,0.8-0.6,1.1c-0.3,0.3-0.6,0.5-0.9,0.7s-0.8,0.2-1.2,0.2
		c-0.4,0-0.8-0.1-1.2-0.2c-0.4-0.2-0.7-0.4-0.9-0.7c-0.3-0.3-0.5-0.6-0.6-1c-0.1-0.4-0.2-0.9-0.2-1.3c0-0.5,0.1-1,0.2-1.4
		c0.1-0.4,0.3-0.8,0.6-1.1s0.6-0.5,0.9-0.7c0.4-0.2,0.8-0.2,1.3-0.2c0.5,0,0.9,0.1,1.3,0.3c0.4,0.2,0.7,0.4,0.9,0.7
		c0.2,0.3,0.4,0.6,0.5,1C416.3,452.5,416.4,452.9,416.4,453.4z M411.3,453.4c0,0.4,0.1,0.7,0.2,1.1c0.1,0.3,0.3,0.6,0.4,0.8
		s0.4,0.4,0.7,0.6s0.5,0.2,0.9,0.2s0.6-0.1,0.9-0.2c0.3-0.1,0.5-0.3,0.7-0.6s0.3-0.5,0.4-0.8c0.1-0.3,0.2-0.7,0.2-1.1
		c0-0.4,0-0.8-0.1-1.1c-0.1-0.3-0.2-0.6-0.4-0.8c-0.2-0.2-0.4-0.4-0.7-0.5c-0.3-0.1-0.6-0.2-0.9-0.2c-0.7,0-1.2,0.2-1.6,0.7
		C411.5,452,411.3,452.6,411.3,453.4z"/>
	<path d="M421.9,453.3c0.1,0.1,0.3,0.2,0.4,0.3c0.1,0.1,0.2,0.3,0.3,0.4s0.1,0.4,0.1,0.6c0,0.4-0.1,0.7-0.2,0.9
		c-0.1,0.2-0.3,0.5-0.5,0.6c-0.2,0.2-0.4,0.3-0.7,0.3c-0.3,0.1-0.6,0.1-0.9,0.1h-2.5v-6.4h2.4c0.3,0,0.6,0,0.8,0.1
		c0.3,0.1,0.5,0.1,0.7,0.3c0.2,0.1,0.3,0.3,0.5,0.5c0.1,0.2,0.2,0.4,0.2,0.7c0,0.4-0.1,0.7-0.2,0.9s-0.4,0.4-0.7,0.5v0
		C421.6,453.2,421.7,453.3,421.9,453.3z M421.5,451.9c0-0.3-0.1-0.6-0.4-0.7s-0.6-0.2-1-0.2h-1.5v2h1.6c0.4,0,0.8-0.1,1-0.2
		C421.4,452.5,421.5,452.2,421.5,451.9z M418.6,455.9h1.6c0.5,0,0.9-0.1,1.1-0.3c0.3-0.2,0.4-0.5,0.4-0.9c0-0.3-0.1-0.6-0.4-0.8
		s-0.6-0.3-1.2-0.3h-1.6V455.9z"/>
	<path d="M430.4,450.2c0.5,0,0.9,0.1,1.3,0.3c0.4,0.2,0.7,0.4,0.9,0.7c0.2,0.3,0.4,0.6,0.5,1c0.1,0.4,0.2,0.8,0.2,1.3
		c0,0.5-0.1,1-0.2,1.4c-0.1,0.4-0.3,0.8-0.6,1c-0.3,0.3-0.6,0.5-0.9,0.7c-0.4,0.2-0.8,0.2-1.2,0.2c-0.6,0-1.2-0.2-1.6-0.5
		s-0.8-0.7-1-1.2c-0.1-0.3-0.2-0.6-0.3-0.9c-0.1-0.3-0.1-0.7-0.1-1c0-0.5,0-0.9,0-1.4c0-0.5,0.1-0.9,0.2-1.3
		c0.1-0.4,0.2-0.8,0.3-1.1c0.2-0.3,0.4-0.6,0.6-0.9c0.3-0.3,0.6-0.5,1-0.6c0.3-0.1,0.7-0.2,1.1-0.3c0.4-0.1,0.8-0.1,1.1-0.1
		c0.4,0,0.7-0.1,1.1-0.2l-0.1,0.8c-0.3,0.1-0.6,0.1-0.9,0.2c-0.3,0-0.7,0.1-1,0.1c-0.3,0-0.7,0.1-1,0.2c-0.3,0.1-0.6,0.2-0.8,0.4
		c-0.2,0.2-0.4,0.5-0.5,0.7c-0.1,0.3-0.3,0.5-0.3,0.8c-0.1,0.3-0.1,0.6-0.2,0.9c0,0.3-0.1,0.6-0.1,0.9h0c0.1-0.2,0.2-0.4,0.3-0.6
		s0.3-0.4,0.5-0.6s0.4-0.4,0.7-0.5C429.6,450.3,429.9,450.2,430.4,450.2z M430.3,456.1c0.3,0,0.6-0.1,0.8-0.2
		c0.3-0.1,0.5-0.3,0.7-0.5s0.3-0.5,0.4-0.8c0.1-0.3,0.2-0.7,0.2-1.1c0-0.8-0.2-1.4-0.6-1.9c-0.4-0.5-0.9-0.7-1.5-0.7
		c-0.3,0-0.6,0.1-0.9,0.2s-0.5,0.3-0.7,0.5c-0.2,0.2-0.4,0.5-0.5,0.8c-0.1,0.3-0.2,0.7-0.2,1.1c0,0.4,0.1,0.7,0.2,1s0.3,0.6,0.5,0.8
		c0.2,0.2,0.4,0.4,0.7,0.5C429.7,456,430,456.1,430.3,456.1z"/>
	<path d="M438.3,456.6v-1.1c-0.1,0.2-0.2,0.4-0.4,0.5c-0.2,0.2-0.3,0.3-0.5,0.4c-0.2,0.1-0.4,0.2-0.6,0.2c-0.2,0-0.4,0.1-0.6,0.1
		c-0.6,0-1.1-0.2-1.4-0.5c-0.4-0.3-0.5-0.8-0.5-1.3c0-0.7,0.3-1.2,0.9-1.6c0.6-0.4,1.4-0.5,2.5-0.5c0.1,0,0.2,0,0.4,0
		c0.1,0,0.2,0,0.4,0v-0.1c0-0.7-0.1-1.1-0.3-1.4c-0.2-0.3-0.6-0.4-1.2-0.4c-0.3,0-0.6,0-0.9,0.1c-0.3,0.1-0.6,0.2-0.9,0.4v-0.8
		c0.3-0.1,0.6-0.3,0.9-0.3c0.3-0.1,0.7-0.1,1-0.1c0.7,0,1.2,0.2,1.6,0.5s0.6,0.9,0.6,1.5v3.2c0,0.2,0,0.4,0,0.6c0,0.2,0,0.4,0,0.6
		H438.3z M438.2,453.4c-0.1,0-0.1,0-0.2,0c-0.1,0-0.2,0-0.2,0c-0.3,0-0.5,0-0.9,0c-0.3,0-0.6,0.1-0.9,0.2c-0.3,0.1-0.5,0.2-0.7,0.4
		c-0.2,0.2-0.3,0.5-0.3,0.8c0,0.4,0.1,0.6,0.4,0.9c0.2,0.2,0.6,0.3,1,0.3c0.3,0,0.5,0,0.8-0.1c0.2-0.1,0.4-0.2,0.6-0.4
		c0.1-0.1,0.2-0.3,0.3-0.4c0.1-0.2,0.1-0.3,0.1-0.5c0-0.2,0-0.4,0-0.6S438.2,453.6,438.2,453.4z"/>
	<path d="M445.1,450.2h0.8v6.4h-0.8v-3h-3.4v3h-0.8v-6.4h0.8v2.7h3.4V450.2z"/>
	<path d="M447.8,456.6v-6.4h0.8v2.9l3-2.9h1l-3.1,3l3.5,3.4H452l-3.3-3.3v3.3H447.8z"/>
	<path d="M457.7,456.6v-1.1c-0.1,0.2-0.2,0.4-0.4,0.5c-0.2,0.2-0.3,0.3-0.5,0.4c-0.2,0.1-0.4,0.2-0.6,0.2c-0.2,0-0.4,0.1-0.6,0.1
		c-0.6,0-1.1-0.2-1.4-0.5c-0.4-0.3-0.5-0.8-0.5-1.3c0-0.7,0.3-1.2,0.9-1.6c0.6-0.4,1.4-0.5,2.5-0.5c0.1,0,0.2,0,0.4,0
		c0.1,0,0.2,0,0.4,0v-0.1c0-0.7-0.1-1.1-0.3-1.4c-0.2-0.3-0.6-0.4-1.2-0.4c-0.3,0-0.6,0-0.9,0.1c-0.3,0.1-0.6,0.2-0.9,0.4v-0.8
		c0.3-0.1,0.6-0.3,0.9-0.3c0.3-0.1,0.7-0.1,1-0.1c0.7,0,1.2,0.2,1.6,0.5s0.6,0.9,0.6,1.5v3.2c0,0.2,0,0.4,0,0.6c0,0.2,0,0.4,0,0.6
		H457.7z M457.6,453.4c-0.1,0-0.1,0-0.2,0c-0.1,0-0.2,0-0.2,0c-0.3,0-0.5,0-0.9,0c-0.3,0-0.6,0.1-0.9,0.2c-0.3,0.1-0.5,0.2-0.7,0.4
		c-0.2,0.2-0.3,0.5-0.3,0.8c0,0.4,0.1,0.6,0.4,0.9c0.2,0.2,0.6,0.3,1,0.3c0.3,0,0.5,0,0.8-0.1c0.2-0.1,0.4-0.2,0.6-0.4
		c0.1-0.1,0.2-0.3,0.3-0.4c0.1-0.2,0.1-0.3,0.1-0.5c0-0.2,0-0.4,0-0.6S457.6,453.6,457.6,453.4z"/>
</g>
<rect x="245.8" y="463.5" class="st11" width="176.2" height="35.9"/>
<rect x="245.8" y="463.5" class="st2" width="176.2" height="35.9"/>
<g>
	<path d="M275.7,477.8v1.4h-3.5v1.9h1.1c0.5,0,0.9,0.1,1.3,0.2c0.4,0.1,0.7,0.3,1,0.5s0.5,0.5,0.6,0.9c0.2,0.3,0.2,0.8,0.2,1.2
		c0,0.5-0.1,0.9-0.3,1.2c-0.2,0.3-0.4,0.6-0.7,0.8s-0.6,0.4-1,0.5c-0.4,0.1-0.8,0.1-1.2,0.1h-2.9v-8.7H275.7z M274.7,483.8
		c0-0.2,0-0.5-0.1-0.6c-0.1-0.2-0.2-0.3-0.4-0.4c-0.2-0.1-0.3-0.1-0.5-0.2c-0.2,0-0.4,0-0.6,0h-0.8v2.5h0.8c0.2,0,0.4,0,0.6-0.1
		c0.2,0,0.4-0.1,0.5-0.2s0.3-0.2,0.4-0.4C274.6,484.3,274.7,484.1,274.7,483.8z"/>
	<path d="M281.7,486.5l0-0.9c-0.2,0.4-0.5,0.6-0.8,0.8s-0.8,0.2-1.2,0.2c-0.7,0-1.2-0.2-1.6-0.5s-0.6-0.8-0.6-1.5
		c0-1.4,1.1-2.1,3.2-2.1c0.1,0,0.3,0,0.4,0c0.1,0,0.3,0,0.5,0v0c0-0.9-0.5-1.4-1.4-1.4c-0.3,0-0.7,0.1-1,0.2s-0.7,0.3-1,0.5l0-1.4
		c0.3-0.2,0.7-0.3,1.1-0.3c0.4-0.1,0.8-0.1,1.1-0.1c0.2,0,0.5,0,0.7,0.1s0.5,0.1,0.7,0.2c0.2,0.1,0.4,0.2,0.6,0.4
		c0.2,0.2,0.3,0.4,0.4,0.6c0,0.1,0.1,0.2,0.1,0.3s0.1,0.2,0.1,0.4c0,0.2,0,0.3,0,0.5c0,0.2,0,0.5,0,0.7v0.9c0,0.3,0,0.5,0,0.7
		c0,0.2,0,0.4,0,0.6c0,0.2,0,0.4,0,0.5c0,0.2,0,0.4,0,0.5H281.7z M281.7,483.6c-0.1,0-0.2,0-0.3,0c-0.1,0-0.1,0-0.2,0
		c-1.4,0-2.1,0.4-2.1,1.1c0,0.2,0.1,0.4,0.3,0.6c0.2,0.2,0.4,0.2,0.7,0.2s0.6-0.1,0.8-0.2c0.2-0.2,0.4-0.4,0.6-0.7
		c0.1-0.1,0.1-0.3,0.1-0.4C281.6,484,281.7,483.8,281.7,483.6z"/>
	<path d="M289.1,486.5v-2.7h-2.6v2.7h-1.7v-6.4h1.7v2.4h2.6v-2.4h1.7v6.4H289.1z"/>
	<path d="M298.2,480.1l-2.4,3.1l2.7,3.4h-2.1l-2.2-3.1v3.1h-1.7v-6.4h1.7v2.9l2.1-2.9H298.2z"/>
	<path d="M305.7,483.3c0,0.5-0.1,1-0.2,1.4c-0.2,0.4-0.4,0.8-0.7,1.1s-0.6,0.5-1.1,0.7c-0.4,0.2-0.9,0.2-1.4,0.2
		c-0.5,0-0.9-0.1-1.4-0.3c-0.4-0.2-0.8-0.4-1.1-0.7c-0.3-0.3-0.5-0.7-0.7-1.1s-0.2-0.9-0.2-1.4c0-0.5,0.1-1,0.2-1.4s0.4-0.8,0.7-1.1
		c0.3-0.3,0.6-0.5,1.1-0.7c0.4-0.2,0.9-0.2,1.4-0.2s1,0.1,1.4,0.2c0.4,0.2,0.8,0.4,1,0.7c0.3,0.3,0.5,0.7,0.7,1.1
		C305.6,482.4,305.7,482.8,305.7,483.3z M300.8,483.3c0,0.3,0,0.5,0.1,0.7c0.1,0.2,0.1,0.5,0.3,0.7c0.1,0.2,0.3,0.4,0.5,0.5
		c0.2,0.1,0.4,0.2,0.7,0.2c0.5,0,0.9-0.2,1.2-0.6c0.3-0.4,0.4-0.9,0.4-1.6c0-0.7-0.1-1.2-0.4-1.5c-0.3-0.4-0.7-0.6-1.2-0.6
		c-0.3,0-0.6,0.1-0.8,0.2s-0.4,0.3-0.5,0.5c-0.1,0.2-0.2,0.4-0.3,0.7C300.8,482.8,300.8,483.1,300.8,483.3z"/>
	<path d="M312.6,484.7c0,0.6-0.2,1.1-0.6,1.4s-1,0.4-1.8,0.4H307v-6.4h3.3c0.4,0,0.7,0,1,0.1c0.3,0.1,0.5,0.2,0.6,0.3
		c0.2,0.1,0.3,0.3,0.3,0.5c0.1,0.2,0.1,0.4,0.1,0.6c0,0.2,0,0.4-0.1,0.6c-0.1,0.2-0.2,0.3-0.3,0.4c-0.1,0.1-0.2,0.2-0.4,0.3
		c-0.1,0.1-0.3,0.1-0.4,0.1v0c0.1,0,0.3,0,0.4,0.1c0.2,0.1,0.3,0.1,0.5,0.3c0.1,0.1,0.3,0.3,0.4,0.5
		C312.6,484.2,312.6,484.4,312.6,484.7z M310.8,481.9c0-0.1,0-0.2-0.1-0.3c-0.1-0.1-0.1-0.2-0.2-0.2c-0.1,0-0.2-0.1-0.3-0.1
		c-0.1,0-0.2,0-0.4,0h-1.2v1.4h1.3c0.3,0,0.5,0,0.6-0.1C310.7,482.4,310.8,482.2,310.8,481.9z M310.9,484.5c0-0.2,0-0.3-0.1-0.4
		c-0.1-0.1-0.1-0.2-0.2-0.2c-0.1-0.1-0.2-0.1-0.3-0.1c-0.1,0-0.2,0-0.3,0h-1.3v1.5h1.3c0.3,0,0.5-0.1,0.7-0.2
		C310.8,485,310.9,484.8,310.9,484.5z"/>
	<path d="M318.1,481.6c-0.1-0.1-0.3-0.1-0.5-0.2c-0.2,0-0.4-0.1-0.5-0.1c-0.3,0-0.5,0-0.7,0.1s-0.4,0.2-0.6,0.4
		c-0.2,0.2-0.3,0.4-0.4,0.6c-0.1,0.2-0.1,0.5-0.1,0.8c0,0.3,0,0.6,0.1,0.8c0.1,0.2,0.2,0.4,0.4,0.6s0.3,0.3,0.6,0.4
		c0.2,0.1,0.5,0.1,0.7,0.1c0.2,0,0.4,0,0.6-0.1c0.2,0,0.4-0.1,0.6-0.2l0.1,1.4c-0.2,0.1-0.5,0.1-0.7,0.2s-0.5,0.1-0.8,0.1
		c-0.5,0-1-0.1-1.4-0.2c-0.4-0.2-0.8-0.4-1-0.6c-0.3-0.3-0.5-0.6-0.7-1s-0.2-0.8-0.2-1.3c0-0.5,0.1-0.9,0.2-1.3
		c0.2-0.4,0.4-0.7,0.7-1c0.3-0.3,0.6-0.5,1-0.7s0.8-0.2,1.3-0.2c0.2,0,0.5,0,0.7,0.1c0.3,0,0.5,0.1,0.7,0.2L318.1,481.6z"/>
	<path d="M325.2,480.1l-2.4,3.1l2.7,3.4h-2.1l-2.2-3.1v3.1h-1.7v-6.4h1.7v2.9l2.1-2.9H325.2z"/>
	<path d="M330.9,486.5v-4.3h0l-2.5,4.3h-1.8v-6.4h1.6v4.3h0l2.5-4.3h1.8v6.4H330.9z"/>
	<path d="M335.4,483.8c0,0.3,0.1,0.5,0.2,0.7c0.1,0.2,0.2,0.4,0.4,0.5c0.2,0.1,0.4,0.2,0.6,0.3c0.2,0.1,0.5,0.1,0.7,0.1
		c0.3,0,0.7,0,1-0.1c0.3-0.1,0.7-0.3,1.1-0.5v1.4c-0.1,0.1-0.2,0.1-0.4,0.2s-0.3,0.1-0.5,0.2c-0.2,0-0.4,0.1-0.6,0.1s-0.4,0-0.6,0
		c-1.1,0-1.9-0.3-2.5-0.9c-0.6-0.6-0.9-1.4-0.9-2.5c0-0.5,0.1-1,0.2-1.4s0.4-0.8,0.6-1.1c0.3-0.3,0.6-0.5,1-0.7
		c0.4-0.2,0.8-0.2,1.3-0.2c0.5,0,1,0.1,1.4,0.3c0.4,0.2,0.7,0.5,0.9,0.8c0.2,0.3,0.4,0.7,0.5,1.1c0.1,0.4,0.1,0.9,0.1,1.3
		c0,0.1,0,0.1,0,0.2s0,0.1,0,0.2H335.4z M338.3,482.7c0-0.5-0.2-0.9-0.4-1.2c-0.2-0.3-0.6-0.4-1-0.4c-0.4,0-0.7,0.1-1,0.4
		c-0.2,0.3-0.4,0.7-0.4,1.2H338.3z"/>
	<path d="M346.3,489.1h-1.7V482c0-0.3,0-0.6,0-0.9c0-0.3,0-0.6,0-0.9h1.6l0,1c0.2-0.4,0.5-0.6,0.9-0.8c0.3-0.2,0.7-0.3,1.2-0.3
		c0.4,0,0.8,0.1,1.1,0.2c0.3,0.2,0.6,0.4,0.8,0.6c0.2,0.3,0.4,0.6,0.5,1c0.1,0.4,0.2,0.8,0.2,1.3c0,1.1-0.2,1.9-0.7,2.5
		c-0.5,0.6-1.1,0.9-2,0.9c-0.9,0-1.5-0.3-1.9-1V489.1z M346.3,483.3c0,0.6,0.1,1.1,0.4,1.4s0.6,0.5,1,0.5c0.4,0,0.8-0.2,1-0.6
		c0.3-0.4,0.4-0.9,0.4-1.5c0-0.6-0.1-1.1-0.4-1.4s-0.6-0.5-1-0.5c-0.5,0-0.8,0.2-1.1,0.5C346.5,482.2,346.3,482.7,346.3,483.3z"/>
	<path d="M353.5,483.8c0,0.3,0.1,0.5,0.2,0.7c0.1,0.2,0.2,0.4,0.4,0.5c0.2,0.1,0.4,0.2,0.6,0.3c0.2,0.1,0.5,0.1,0.7,0.1
		c0.3,0,0.7,0,1-0.1c0.3-0.1,0.7-0.3,1.1-0.5v1.4c-0.1,0.1-0.2,0.1-0.4,0.2s-0.3,0.1-0.5,0.2c-0.2,0-0.4,0.1-0.6,0.1s-0.4,0-0.6,0
		c-1.1,0-1.9-0.3-2.5-0.9c-0.6-0.6-0.9-1.4-0.9-2.5c0-0.5,0.1-1,0.2-1.4s0.4-0.8,0.6-1.1c0.3-0.3,0.6-0.5,1-0.7
		c0.4-0.2,0.8-0.2,1.3-0.2c0.5,0,1,0.1,1.4,0.3c0.4,0.2,0.7,0.5,0.9,0.8c0.2,0.3,0.4,0.7,0.5,1.1c0.1,0.4,0.1,0.9,0.1,1.3
		c0,0.1,0,0.1,0,0.2s0,0.1,0,0.2H353.5z M356.3,482.7c0-0.5-0.2-0.9-0.4-1.2c-0.2-0.3-0.6-0.4-1-0.4c-0.4,0-0.7,0.1-1,0.4
		c-0.2,0.3-0.4,0.7-0.4,1.2H356.3z"/>
	<path d="M359.2,486.5v-6.4h1.7v5.2h2.1v-5.2h1.7v5.2h2.1v-5.2h1.7v6.4H359.2z"/>
	<path d="M371.3,483.8c0,0.3,0.1,0.5,0.2,0.7c0.1,0.2,0.2,0.4,0.4,0.5c0.2,0.1,0.4,0.2,0.6,0.3c0.2,0.1,0.5,0.1,0.7,0.1
		c0.3,0,0.7,0,1-0.1c0.3-0.1,0.7-0.3,1.1-0.5v1.4c-0.1,0.1-0.2,0.1-0.4,0.2s-0.3,0.1-0.5,0.2c-0.2,0-0.4,0.1-0.6,0.1s-0.4,0-0.6,0
		c-1.1,0-1.9-0.3-2.5-0.9c-0.6-0.6-0.9-1.4-0.9-2.5c0-0.5,0.1-1,0.2-1.4s0.4-0.8,0.6-1.1c0.3-0.3,0.6-0.5,1-0.7
		c0.4-0.2,0.8-0.2,1.3-0.2c0.5,0,1,0.1,1.4,0.3c0.4,0.2,0.7,0.5,0.9,0.8c0.2,0.3,0.4,0.7,0.5,1.1c0.1,0.4,0.1,0.9,0.1,1.3
		c0,0.1,0,0.1,0,0.2s0,0.1,0,0.2H371.3z M374.1,482.7c0-0.5-0.2-0.9-0.4-1.2c-0.2-0.3-0.6-0.4-1-0.4c-0.4,0-0.7,0.1-1,0.4
		c-0.2,0.3-0.4,0.7-0.4,1.2H374.1z"/>
	<path d="M381.2,486.5v-2.7h-2.6v2.7H377v-6.4h1.7v2.4h2.6v-2.4h1.7v6.4H381.2z"/>
	<path d="M389,486.5v-4.3h0l-2.5,4.3h-1.8v-6.4h1.6v4.3h0l2.5-4.3h1.8v6.4H389z"/>
	<path d="M395.9,486.5v-2.3h-0.6c-0.3,0-0.5,0-0.7,0.1s-0.3,0.2-0.4,0.5l-0.7,1.7h-1.9l0.9-1.9c0.1-0.3,0.3-0.5,0.4-0.6
		c0.2-0.1,0.4-0.2,0.7-0.3v0c-0.2,0-0.4-0.1-0.5-0.1c-0.2-0.1-0.3-0.2-0.5-0.3s-0.3-0.3-0.4-0.5s-0.1-0.5-0.1-0.8
		c0-0.6,0.2-1,0.6-1.3c0.4-0.3,0.9-0.5,1.6-0.5h3.3v6.4H395.9z M395.9,481.3h-1.3c-0.2,0-0.4,0.1-0.6,0.2s-0.3,0.3-0.3,0.6
		c0,0.2,0,0.3,0.1,0.4s0.2,0.2,0.3,0.3c0.1,0.1,0.2,0.1,0.3,0.2c0.1,0,0.2,0,0.3,0h1.1V481.3z"/>
</g>
<line class="st2" x1="334" y1="322.2" x2="334" y2="139.4"/>
<polygon class="st3" points="338.2,140.8 334,132.5 329.9,140.8 "/>
<path class="st10" d="M405.9,217h-38.8c-1.2,0-2.2,1-2.2,2.4v52.2c0,1.4,1,2.4,2.2,2.4h38.8c1.2,0,2.2-1,2.2-2.4v-52.2
	C408.1,218,407.1,217,405.9,217 M381.4,220c0-0.4,0.4-0.6,0.6-0.6h9c0.2,0,0.6,0.2,0.6,0.6v0.6c0,0.4-0.4,0.6-0.6,0.6h-9
	c-0.2,0-0.6-0.2-0.6-0.6V220z M386.5,272.4c-1,0-2-1-2-2c0-1,1-2,2-2s2,1,2,2C388.5,271.4,387.5,272.4,386.5,272.4 M404.5,266.7
	h-35.9v-43.2h35.9V266.7z"/>
<path class="st10" d="M375.7,232.5h-0.1l-0.2,0l-0.2,0l-0.1,0.1l-0.1,0.1l-0.1,0.1l-0.1,0.1l-0.1,0.1l0,0.2l0,0.2l0,0.2l0.1,0.2
	l0.1,0.2l1.7,2.8h-0.8l-0.2,0l-0.1,0.1l-0.1,0.1l-0.1,0.1l0,0.2l0,0.2l0.1,0.1l0.1,0.1l0.1,0.1l0.2,0h1.4l0.2,0.4v0.4h-1.6l-0.2,0
	l-0.1,0.1l-0.1,0.1l-0.1,0.1l0,0.2l0,0.2l0.1,0.1l0.1,0.1l0.1,0.1l0.2,0h1.6v1.3l0,0.2l0.1,0.2l0.1,0.2l0.1,0.2l0.1,0.1l0.2,0.1
	l0.2,0l0.2,0l0.2,0l0.2,0l0.2-0.1l0.2-0.1l0.1-0.2l0.1-0.2l0-0.2l0-0.2v-1.3h1.6l0.2,0l0.1-0.1l0.1-0.1l0.1-0.1l0-0.2l0-0.2
	l-0.1-0.1l-0.1-0.1l-0.1-0.1l-0.2,0h-1.6v-0.4l0.2-0.4h1.4l0.2,0l0.1-0.1l0.1-0.1l0.1-0.1l0-0.2l0-0.2l-0.1-0.1l-0.1-0.1l-0.1-0.1
	l-0.2,0h-0.8l1.7-2.8l0.1-0.2l0.1-0.2l0-0.2l0-0.2L382,233l-0.1-0.1l-0.1-0.1l-0.1-0.1l-0.1-0.1l-0.2-0.1l-0.2,0l-0.2,0H381l-0.2,0
	l-0.2,0l-0.1,0.1l-0.1,0.1l-0.1,0.1l-0.1,0.1l-0.1,0.1l0,0.1l-1.7,3.3l-1.7-3.3l0-0.1l-0.1-0.1l-0.1-0.1l-0.1-0.1l-0.1-0.1l-0.1-0.1
	l-0.2,0L375.7,232.5z M378.4,229.3l0.7,0l0.7,0.1l0.7,0.1l0.6,0.2l0.6,0.3l0.6,0.3l0.6,0.3l0.5,0.4l0.5,0.4l0.4,0.5l0.4,0.5l0.4,0.5
	l0.3,0.6l0.3,0.6l0.2,0.6l0.2,0.7l-0.4,0.6l-0.3,0.6l-0.3,0.7l-0.3,0.7l-0.2,0.7l-0.1,0.7l-0.1,0.7l-0.8,0.2l-0.8,0.2l-0.8,0.3
	l-0.8,0.3l-0.7,0.4l-0.7,0.4l-0.7,0.5l-0.6,0.5l-0.6,0.6l-0.5,0.6l-0.5,0.7l-0.6-0.2l-0.6-0.2l-0.6-0.3l-0.6-0.3l-0.5-0.4l-0.5-0.4
	l-0.5-0.5l-0.4-0.5l-0.4-0.5l-0.4-0.6l-0.3-0.6l-0.3-0.6l-0.2-0.6l-0.1-0.7l-0.1-0.7l0-0.7l0-0.7l0.1-0.7l0.2-0.7l0.2-0.7l0.3-0.6
	l0.3-0.6l0.4-0.6l0.4-0.5l0.4-0.5l0.5-0.5l0.5-0.4l0.6-0.4l0.6-0.3l0.6-0.3l0.6-0.2l0.7-0.2l0.7-0.1L378.4,229.3z"/>
<polygon class="st10" points="394,233.3 394.7,233.3 395.4,233.4 396,233.5 396.7,233.7 397.3,234 397.9,234.3 398.5,234.7 
	399,235.1 399.5,235.5 400,236 400.4,236.6 400.7,237.1 401.1,237.7 401.3,238.3 401.5,239 401.7,239.6 401.8,240.3 401.8,241 
	401.8,241.7 401.7,242.4 401.5,243.1 401.3,243.8 401.1,244.4 400.7,245 400.4,245.5 400,246.1 399.5,246.5 399,247 398.5,247.4 
	397.9,247.8 397.3,248.1 397.1,247.5 396.8,246.9 396.5,246.3 396.2,245.7 396.4,245.7 396.6,245.6 396.9,245.6 397,245.5 
	397.2,245.3 397.4,245.2 397.4,245 397.5,244.8 397.5,244.6 397.5,244.4 397.5,244.2 397.4,244.1 397.3,244 397.1,243.9 397,243.8 
	396.8,243.8 396.7,243.8 396.5,243.8 396.3,243.9 396.1,243.9 396,243.9 395.8,243.9 395.6,243.9 395.3,243.9 395,243.8 
	394.8,243.8 394.4,243.4 394,243 393.6,242.6 393.7,242.3 393.7,242 393.7,241.9 393.6,241.7 394.7,241.7 394.9,241.7 395.1,241.7 
	395.2,241.6 395.3,241.5 395.4,241.4 395.5,241.3 395.5,241.1 395.5,240.9 395.4,240.8 395.3,240.7 395.2,240.6 395.1,240.5 
	394.9,240.5 394.7,240.5 393.3,240.5 393.1,240.2 393,240 392.9,239.7 392.9,239.5 392.8,239.2 392.9,239 392.9,238.8 393,238.6 
	393.1,238.4 393.3,238.3 393.5,238.1 393.7,238.1 393.9,238 394.1,237.9 394.3,237.9 394.6,237.9 394.8,238 395,238 395.2,238.1 
	395.3,238.2 395.4,238.3 395.5,238.5 395.6,238.6 395.7,238.7 395.7,238.8 395.8,239 395.8,239.1 395.9,239.2 396,239.3 
	396.1,239.4 396.2,239.4 396.3,239.5 396.5,239.5 396.7,239.5 396.9,239.4 397.1,239.4 397.2,239.3 397.3,239.1 397.4,239 
	397.5,238.8 397.5,238.6 397.5,238.4 397.4,238.2 397.3,237.9 397.2,237.7 397.1,237.5 396.9,237.3 396.7,237.1 396.4,236.9 
	396.1,236.8 395.8,236.6 395.4,236.5 395,236.4 394.6,236.4 394.1,236.4 393.7,236.4 393.2,236.5 392.8,236.6 392.5,236.7 
	392.1,236.9 391.8,237.1 391.5,237.4 391.3,237.7 391.1,238 391,238.3 390.9,238.7 390.9,239.1 390.9,239.4 390.9,239.7 391,240 
	391.1,240.2 391.2,240.5 391,240.5 390.8,240.5 390.7,240.5 390.6,240.6 390.5,240.7 390.4,240.8 389.8,240.6 389.1,240.4 
	388.4,240.2 387.7,240.1 386.9,240 386.2,240 386.3,239.3 386.5,238.7 386.7,238.1 387,237.5 387.3,236.9 387.7,236.4 388.1,235.9 
	388.5,235.4 389,235 389.5,234.6 390.1,234.3 390.7,234 391.3,233.7 391.9,233.5 392.6,233.4 393.3,233.3 "/>
<polygon class="st10" points="386.7,252.7 386.9,252.8 387.1,252.8 387.4,252.9 387.6,253 387.8,253.1 388,253.2 388.2,253.3 
	388.3,253.5 388.5,253.6 388.6,253.8 388.7,254.1 388.7,254.3 388.7,254.6 388.6,254.8 388.5,255 388.4,255.2 388.2,255.3 
	388,255.5 387.8,255.6 387.6,255.7 387.4,255.8 387.2,255.8 386.9,255.9 386.7,255.9 "/>
<polygon class="st10" points="385.7,247.4 385.7,250.4 385.3,250.3 384.9,250.2 384.7,250.1 384.4,249.9 384.2,249.7 384,249.6 
	383.9,249.3 383.9,249.1 383.8,248.8 383.9,248.6 384,248.4 384.1,248.1 384.2,247.9 384.5,247.8 384.7,247.6 385,247.5 
	385.3,247.4 "/>
<path class="st10" d="M386.2,244.4l-0.1,0l-0.1,0.1l-0.1,0.1l-0.1,0.1l0,0.1l0,0.1v0.9l-0.4,0l-0.4,0.1l-0.4,0.1l-0.4,0.1l-0.3,0.1
	l-0.3,0.2l-0.3,0.2l-0.3,0.2l-0.2,0.3l-0.2,0.3l-0.2,0.3l-0.2,0.3l-0.1,0.4l-0.1,0.4l0,0.4l0,0.4l0.1,0.4l0.1,0.4l0.2,0.3l0.2,0.3
	l0.3,0.3l0.3,0.3l0.3,0.2l0.4,0.2l0.4,0.2l0.5,0.2l0.5,0.1l0.5,0.1v3.4l-0.3,0l-0.3-0.1l-0.3-0.1l-0.2-0.1l-0.2-0.1l-0.1-0.1
	l-0.1-0.1l-0.1-0.1L384,255l-0.1-0.2l-0.1-0.2l-0.1-0.2l0-0.2l-0.1-0.2l-0.1-0.1l-0.1-0.1l-0.1-0.1l-0.1-0.1l-0.1-0.1l-0.2-0.1
	l-0.2,0l-0.2,0l-0.3,0l-0.2,0.1l-0.2,0.1l-0.1,0.2l-0.1,0.2l-0.1,0.2l0,0.3l0,0.3l0.1,0.3l0.1,0.3l0.1,0.3l0.2,0.3l0.2,0.3l0.2,0.2
	l0.3,0.2l0.3,0.2l0.3,0.2l0.4,0.2l0.4,0.1l0.5,0.1l0.5,0.1l0.5,0v1l0,0.1l0,0.1l0.1,0.1l0.1,0.1l0.1,0l0.1,0l0.1,0l0.1,0l0.1-0.1
	l0.1-0.1l0-0.1l0-0.1v-1l0.5,0l0.4-0.1l0.4-0.1l0.4-0.1l0.4-0.1l0.3-0.2l0.3-0.2l0.3-0.2l0.2-0.3l0.2-0.3l0.2-0.3l0.1-0.3l0.1-0.4
	l0.1-0.4l0-0.4l0-0.4l0-0.4l-0.1-0.3l-0.1-0.3l-0.2-0.3l-0.2-0.3l-0.2-0.2l-0.2-0.2l-0.3-0.2l-0.3-0.2l-0.3-0.1l-0.3-0.1l-0.3-0.1
	l-0.4-0.1l-0.4-0.1l-0.4-0.1l-0.4-0.1v-3.1l0.3,0l0.3,0l0.2,0.1l0.2,0.1l0.2,0.1l0.2,0.1l0.2,0.1l0.1,0.2l0.1,0.2l0.1,0.2l0.1,0.1
	l0.1,0.1l0.1,0.1l0.1,0.1l0.1,0.1l0.2,0.1l0.2,0l0.2,0l0.2-0.1l0.2-0.1l0.2-0.1l0.1-0.1l0.1-0.2l0.1-0.2l0-0.2l0-0.3l-0.1-0.3
	l-0.1-0.3l-0.2-0.2l-0.2-0.2l-0.2-0.2l-0.3-0.2l-0.3-0.2l-0.3-0.1l-0.3-0.1l-0.3-0.1l-0.3-0.1l-0.3-0.1l-0.3,0l-0.3,0l-0.3,0v-0.9
	l0-0.1l0-0.1l-0.1-0.1l-0.1-0.1l-0.1-0.1L386.2,244.4z M386.2,241.9l0.8,0l0.8,0.1l0.8,0.2l0.7,0.2l0.7,0.3l0.7,0.3l0.7,0.4l0.6,0.4
	l0.6,0.5l0.6,0.5l0.5,0.6l0.5,0.6l0.4,0.6l0.4,0.7l0.3,0.7l0.3,0.7l0.2,0.7l0.2,0.8l0.1,0.8l0,0.8l0,0.8l-0.1,0.8l-0.2,0.8l-0.2,0.8
	l-0.3,0.7l-0.3,0.7l-0.4,0.7l-0.4,0.6l-0.5,0.6l-0.5,0.6l-0.6,0.5l-0.6,0.5l-0.6,0.4l-0.7,0.4l-0.7,0.3l-0.7,0.3l-0.7,0.2l-0.8,0.2
	l-0.8,0.1l-0.8,0l-0.8,0l-0.8-0.1l-0.8-0.2l-0.8-0.2l-0.7-0.3l-0.7-0.3l-0.7-0.4l-0.6-0.4l-0.6-0.5l-0.6-0.5l-0.5-0.6l-0.5-0.6
	l-0.4-0.6l-0.4-0.7l-0.3-0.7l-0.3-0.7l-0.2-0.8l-0.2-0.8l-0.1-0.8l0-0.8l0-0.8l0.1-0.8l0.2-0.8l0.2-0.7l0.3-0.7l0.3-0.7l0.4-0.7
	l0.4-0.6l0.5-0.6l0.5-0.6l0.6-0.5l0.6-0.5l0.6-0.4l0.7-0.4l0.7-0.3l0.7-0.3l0.8-0.2l0.8-0.2l0.8-0.1L386.2,241.9z"/>
<line class="st0" x1="386.6" y1="442.6" x2="386.6" y2="296.3"/>
<polygon class="st1" points="390.8,297.7 386.6,289.4 382.4,297.7 "/>
<line class="st0" x1="386.6" y1="153.1" x2="386.6" y2="119.5"/>
<polygon class="st1" points="390.8,120.9 386.6,112.6 382.4,120.9 "/>
</svg>
